<svg width="144" height="79" viewBox="0 0 144 79" fill="none" xmlns="http://www.w3.org/2000/svg">
<path d="M0.956065 77.2019C0.972747 77.9859 1.84433 78.4465 2.50151 78.0186L22.2455 65.162C22.4079 65.0563 22.5975 65 22.7912 65H42.7173C42.8986 65 43.0764 64.9507 43.2318 64.8575L54.9111 57.8499C55.2631 57.6387 55.7083 57.6641 56.0341 57.9138L69.9487 68.5817C70.2774 68.8337 70.7273 68.857 71.0803 68.6404L142.894 24.5617C142.961 24.5207 143.031 24.4728 143.047 24.396C143.298 23.176 136.395 15.581 132.65 11.6625C132.546 11.5537 132.426 11.4745 132.285 11.4219C122.382 7.73032 102.789 0.5 101.994 0.5C101.198 0.5 83.1489 3.80503 74.1097 5.47864C74.031 5.4932 73.9574 5.51659 73.8845 5.54943L64.527 9.76031C64.1979 9.9084 63.9741 10.2223 63.9414 10.5817L63.0604 20.2728C63.0211 20.706 62.707 21.0657 62.2794 21.1457C60.7046 21.4401 58.4943 21.6867 58.4943 21C58.4943 20.249 54.6758 9.15876 52.4156 2.7013C52.2014 2.08937 51.4704 1.84135 50.9272 2.19526L19.1975 22.8676C19.064 22.9546 18.9532 23.0723 18.8743 23.2108L0.630907 55.2601C0.541524 55.4171 0.496353 55.5954 0.500197 55.776L0.956065 77.2019Z" fill="#FEA200" stroke="#C25628"/>
</svg>
