<svg width="194" height="162" viewBox="0 0 194 162" fill="none" xmlns="http://www.w3.org/2000/svg">
<path d="M1.50064 65.3326C0.85841 65.3326 0.382675 64.7359 0.52578 64.1098L4.02946 48.7812C4.15015 48.2532 4.6693 47.9172 5.20043 48.0235L23.0502 51.5934C23.669 51.7172 24.2463 51.2439 24.2463 50.6128V43.8326C24.2463 43.2804 24.694 42.8326 25.2463 42.8326H31.8625C32.1096 42.8326 32.3479 42.7412 32.5315 42.5759L36.6105 38.9048C36.9766 38.5754 37.5279 38.5615 37.9101 38.872L44.5208 44.2432C44.9291 44.575 45.5247 44.5336 45.8833 44.1485L58.4497 30.6512C58.6388 30.448 58.9039 30.3326 59.1816 30.3326H69.2403C69.5584 30.3326 69.8576 30.1813 70.046 29.925L81.9466 13.7403C82.135 13.484 82.4341 13.3326 82.7522 13.3326H99.503C99.6628 13.3326 99.8204 13.371 99.9624 13.4444L114.03 20.7209C114.172 20.7943 114.33 20.8326 114.49 20.8326H119.291C120.106 20.8326 120.579 19.9085 120.101 19.2472L114.945 12.1075C114.816 11.9293 114.632 11.7984 114.421 11.7352L101.018 7.71421C100.381 7.52312 100.105 6.77504 100.464 6.21563L103.843 0.959388C104.082 0.587496 104.537 0.416729 104.962 0.539431L126.61 6.79336C126.701 6.81942 126.794 6.83264 126.888 6.83264H145.533C145.674 6.83264 145.813 6.86224 145.941 6.9195L169.461 17.4195C170.446 17.8594 170.132 19.3326 169.053 19.3326H145.246C144.694 19.3326 144.246 19.7804 144.246 20.3326V24.3326C144.246 24.8849 144.694 25.3326 145.246 25.3326H163.246C163.799 25.3326 164.246 25.7804 164.246 26.3326V28.3326C164.246 28.8849 164.694 29.3326 165.246 29.3326H178.793C179.081 29.3326 179.355 29.2082 179.545 28.9911L182.447 25.6741C182.637 25.4571 182.912 25.3326 183.2 25.3326H192.246C192.799 25.3326 193.246 25.7804 193.246 26.3326V30.3326C193.246 30.8849 192.799 31.3326 192.246 31.3326H185.246C184.694 31.3326 184.246 31.7804 184.246 32.3326V36.8927C184.246 37.173 184.129 37.4405 183.922 37.6299L172.533 48.0698C172.349 48.2389 172.107 48.3326 171.857 48.3326H167.246C166.694 48.3326 166.246 48.7804 166.246 49.3326V52.9895C166.246 53.2119 166.172 53.4279 166.036 53.6035L163.047 57.4466C162.857 57.6902 162.566 57.8326 162.257 57.8326H156.646C156.389 57.8326 156.143 57.9302 155.958 58.1071C152.544 61.3616 146.246 67.5551 146.246 68.3326V77.8326H141.746C141.194 77.8326 140.746 78.2804 140.746 78.8326V86.9184C140.746 87.1836 140.641 87.438 140.453 87.6255L130.152 97.927C129.692 98.387 128.922 98.2922 128.587 97.7344L125.511 92.6079C125.146 91.9989 124.28 91.9543 123.854 92.5224L120.679 96.756C120.42 97.1004 120.412 97.5714 120.657 97.9252L124.342 103.249C124.584 103.599 124.579 104.063 124.329 104.407L121.435 108.386C121.073 108.883 120.353 108.94 119.919 108.505L115.518 104.104C115.343 103.929 115.111 103.825 114.865 103.813C111.598 103.649 105.746 103.448 105.746 103.833V113.333H113.111C113.959 113.333 114.422 114.322 113.879 114.973L110.546 118.973C110.356 119.201 110.075 119.333 109.778 119.333H87.7463C87.4315 119.333 87.1351 119.481 86.9463 119.733L81.4867 127.012C81.3324 127.218 81.1047 127.356 80.8511 127.399L49.0819 132.693C48.5997 132.774 48.2463 133.191 48.2463 133.68V137.815C48.2463 138.14 48.0888 138.444 47.8239 138.632L16.9161 160.505C16.3484 160.907 15.5541 160.62 15.3729 159.949L7.3332 130.155C7.27678 129.946 7.28976 129.724 7.37019 129.523L15.9948 107.961C16.1467 107.582 16.5144 107.333 16.9233 107.333H23.2463C23.7986 107.333 24.2463 106.885 24.2463 106.333V99.3326C24.2463 98.7804 24.694 98.3326 25.2463 98.3326H32.2463C32.7986 98.3326 33.2463 97.8849 33.2463 97.3326V92.3326C33.2463 91.7804 32.7986 91.3326 32.2463 91.3326H23.1148C22.3161 91.3326 21.8397 90.4425 22.2827 89.7779L31.6463 75.7326C31.9698 75.2474 31.8111 74.5895 31.3021 74.305L15.4736 65.4597C15.3246 65.3764 15.1566 65.3326 14.9858 65.3326H1.50064Z" fill="#FEA200"/>
<path d="M146.246 68.3326C146.246 67.5551 152.544 61.3616 155.958 58.1071C156.143 57.9302 156.389 57.8326 156.646 57.8326H162.257C162.566 57.8326 162.857 57.6902 163.047 57.4466L166.036 53.6035C166.172 53.4279 166.246 53.2119 166.246 52.9895V49.3326C166.246 48.7804 166.694 48.3326 167.246 48.3326H171.857C172.107 48.3326 172.349 48.2389 172.533 48.0698L183.922 37.6299C184.129 37.4405 184.246 37.173 184.246 36.8927V32.3326C184.246 31.7804 184.694 31.3326 185.246 31.3326H192.246C192.799 31.3326 193.246 30.8849 193.246 30.3326V26.3326C193.246 25.7804 192.799 25.3326 192.246 25.3326H183.2C182.912 25.3326 182.637 25.4571 182.447 25.6741L179.545 28.9911C179.355 29.2082 179.081 29.3326 178.793 29.3326H165.246C164.694 29.3326 164.246 28.8849 164.246 28.3326V26.3326C164.246 25.7804 163.799 25.3326 163.246 25.3326H145.246C144.694 25.3326 144.246 24.8849 144.246 24.3326V20.3326C144.246 19.7804 144.694 19.3326 145.246 19.3326H169.053C170.132 19.3326 170.446 17.8594 169.461 17.4195L145.941 6.9195C145.813 6.86224 145.674 6.83264 145.533 6.83264H126.888C126.794 6.83264 126.7 6.81942 126.61 6.79336L104.962 0.539431C104.537 0.416729 104.082 0.587496 103.843 0.959388L100.464 6.21563C100.105 6.77505 100.381 7.52312 101.018 7.71421L114.421 11.7352C114.632 11.7984 114.816 11.9293 114.945 12.1075L120.101 19.2472C120.579 19.9085 120.106 20.8326 119.291 20.8326H114.49C114.33 20.8326 114.172 20.7943 114.03 20.7209L99.9624 13.4444C99.8204 13.371 99.6628 13.3326 99.503 13.3326H82.7522C82.4341 13.3326 82.135 13.484 81.9466 13.7403L70.046 29.925C69.8576 30.1813 69.5584 30.3326 69.2403 30.3326H59.1816C58.904 30.3326 58.6388 30.448 58.4497 30.6512L45.8833 44.1485C45.5247 44.5336 44.9291 44.575 44.5208 44.2432L37.9101 38.872C37.5279 38.5615 36.9766 38.5754 36.6105 38.9048L32.5315 42.5759C32.3479 42.7412 32.1096 42.8326 31.8625 42.8326H25.2463C24.694 42.8326 24.2463 43.2804 24.2463 43.8326V50.6128C24.2463 51.2439 23.669 51.7172 23.0502 51.5934L5.20043 48.0235C4.6693 47.9172 4.15015 48.2532 4.02946 48.7812L0.52578 64.1098C0.382675 64.7359 0.85841 65.3326 1.50064 65.3326H14.9858C15.1566 65.3326 15.3246 65.3764 15.4736 65.4597L31.3021 74.305C31.8111 74.5895 31.9698 75.2474 31.6463 75.7326L22.2827 89.7779C21.8397 90.4425 22.3161 91.3326 23.1148 91.3326H32.2463C32.7986 91.3326 33.2463 91.7804 33.2463 92.3326V97.3326C33.2463 97.8849 32.7986 98.3326 32.2463 98.3326H25.2463C24.694 98.3326 24.2463 98.7804 24.2463 99.3326V106.333C24.2463 106.885 23.7986 107.333 23.2463 107.333H16.9233C16.5144 107.333 16.1467 107.582 15.9948 107.961L7.37019 129.523C7.28976 129.724 7.27678 129.946 7.3332 130.155L15.3729 159.949C15.5541 160.62 16.3484 160.907 16.9161 160.505L47.8239 138.632C48.0888 138.444 48.2463 138.14 48.2463 137.815V133.68C48.2463 133.191 48.5997 132.774 49.0819 132.693L80.8511 127.399C81.1047 127.356 81.3324 127.218 81.4867 127.012L86.9463 119.733C87.1351 119.481 87.4315 119.333 87.7463 119.333H109.778C110.075 119.333 110.356 119.201 110.546 118.973L113.879 114.973C114.422 114.321 113.959 113.333 113.111 113.333H105.746M146.246 68.3326C146.246 69.1326 146.246 74.9993 146.246 77.8326M146.246 68.3326V77.8326M146.246 77.8326H141.746C141.194 77.8326 140.746 78.2804 140.746 78.8326V86.9184C140.746 87.1836 140.641 87.438 140.453 87.6255L130.152 97.927C129.692 98.387 128.922 98.2922 128.587 97.7344L125.511 92.6079C125.146 91.9989 124.28 91.9543 123.854 92.5224L120.679 96.756C120.42 97.1004 120.412 97.5713 120.657 97.9252L124.342 103.249C124.584 103.599 124.579 104.063 124.329 104.407L121.435 108.386C121.073 108.883 120.353 108.94 119.919 108.505L115.518 104.104C115.343 103.929 115.111 103.825 114.865 103.813C111.598 103.649 105.746 103.448 105.746 103.833M105.746 103.833C105.746 104.233 105.746 110.333 105.746 113.333M105.746 103.833V113.333" stroke="#C25628"/>
</svg>
