<svg width="102" height="105" viewBox="0 0 102 105" fill="none" xmlns="http://www.w3.org/2000/svg">
<path d="M0.614257 58.6191C0.269102 57.9535 0.752191 57.1588 1.50201 57.1588H5.17299C5.5854 57.1588 5.95552 56.9056 6.10499 56.5213L16.1091 30.7964C16.2586 30.412 16.6287 30.1588 17.0411 30.1588H22.4616C22.7157 30.1588 22.9602 30.0621 23.1455 29.8884L54.2046 0.770484C54.5761 0.422188 55.15 0.408713 55.5375 0.739188L71.1198 14.03C71.5307 14.3804 71.5891 14.9938 71.2517 15.4155L68.1969 19.234C67.985 19.4989 67.9218 19.8531 68.0291 20.1749L70.5088 27.6139C70.6954 28.1739 71.3241 28.4512 71.8636 28.2115L83.2036 23.1714C83.7928 22.9096 84.4721 23.2655 84.5922 23.8989L89.7027 50.8451C89.7923 51.3172 90.2048 51.6588 90.6852 51.6588H100.357C100.909 51.6588 101.357 52.1065 101.357 52.6588V58.6303C101.357 58.961 101.194 59.2703 100.92 59.4565L90.8852 66.2987C90.5632 66.5183 90.3981 66.9049 90.4621 67.2893L91.8 75.3166C91.837 75.5383 91.9475 75.741 92.1137 75.8922L96.9038 80.2467C97.1819 80.4996 97.2948 80.8871 97.1959 81.2498L93.1564 96.0613C92.9977 96.6432 92.3638 96.9533 91.807 96.7213L51.7512 80.0314C51.2528 79.8237 50.6796 80.0491 50.4562 80.5406L48.6239 84.5718C48.4614 84.9292 48.5231 85.3486 48.7817 85.6441L58.0047 96.1847C58.4359 96.6775 58.285 97.4448 57.6994 97.7377L46.0682 103.553C45.9293 103.623 45.7762 103.659 45.621 103.659H40.2713C39.3804 103.659 38.9342 102.582 39.5642 101.952L44.1499 97.3659C44.5405 96.9754 44.5405 96.3422 44.1499 95.9517L41.0402 92.842C40.6592 92.4609 40.0447 92.4503 39.6508 92.818L34.5394 97.5887C33.9002 98.1853 32.8571 97.732 32.8571 96.8576V87.6588C32.8571 87.1065 32.4093 86.6588 31.8571 86.6588H23.2002C22.9778 86.6588 22.7618 86.7329 22.5862 86.8695L9.95082 96.697C9.59917 96.9705 9.109 96.9784 8.74871 96.7164L4.33885 93.5092C4.04199 93.2933 3.88728 92.9321 3.93579 92.5683L6.81538 70.9714C6.84251 70.7679 6.80638 70.5611 6.71191 70.3789L0.614257 58.6191Z" fill="#FEA200" stroke="#C25628"/>
</svg>
