<svg width="197" height="164" viewBox="0 0 197 164" fill="none" xmlns="http://www.w3.org/2000/svg">
<path d="M4.83239 0.615379C4.19439 0.281883 3.42364 0.71148 3.37173 1.4295L0.5026 41.1192C0.488903 41.3087 0.529461 41.4981 0.619526 41.6654L10.5585 60.1234C10.7995 60.5712 11.3382 60.7667 11.8103 60.5778L15.353 59.1607C15.7327 59.0089 15.9816 58.6412 15.9816 58.2323V51.302C15.9816 51.0496 15.8862 50.8065 15.7144 50.6215L9.74884 44.1971C9.57708 44.0121 9.48163 43.769 9.48163 43.5166V12.9481C9.48163 12.2244 10.2265 11.7403 10.8878 12.0343L13.4394 13.1683C13.7737 13.3169 14.0001 13.6361 14.0299 14.0007L15.9545 37.5775C15.9721 37.7929 16.059 37.9968 16.2022 38.1587L27.24 50.6362C27.3961 50.8126 27.4849 51.0384 27.4907 51.2738L27.9724 70.5402C27.9784 70.7784 27.8991 71.0109 27.7488 71.1958L22.0704 78.1847C21.7389 78.5927 21.7799 79.1877 22.1642 79.5463L51.2906 106.731C51.4159 106.848 51.569 106.931 51.7355 106.971L73.7098 112.343C73.8876 112.386 74.0501 112.478 74.1795 112.607L87.1887 125.616C87.3763 125.804 87.6306 125.909 87.8958 125.909H99.0766C99.5904 125.909 100.021 126.299 100.072 126.81L101.918 145.273C101.957 145.661 102.218 145.991 102.586 146.118L114.309 150.176C114.711 150.316 114.982 150.695 114.982 151.121V158.409C114.982 158.962 115.429 159.409 115.982 159.409H123.901C124.26 159.409 124.592 159.602 124.77 159.913L126.003 162.072C126.27 162.539 126.859 162.712 127.336 162.462L136.217 157.81C136.656 157.58 137.198 157.706 137.489 158.108L140.248 161.901C140.625 162.418 141.383 162.454 141.807 161.974L147.943 155.02C148.257 154.664 148.278 154.137 147.993 153.758L141.447 145.03C141.173 144.665 140.687 144.531 140.265 144.706L127.314 150.065C126.841 150.261 126.296 150.067 126.053 149.617L120.226 138.861C120.073 138.578 120.065 138.237 120.207 137.947L129.238 119.41C129.389 119.099 129.369 118.731 129.184 118.438L123.776 109.875C123.593 109.585 123.274 109.409 122.93 109.409H103.664C102.905 109.409 102.423 108.598 102.785 107.932L116.938 81.9089C117.226 81.3789 116.983 80.7163 116.421 80.4985L102.746 75.2052C102.302 75.0332 101.797 75.1988 101.541 75.6009L91.7763 90.9462C91.5928 91.2346 91.2746 91.4093 90.9327 91.4093H74.5413C74.1935 91.4093 73.8708 91.2287 73.6889 90.9323L60.8236 69.9666C60.6159 69.6281 60.6282 69.1986 60.855 68.8725L75.914 47.2253C76.228 46.7739 76.1186 46.1535 75.669 45.8368L54.7504 31.0987C54.5758 30.9757 54.4452 30.8 54.3777 30.5974L48.2096 12.0931C48.0734 11.6847 47.6913 11.4093 47.2609 11.4093H25.7272C25.5659 11.4093 25.407 11.3703 25.264 11.2955L4.83239 0.615379Z" fill="#FEA200"/>
<path d="M127.305 74.1877C127.408 73.7324 127.813 73.4093 128.28 73.4093H147.697C147.883 73.4093 148.065 73.4612 148.224 73.559L168.508 86.1161C168.802 86.2984 168.982 86.62 168.982 86.9664V96.4093C168.982 96.9616 168.534 97.4093 167.982 97.4093H159.246C159.073 97.4093 158.902 97.3643 158.752 97.2788L137.192 85.0289C137.054 84.9503 136.899 84.9058 136.74 84.8992L126.181 84.4593C125.557 84.4333 125.109 83.8477 125.248 83.2385L127.305 74.1877Z" fill="#FEA200"/>
<path d="M171.23 99.5379C171.382 99.1583 171.75 98.9093 172.159 98.9093H189.476C189.794 98.9093 190.093 99.0603 190.281 99.3161L196.004 107.083C196.449 107.687 196.095 108.548 195.353 108.664L181.234 110.87C181.068 110.896 180.899 110.88 180.741 110.823L169.456 106.76C168.923 106.568 168.656 105.973 168.866 105.448L171.23 99.5379Z" fill="#FEA200"/>
<path d="M4.83239 0.615379C4.19439 0.281883 3.42364 0.71148 3.37173 1.4295L0.5026 41.1192C0.488903 41.3087 0.529461 41.4981 0.619526 41.6654L10.5585 60.1234C10.7995 60.5712 11.3382 60.7667 11.8103 60.5778L15.353 59.1607C15.7327 59.0089 15.9816 58.6412 15.9816 58.2323V51.302C15.9816 51.0496 15.8862 50.8065 15.7144 50.6215L9.74884 44.1971C9.57708 44.0121 9.48163 43.769 9.48163 43.5166V12.9481C9.48163 12.2244 10.2265 11.7403 10.8878 12.0343L13.4394 13.1683C13.7737 13.3169 14.0001 13.6361 14.0299 14.0007L15.9545 37.5775C15.9721 37.7929 16.059 37.9968 16.2022 38.1587L27.24 50.6362C27.3961 50.8126 27.4849 51.0384 27.4907 51.2738L27.9724 70.5402C27.9784 70.7784 27.8991 71.0109 27.7488 71.1958L22.0704 78.1847C21.7389 78.5927 21.7799 79.1877 22.1642 79.5463L51.2906 106.731C51.4159 106.848 51.569 106.931 51.7355 106.971L73.7098 112.343C73.8876 112.386 74.0501 112.478 74.1795 112.607L87.1887 125.616C87.3763 125.804 87.6306 125.909 87.8958 125.909H99.0766C99.5904 125.909 100.021 126.299 100.072 126.81L101.918 145.273C101.957 145.661 102.218 145.991 102.586 146.118L114.309 150.176C114.711 150.316 114.982 150.695 114.982 151.121V158.409C114.982 158.962 115.429 159.409 115.982 159.409H123.901C124.26 159.409 124.592 159.602 124.77 159.913L126.003 162.072C126.27 162.539 126.859 162.712 127.336 162.462L136.217 157.81C136.656 157.58 137.198 157.706 137.489 158.108L140.248 161.901C140.625 162.418 141.383 162.454 141.807 161.974L147.943 155.02C148.257 154.664 148.278 154.137 147.993 153.758L141.447 145.03C141.173 144.665 140.687 144.531 140.265 144.706L127.314 150.065C126.841 150.261 126.296 150.067 126.053 149.617L120.226 138.861C120.073 138.578 120.065 138.237 120.207 137.947L129.238 119.41C129.389 119.099 129.369 118.731 129.184 118.438L123.776 109.875C123.593 109.585 123.274 109.409 122.93 109.409H103.664C102.905 109.409 102.423 108.598 102.785 107.932L116.938 81.9089C117.226 81.3789 116.983 80.7163 116.421 80.4985L102.746 75.2052C102.302 75.0332 101.797 75.1988 101.541 75.6009L91.7763 90.9462C91.5928 91.2346 91.2746 91.4093 90.9327 91.4093H74.5413C74.1935 91.4093 73.8708 91.2287 73.6889 90.9323L60.8236 69.9666C60.6159 69.6281 60.6282 69.1986 60.855 68.8725L75.914 47.2253C76.228 46.7739 76.1186 46.1535 75.669 45.8368L54.7504 31.0987C54.5758 30.9757 54.4452 30.8 54.3777 30.5974L48.2096 12.0931C48.0734 11.6847 47.6913 11.4093 47.2609 11.4093H25.7272C25.5659 11.4093 25.407 11.3703 25.264 11.2955L4.83239 0.615379Z" stroke="#C25628"/>
<path d="M127.305 74.1877C127.408 73.7324 127.813 73.4093 128.28 73.4093H147.697C147.883 73.4093 148.065 73.4612 148.224 73.559L168.508 86.1161C168.802 86.2984 168.982 86.62 168.982 86.9664V96.4093C168.982 96.9616 168.534 97.4093 167.982 97.4093H159.246C159.073 97.4093 158.902 97.3643 158.752 97.2788L137.192 85.0289C137.054 84.9503 136.899 84.9058 136.74 84.8992L126.181 84.4593C125.557 84.4333 125.109 83.8477 125.248 83.2385L127.305 74.1877Z" stroke="#C25628"/>
<path d="M171.23 99.5379C171.382 99.1583 171.75 98.9093 172.159 98.9093H189.476C189.794 98.9093 190.093 99.0603 190.281 99.3161L196.004 107.083C196.449 107.687 196.095 108.548 195.353 108.664L181.234 110.87C181.068 110.896 180.899 110.88 180.741 110.823L169.456 106.76C168.923 106.568 168.656 105.973 168.866 105.448L171.23 99.5379Z" stroke="#C25628"/>
</svg>
