<svg width="204" height="134" viewBox="0 0 204 134" fill="none" xmlns="http://www.w3.org/2000/svg">
<path d="M0.5 82.5274C0.5 82.6349 0.517328 82.7417 0.551317 82.8437L6.89793 101.883C6.96429 102.083 7.0916 102.256 7.26182 102.378L27.8396 117.214C28.2242 117.491 28.7506 117.46 29.1001 117.14L40.2133 106.953C40.3977 106.783 40.6388 106.69 40.889 106.69H71.5858C71.851 106.69 72.1054 106.584 72.2929 106.397L77.2071 101.483C77.3946 101.295 77.649 101.19 77.9142 101.19H86.1714C86.3848 101.19 86.5927 101.258 86.7646 101.385L95.6188 107.909C95.8601 108.087 96.0089 108.363 96.0243 108.663L96.9815 127.328C96.9934 127.562 97.0868 127.784 97.2454 127.956L101.584 132.656C102.154 133.273 103.184 132.956 103.308 132.125L107.967 100.911C107.989 100.765 108.042 100.626 108.124 100.504L113.659 92.2011C113.868 91.8874 114.236 91.718 114.61 91.7629L126.102 93.1419C126.357 93.1726 126.615 93.1035 126.821 92.949L150.314 75.3289C150.437 75.2373 150.536 75.119 150.605 74.9831L163.222 50.2355C163.393 49.9006 163.737 49.6897 164.113 49.6897H183.5C184.052 49.6897 184.5 49.242 184.5 48.6897V40.6897C184.5 40.1374 184.948 39.6897 185.5 39.6897H196.086C196.351 39.6897 196.605 39.5843 196.793 39.3968L203.207 32.9826C203.395 32.7951 203.5 32.5407 203.5 32.2755V21.1897C203.5 20.6374 203.052 20.1897 202.5 20.1897H193.843C193.621 20.1897 193.405 20.2638 193.229 20.4003L180.594 30.2279C180.242 30.5014 179.752 30.5093 179.392 30.2473L174.777 26.8912C174.597 26.7606 174.38 26.6935 174.158 26.7004L158.847 27.1789C158.622 27.1859 158.406 27.2682 158.235 27.4127L146.279 37.4554C146.099 37.6067 145.871 37.6897 145.636 37.6897H133.5C132.948 37.6897 132.5 37.242 132.5 36.6897V24.6039C132.5 23.713 131.423 23.2668 130.793 23.8968L118.593 36.0964C118.25 36.4396 117.71 36.4868 117.313 36.2086L108.747 30.2129C108.324 29.9165 108.196 29.3463 108.453 28.8975L115.868 15.9203C115.955 15.7692 116 15.5982 116 15.4241V8.77002C116 8.41116 115.808 8.07982 115.496 7.90178L102.774 0.631881C102.333 0.379873 101.773 0.498513 101.472 0.907734L89.7708 16.8214C89.5988 17.0553 89.537 17.3524 89.6013 17.6354L91.8669 27.6039C91.9488 27.9644 91.8251 28.3407 91.5453 28.5823L81.3464 37.3906C81.1264 37.5805 81 37.8568 81 38.1474V61.7755C81 62.0407 80.8946 62.2951 80.7071 62.4826L73.091 70.0987C72.7489 70.4408 72.2109 70.4889 71.8135 70.213L54.7298 58.3493C54.5795 58.2449 54.4607 58.1013 54.3864 57.934L50.7365 49.7218C50.5903 49.3929 50.2787 49.1679 49.9206 49.1327L20.4863 46.2375C20.1794 46.2073 19.8758 46.3204 19.6634 46.544L1.2626 65.9133C1.09347 66.0913 0.995761 66.3253 0.988091 66.5708L0.5 82.1897V82.5274Z" fill="#FEA200" stroke="#C25628"/>
</svg>
