<svg width="532" height="426" viewBox="0 0 532 426" fill="none" xmlns="http://www.w3.org/2000/svg">
<path d="M186.171 124.979C186.364 124.593 186.782 124.374 187.209 124.436L223.638 129.709C224.129 129.78 224.494 130.201 224.494 130.698V144.85C224.494 145.155 224.634 145.443 224.872 145.633L241.116 158.532C241.355 158.722 241.494 159.01 241.494 159.315V181.588C241.494 181.749 241.533 181.907 241.607 182.05L247.855 194.065C247.946 194.24 247.983 194.437 247.962 194.632L245.587 216.966C245.534 217.463 245.123 217.844 244.623 217.86L229.841 218.322C229.616 218.329 229.401 218.411 229.229 218.556L217.273 228.598C217.093 228.75 216.865 228.833 216.63 228.833H204.494C203.942 228.833 203.494 228.385 203.494 227.833V215.747C203.494 214.856 202.417 214.41 201.787 215.04L189.588 227.239C189.244 227.583 188.705 227.63 188.307 227.352L179.742 221.356C179.318 221.059 179.191 220.489 179.447 220.04L186.863 207.063C186.949 206.912 186.994 206.741 186.994 206.567V199.901C186.994 199.548 186.809 199.222 186.506 199.042L162.01 184.438C161.478 184.121 161.359 183.403 161.759 182.932L183.053 157.853C183.319 157.539 183.366 157.094 183.171 156.732L176.74 144.79C176.586 144.503 176.581 144.159 176.726 143.868L186.171 124.979Z" fill="#FEA200" stroke="#C25628"/>
<path d="M159.953 183.753C160.29 183.803 160.63 183.677 160.853 183.419L183.042 157.854C183.314 157.54 183.364 157.091 183.167 156.725L176.74 144.79C176.586 144.503 176.581 144.159 176.726 143.868L185.886 125.55C186.188 124.946 185.817 124.223 185.151 124.115L70.5273 105.581C69.8094 105.464 69.2116 106.129 69.4029 106.831L71.7808 115.55C71.9053 116.006 72.3322 116.313 72.8043 116.285L79.1902 115.909C79.8475 115.871 80.3622 116.467 80.2279 117.112L78.0677 127.48C78.0203 127.708 77.895 127.912 77.7134 128.057L73.332 131.563C73.1165 131.735 72.9818 131.989 72.9598 132.264L72.019 144.024C72.0029 144.225 71.9264 144.417 71.7995 144.573L63.835 154.412C63.6225 154.674 63.5569 155.026 63.6606 155.348L68.3033 169.741C68.4203 170.103 68.733 170.368 69.1099 170.423L159.953 183.753Z" fill="#FEA200" stroke="#C25628"/>
<path d="M71.1752 106.244C70.2565 106.103 70.0101 104.894 70.8004 104.405L141.752 60.4824C141.911 60.3845 142.093 60.3326 142.279 60.3326H174.014C174.317 60.3326 174.605 60.4707 174.795 60.7079L182.326 70.1223C182.436 70.2601 182.581 70.3662 182.745 70.43L206.356 79.5851C206.741 79.7343 206.994 80.1047 206.994 80.5174V88.3326C206.994 88.8849 207.442 89.3326 207.994 89.3326H212.472C212.799 89.3326 213.106 89.1724 213.293 88.9037L220.528 78.5031C220.799 78.1129 221.308 77.9677 221.744 78.1558L253.144 91.6818C253.37 91.779 253.623 91.7897 253.856 91.7121L260.653 89.4464C260.874 89.3729 261.062 89.2248 261.185 89.0277L270.701 73.8026C270.883 73.5103 271.204 73.3326 271.549 73.3326H279.994C280.547 73.3326 280.994 73.7804 280.994 74.3326V83.8326C280.994 84.3849 281.442 84.8326 281.994 84.8326H292.494C293.047 84.8326 293.494 85.2804 293.494 85.8326V89.99C293.494 90.7834 294.374 91.2608 295.039 90.8284L302.755 85.813C303.178 85.5385 303.738 85.621 304.064 86.0055L308.434 91.1706C308.756 91.5505 308.749 92.1089 308.418 92.4809L297.536 104.723C297.221 105.078 296.699 105.162 296.288 104.924L288.082 100.173C287.727 99.9675 287.283 99.9994 286.961 100.253L278.461 106.964C278.173 107.191 277.785 107.243 277.448 107.098L268.888 103.43C268.228 103.147 267.494 103.631 267.494 104.349V113.333C267.494 113.885 267.047 114.333 266.494 114.333H253.494C252.942 114.333 252.494 114.78 252.494 115.333V118.252C252.494 118.987 251.73 119.47 251.066 119.156L243.561 115.601C243.215 115.437 242.805 115.486 242.506 115.726L225.338 129.556C225.119 129.732 224.836 129.808 224.559 129.766L71.1752 106.244Z" fill="#FEA200" stroke="#C25628"/>
<path d="M0.956065 114.034C0.972747 114.819 1.84433 115.279 2.50151 114.851L22.2455 101.995C22.4079 101.889 22.5975 101.833 22.7912 101.833H42.7173C42.8986 101.833 43.0764 101.783 43.2318 101.69L54.9111 94.6826C55.2631 94.4714 55.7083 94.4967 56.0341 94.7464L69.9487 105.414C70.2774 105.666 70.7273 105.69 71.0803 105.473L142.894 61.3944C142.961 61.3534 143.031 61.3054 143.047 61.2286C143.298 60.0086 136.395 52.4136 132.65 48.4952C132.546 48.3863 132.426 48.3072 132.285 48.2546C122.382 44.563 102.789 37.3326 101.994 37.3326C101.198 37.3326 83.1489 40.6377 74.1097 42.3113C74.031 42.3258 73.9574 42.3492 73.8845 42.3821L64.527 46.5929C64.1979 46.741 63.9741 47.0549 63.9414 47.4143L63.0604 57.1054C63.0211 57.5386 62.707 57.8984 62.2794 57.9783C60.7046 58.2728 58.4943 58.5193 58.4943 57.8326C58.4943 57.0817 54.6758 45.9914 52.4156 39.5339C52.2014 38.922 51.4704 38.674 50.9272 39.0279L19.1975 59.7003C19.064 59.7873 18.9532 59.9049 18.8743 60.0434L0.630907 92.0927C0.541524 92.2497 0.496353 92.428 0.500197 92.6087L0.956065 114.034Z" fill="#FEA200" stroke="#C25628"/>
<path d="M242.252 183.293C241.906 182.627 242.389 181.833 243.139 181.833H246.81C247.223 181.833 247.593 181.579 247.742 181.195L257.746 155.47C257.896 155.086 258.266 154.833 258.678 154.833H264.099C264.353 154.833 264.597 154.736 264.783 154.562L295.842 125.444C296.213 125.096 296.787 125.083 297.175 125.413L312.757 138.704C313.168 139.054 313.226 139.668 312.889 140.089L309.834 143.908C309.622 144.173 309.559 144.527 309.666 144.849L312.146 152.288C312.333 152.848 312.961 153.125 313.501 152.885L324.841 147.845C325.43 147.583 326.109 147.939 326.23 148.573L331.34 175.519C331.43 175.991 331.842 176.333 332.322 176.333H341.994C342.547 176.333 342.994 176.78 342.994 177.333V183.304C342.994 183.635 342.831 183.944 342.558 184.13L332.522 190.973C332.2 191.192 332.035 191.579 332.099 191.963L333.437 199.99C333.474 200.212 333.585 200.415 333.751 200.566L338.541 204.921C338.819 205.173 338.932 205.561 338.833 205.924L334.794 220.735C334.635 221.317 334.001 221.627 333.444 221.395L293.388 204.705C292.89 204.498 292.317 204.723 292.093 205.214L290.261 209.246C290.099 209.603 290.16 210.022 290.419 210.318L299.642 220.859C300.073 221.351 299.922 222.119 299.337 222.411L287.705 228.227C287.567 228.296 287.414 228.333 287.258 228.333H281.909C281.018 228.333 280.571 227.256 281.201 226.626L285.787 222.04C286.178 221.649 286.178 221.016 285.787 220.626L282.677 217.516C282.296 217.135 281.682 217.124 281.288 217.492L276.177 222.262C275.537 222.859 274.494 222.406 274.494 221.531V212.333C274.494 211.78 274.047 211.333 273.494 211.333H264.837C264.615 211.333 264.399 211.407 264.223 211.543L251.588 221.371C251.236 221.644 250.746 221.652 250.386 221.39L245.976 218.183C245.679 217.967 245.525 217.606 245.573 217.242L248.453 195.645C248.48 195.442 248.444 195.235 248.349 195.053L242.252 183.293Z" fill="#FEA200" stroke="#C25628"/>
<path d="M161.176 183.951C161.054 183.872 160.92 183.822 160.777 183.801L69.0485 170.414C68.7042 170.363 68.3585 170.496 68.1358 170.763L64.2267 175.454C63.8391 175.919 63.1304 175.936 62.7213 175.489L58.7744 171.184C58.3629 170.735 57.649 170.755 57.2633 171.226L22.1724 214.115C22.0559 214.257 21.981 214.429 21.9558 214.611L17.5434 246.478C17.5117 246.707 17.5604 246.94 17.6814 247.138L26.8499 262.097C26.9444 262.251 27.079 262.377 27.2393 262.461L48.7767 273.719C48.9196 273.794 49.0786 273.833 49.2399 273.833H70.7108C71.2631 273.833 71.7108 273.385 71.7108 272.833V257.905C71.7108 257.648 71.8101 257.4 71.988 257.214L90.658 237.684C90.8703 237.462 91.1729 237.35 91.4787 237.38L120.915 240.276C121.273 240.311 121.585 240.536 121.731 240.865L125.381 249.077C125.455 249.244 125.574 249.388 125.724 249.492L142.808 261.356C143.205 261.632 143.743 261.584 144.085 261.242L151.701 253.626C151.889 253.438 151.994 253.184 151.994 252.918V229.066C151.994 228.771 152.124 228.491 152.35 228.301L162.529 219.725C162.815 219.484 162.942 219.104 162.859 218.739L160.598 208.79C160.532 208.5 160.596 208.2 160.776 207.964C165.188 202.189 173.386 191.333 172.994 191.333C172.601 191.333 165.067 186.487 161.176 183.951Z" fill="#FEA200" stroke="#C25628"/>
<path d="M28.3451 263.039C27.7071 262.705 26.9363 263.135 26.8844 263.853L24.0153 303.543C24.0016 303.732 24.0422 303.921 24.1322 304.089L34.0712 322.547C34.3122 322.994 34.8509 323.19 35.323 323.001L38.8657 321.584C39.2454 321.432 39.4943 321.065 39.4943 320.656V313.725C39.4943 313.473 39.3989 313.23 39.2271 313.045L33.2615 306.62C33.0898 306.435 32.9943 306.192 32.9943 305.94V275.371C32.9943 274.648 33.7392 274.164 34.4005 274.458L36.9521 275.592C37.2864 275.74 37.5128 276.059 37.5426 276.424L39.4672 300.001C39.4848 300.216 39.5717 300.42 39.7149 300.582L50.7527 313.06C50.9088 313.236 50.9976 313.462 51.0034 313.697L51.4851 332.964C51.4911 333.202 51.4118 333.434 51.2615 333.619L45.5831 340.608C45.2516 341.016 45.2926 341.611 45.6769 341.97L74.8033 369.154C74.9285 369.271 75.0817 369.354 75.2482 369.395L97.2225 374.766C97.4003 374.81 97.5628 374.901 97.6922 375.03L110.701 388.04C110.889 388.227 111.143 388.333 111.409 388.333H122.589C123.103 388.333 123.533 388.722 123.584 389.233L125.431 407.696C125.469 408.084 125.73 408.414 126.099 408.542L137.821 412.6C138.224 412.739 138.494 413.118 138.494 413.545V420.833C138.494 421.385 138.942 421.833 139.494 421.833H147.414C147.773 421.833 148.104 422.025 148.282 422.337L149.516 424.496C149.783 424.963 150.372 425.135 150.848 424.885L159.729 420.233C160.169 420.003 160.71 420.13 161.002 420.531L163.761 424.324C164.137 424.842 164.896 424.877 165.319 424.398L171.456 417.443C171.769 417.088 171.79 416.561 171.506 416.181L164.96 407.453C164.686 407.088 164.199 406.955 163.777 407.129L150.827 412.488C150.354 412.684 149.809 412.491 149.565 412.04L143.739 401.285C143.586 401.001 143.578 400.661 143.719 400.37L152.75 381.834C152.902 381.522 152.882 381.154 152.697 380.862L147.289 372.299C147.105 372.009 146.786 371.833 146.443 371.833H127.177C126.418 371.833 125.936 371.021 126.298 370.355L140.451 344.332C140.739 343.802 140.496 343.14 139.933 342.922L126.259 337.629C125.814 337.457 125.31 337.622 125.054 338.024L115.289 353.37C115.105 353.658 114.787 353.833 114.445 353.833H98.054C97.7062 353.833 97.3835 353.652 97.2016 353.356L84.3363 332.39C84.1286 332.051 84.1409 331.622 84.3677 331.296L99.4267 309.649C99.7407 309.197 99.6313 308.577 99.1817 308.26L78.2631 293.522C78.0885 293.399 77.9579 293.223 77.8904 293.021L71.7222 274.516C71.5861 274.108 71.204 273.833 70.7736 273.833H49.2399C49.0786 273.833 48.9196 273.794 48.7767 273.719L28.3451 263.039Z" fill="#FEA200"/>
<path d="M150.817 336.611C150.921 336.156 151.326 335.833 151.793 335.833H171.21C171.396 335.833 171.578 335.884 171.736 335.982L192.021 348.539C192.315 348.722 192.494 349.043 192.494 349.39V358.833C192.494 359.385 192.047 359.833 191.494 359.833H182.759C182.585 359.833 182.415 359.788 182.265 359.702L160.705 347.452C160.566 347.374 160.411 347.329 160.252 347.323L149.694 346.883C149.07 346.857 148.622 346.271 148.76 345.662L150.817 336.611Z" fill="#FEA200"/>
<path d="M194.743 361.961C194.895 361.582 195.262 361.333 195.671 361.333H212.989C213.307 361.333 213.606 361.484 213.794 361.739L219.517 369.506C219.962 370.11 219.608 370.971 218.866 371.087L204.747 373.293C204.581 373.319 204.412 373.303 204.254 373.246L192.969 369.183C192.436 368.992 192.169 368.397 192.379 367.871L194.743 361.961Z" fill="#FEA200"/>
<path d="M28.3451 263.039C27.7071 262.705 26.9363 263.135 26.8844 263.853L24.0153 303.543C24.0016 303.732 24.0422 303.921 24.1322 304.089L34.0712 322.547C34.3122 322.994 34.8509 323.19 35.323 323.001L38.8657 321.584C39.2454 321.432 39.4943 321.065 39.4943 320.656V313.725C39.4943 313.473 39.3989 313.23 39.2271 313.045L33.2615 306.62C33.0898 306.435 32.9943 306.192 32.9943 305.94V275.371C32.9943 274.648 33.7392 274.164 34.4005 274.458L36.9521 275.592C37.2864 275.74 37.5128 276.059 37.5426 276.424L39.4672 300.001C39.4848 300.216 39.5717 300.42 39.7149 300.582L50.7527 313.06C50.9088 313.236 50.9976 313.462 51.0034 313.697L51.4851 332.964C51.4911 333.202 51.4118 333.434 51.2615 333.619L45.5831 340.608C45.2516 341.016 45.2926 341.611 45.6769 341.97L74.8033 369.154C74.9285 369.271 75.0817 369.354 75.2482 369.395L97.2225 374.766C97.4003 374.81 97.5628 374.901 97.6922 375.03L110.701 388.04C110.889 388.227 111.143 388.333 111.409 388.333H122.589C123.103 388.333 123.533 388.722 123.584 389.233L125.431 407.696C125.469 408.084 125.73 408.414 126.099 408.542L137.821 412.6C138.224 412.739 138.494 413.118 138.494 413.545V420.833C138.494 421.385 138.942 421.833 139.494 421.833H147.414C147.773 421.833 148.104 422.025 148.282 422.337L149.516 424.496C149.783 424.963 150.372 425.135 150.848 424.885L159.729 420.233C160.169 420.003 160.71 420.13 161.002 420.531L163.761 424.324C164.137 424.842 164.896 424.877 165.319 424.398L171.456 417.443C171.769 417.088 171.79 416.561 171.506 416.181L164.96 407.453C164.686 407.088 164.199 406.955 163.777 407.129L150.827 412.488C150.354 412.684 149.809 412.491 149.565 412.04L143.739 401.285C143.586 401.001 143.578 400.661 143.719 400.37L152.75 381.834C152.902 381.522 152.882 381.154 152.697 380.862L147.289 372.299C147.105 372.009 146.786 371.833 146.443 371.833H127.177C126.418 371.833 125.936 371.021 126.298 370.355L140.451 344.332C140.739 343.802 140.496 343.14 139.933 342.922L126.259 337.629C125.814 337.457 125.31 337.622 125.054 338.024L115.289 353.37C115.105 353.658 114.787 353.833 114.445 353.833H98.054C97.7062 353.833 97.3835 353.652 97.2016 353.356L84.3363 332.39C84.1286 332.051 84.1409 331.622 84.3677 331.296L99.4267 309.649C99.7407 309.197 99.6313 308.577 99.1817 308.26L78.2631 293.522C78.0885 293.399 77.9579 293.223 77.8904 293.021L71.7222 274.516C71.5861 274.108 71.204 273.833 70.7736 273.833H49.2399C49.0786 273.833 48.9196 273.794 48.7767 273.719L28.3451 263.039Z" stroke="#C25628"/>
<path d="M150.817 336.611C150.921 336.156 151.326 335.833 151.793 335.833H171.21C171.396 335.833 171.578 335.884 171.736 335.982L192.021 348.539C192.315 348.722 192.494 349.043 192.494 349.39V358.833C192.494 359.385 192.047 359.833 191.494 359.833H182.759C182.585 359.833 182.415 359.788 182.265 359.702L160.705 347.452C160.566 347.374 160.411 347.329 160.252 347.323L149.694 346.883C149.07 346.857 148.622 346.271 148.76 345.662L150.817 336.611Z" stroke="#C25628"/>
<path d="M194.743 361.961C194.895 361.582 195.262 361.333 195.671 361.333H212.989C213.307 361.333 213.606 361.484 213.794 361.739L219.517 369.506C219.962 370.11 219.608 370.971 218.866 371.087L204.747 373.293C204.581 373.319 204.412 373.303 204.254 373.246L192.969 369.183C192.436 368.992 192.169 368.397 192.379 367.871L194.743 361.961Z" stroke="#C25628"/>
<path d="M71.4943 273.67C71.4943 273.778 71.5117 273.885 71.5456 273.987L77.8923 293.026C77.9586 293.226 78.0859 293.399 78.2561 293.521L98.8339 308.357C99.2185 308.634 99.745 308.603 100.094 308.283L111.208 298.095C111.392 297.926 111.633 297.833 111.883 297.833H142.58C142.845 297.833 143.1 297.727 143.287 297.54L148.201 292.626C148.389 292.438 148.643 292.333 148.909 292.333H157.166C157.379 292.333 157.587 292.401 157.759 292.528L166.613 299.052C166.854 299.23 167.003 299.506 167.019 299.806L167.976 318.471C167.988 318.705 168.081 318.927 168.24 319.098L172.579 323.799C173.148 324.416 174.178 324.099 174.302 323.268L178.961 292.054C178.983 291.908 179.037 291.769 179.118 291.647L184.653 283.344C184.863 283.03 185.23 282.861 185.605 282.906L197.096 284.285C197.352 284.316 197.609 284.246 197.815 284.092L221.309 266.472C221.431 266.38 221.53 266.262 221.6 266.126L234.216 241.378C234.387 241.044 234.731 240.833 235.107 240.833H254.494C255.047 240.833 255.494 240.385 255.494 239.833V231.833C255.494 231.28 255.942 230.833 256.494 230.833H267.08C267.345 230.833 267.6 230.727 267.787 230.54L274.201 224.126C274.389 223.938 274.494 223.684 274.494 223.418V212.333C274.494 211.78 274.047 211.333 273.494 211.333H264.837C264.615 211.333 264.399 211.407 264.223 211.543L251.588 221.371C251.236 221.644 250.746 221.652 250.386 221.39L245.771 218.034C245.592 217.904 245.374 217.836 245.152 217.843L229.841 218.322C229.616 218.329 229.401 218.411 229.229 218.556L217.273 228.598C217.093 228.75 216.865 228.833 216.63 228.833H204.494C203.942 228.833 203.494 228.385 203.494 227.833V215.747C203.494 214.856 202.417 214.41 201.787 215.04L189.588 227.239C189.244 227.583 188.705 227.63 188.307 227.352L179.742 221.356C179.318 221.059 179.191 220.489 179.447 220.04L186.863 207.063C186.949 206.912 186.994 206.741 186.994 206.567V199.913C186.994 199.554 186.802 199.223 186.49 199.045L173.768 191.775C173.327 191.523 172.767 191.641 172.466 192.051L160.765 207.964C160.593 208.198 160.531 208.495 160.596 208.778L162.861 218.747C162.943 219.107 162.819 219.484 162.54 219.725L152.341 228.533C152.121 228.723 151.994 229 151.994 229.29V252.918C151.994 253.184 151.889 253.438 151.701 253.626L144.085 261.242C143.743 261.584 143.205 261.632 142.808 261.356L125.724 249.492C125.574 249.388 125.455 249.244 125.381 249.077L121.731 240.865C121.585 240.536 121.273 240.311 120.915 240.276L91.4806 237.38C91.1738 237.35 90.8701 237.463 90.6578 237.687L72.2569 257.056C72.0878 257.234 71.9901 257.468 71.9824 257.714L71.4943 273.333V273.67Z" fill="#FEA200" stroke="#C25628"/>
<path d="M339.749 65.3326C339.106 65.3326 338.631 64.7359 338.774 64.1098L342.278 48.7812C342.398 48.2532 342.917 47.9172 343.448 48.0235L361.298 51.5934C361.917 51.7172 362.494 51.2439 362.494 50.6128V43.8326C362.494 43.2804 362.942 42.8326 363.494 42.8326H370.111C370.358 42.8326 370.596 42.7412 370.78 42.5759L374.859 38.9048C375.225 38.5754 375.776 38.5615 376.158 38.872L382.769 44.2432C383.177 44.575 383.773 44.5336 384.131 44.1485L396.698 30.6512C396.887 30.448 397.152 30.3326 397.43 30.3326H407.488C407.806 30.3326 408.106 30.1813 408.294 29.925L420.195 13.7403C420.383 13.484 420.682 13.3326 421 13.3326H437.751C437.911 13.3326 438.068 13.371 438.21 13.4444L452.278 20.7209C452.42 20.7943 452.578 20.8326 452.738 20.8326H457.539C458.354 20.8326 458.827 19.9085 458.349 19.2472L453.193 12.1075C453.064 11.9293 452.88 11.7984 452.67 11.7352L439.266 7.71421C438.629 7.52312 438.353 6.77504 438.712 6.21563L442.091 0.959388C442.33 0.587496 442.785 0.416729 443.21 0.539431L464.858 6.79336C464.949 6.81942 465.042 6.83264 465.136 6.83264H483.781C483.922 6.83264 484.061 6.86224 484.189 6.9195L507.709 17.4195C508.694 17.8594 508.38 19.3326 507.301 19.3326H483.494C482.942 19.3326 482.494 19.7804 482.494 20.3326V24.3326C482.494 24.8849 482.942 25.3326 483.494 25.3326H501.494C502.047 25.3326 502.494 25.7804 502.494 26.3326V28.3326C502.494 28.8849 502.942 29.3326 503.494 29.3326H517.041C517.329 29.3326 517.603 29.2082 517.793 28.9911L520.696 25.6741C520.885 25.4571 521.16 25.3326 521.448 25.3326H530.494C531.047 25.3326 531.494 25.7804 531.494 26.3326V30.3326C531.494 30.8849 531.047 31.3326 530.494 31.3326H523.494C522.942 31.3326 522.494 31.7804 522.494 32.3326V36.8927C522.494 37.173 522.377 37.4405 522.17 37.6299L510.781 48.0698C510.597 48.2389 510.356 48.3326 510.105 48.3326H505.494C504.942 48.3326 504.494 48.7804 504.494 49.3326V52.9895C504.494 53.2119 504.42 53.4279 504.284 53.6035L501.295 57.4466C501.105 57.6902 500.814 57.8326 500.505 57.8326H494.894C494.637 57.8326 494.391 57.9302 494.206 58.1071C490.792 61.3616 484.494 67.5551 484.494 68.3326V77.8326H479.994C479.442 77.8326 478.994 78.2804 478.994 78.8326V86.9184C478.994 87.1836 478.889 87.438 478.701 87.6255L468.4 97.927C467.94 98.387 467.17 98.2922 466.835 97.7344L463.759 92.6079C463.394 91.9989 462.528 91.9543 462.102 92.5224L458.927 96.756C458.669 97.1004 458.66 97.5714 458.905 97.9252L462.59 103.249C462.832 103.599 462.827 104.063 462.577 104.407L459.683 108.386C459.321 108.883 458.601 108.94 458.167 108.505L453.766 104.104C453.591 103.929 453.359 103.825 453.113 103.813C449.846 103.649 443.994 103.448 443.994 103.833V113.333H451.359C452.207 113.333 452.67 114.322 452.128 114.973L448.794 118.973C448.604 119.201 448.323 119.333 448.026 119.333H425.994C425.68 119.333 425.383 119.481 425.194 119.733L419.735 127.012C419.58 127.218 419.353 127.356 419.099 127.399L387.33 132.693C386.848 132.774 386.494 133.191 386.494 133.68V137.815C386.494 138.14 386.337 138.444 386.072 138.632L355.164 160.505C354.596 160.907 353.802 160.62 353.621 159.949L345.581 130.155C345.525 129.946 345.538 129.724 345.618 129.523L354.243 107.961C354.395 107.582 354.762 107.333 355.171 107.333H361.494C362.047 107.333 362.494 106.885 362.494 106.333V99.3326C362.494 98.7804 362.942 98.3326 363.494 98.3326H370.494C371.047 98.3326 371.494 97.8849 371.494 97.3326V92.3326C371.494 91.7804 371.047 91.3326 370.494 91.3326H361.363C360.564 91.3326 360.088 90.4425 360.531 89.7779L369.894 75.7326C370.218 75.2474 370.059 74.5895 369.55 74.305L353.722 65.4597C353.573 65.3764 353.405 65.3326 353.234 65.3326H339.749Z" fill="#FEA200"/>
<path d="M484.494 68.3326C484.494 67.5551 490.792 61.3616 494.206 58.1071C494.392 57.9302 494.637 57.8326 494.894 57.8326H500.505C500.814 57.8326 501.105 57.6902 501.295 57.4466L504.284 53.6035C504.42 53.4279 504.494 53.2119 504.494 52.9895V49.3326C504.494 48.7804 504.942 48.3326 505.494 48.3326H510.105C510.356 48.3326 510.597 48.2389 510.781 48.0698L522.17 37.6299C522.377 37.4405 522.494 37.173 522.494 36.8927V32.3326C522.494 31.7804 522.942 31.3326 523.494 31.3326H530.494C531.047 31.3326 531.494 30.8849 531.494 30.3326V26.3326C531.494 25.7804 531.047 25.3326 530.494 25.3326H521.448C521.16 25.3326 520.885 25.4571 520.696 25.6741L517.793 28.9911C517.603 29.2082 517.329 29.3326 517.041 29.3326H503.494C502.942 29.3326 502.494 28.8849 502.494 28.3326V26.3326C502.494 25.7804 502.047 25.3326 501.494 25.3326H483.494C482.942 25.3326 482.494 24.8849 482.494 24.3326V20.3326C482.494 19.7804 482.942 19.3326 483.494 19.3326H507.301C508.38 19.3326 508.694 17.8594 507.709 17.4195L484.189 6.9195C484.061 6.86224 483.922 6.83264 483.781 6.83264H465.136C465.042 6.83264 464.949 6.81942 464.858 6.79336L443.21 0.539431C442.785 0.416729 442.33 0.587496 442.091 0.959388L438.712 6.21563C438.353 6.77505 438.629 7.52312 439.266 7.71421L452.67 11.7352C452.88 11.7984 453.064 11.9293 453.193 12.1075L458.349 19.2472C458.827 19.9085 458.354 20.8326 457.539 20.8326H452.738C452.578 20.8326 452.42 20.7943 452.278 20.7209L438.21 13.4444C438.068 13.371 437.911 13.3326 437.751 13.3326H421C420.682 13.3326 420.383 13.484 420.195 13.7403L408.294 29.925C408.106 30.1813 407.806 30.3326 407.488 30.3326H397.43C397.152 30.3326 396.887 30.448 396.698 30.6512L384.131 44.1485C383.773 44.5336 383.177 44.575 382.769 44.2432L376.158 38.872C375.776 38.5615 375.225 38.5754 374.859 38.9048L370.78 42.5759C370.596 42.7412 370.358 42.8326 370.111 42.8326H363.494C362.942 42.8326 362.494 43.2804 362.494 43.8326V50.6128C362.494 51.2439 361.917 51.7172 361.298 51.5934L343.448 48.0235C342.917 47.9172 342.398 48.2532 342.278 48.7812L338.774 64.1098C338.631 64.7359 339.106 65.3326 339.749 65.3326H353.234C353.405 65.3326 353.573 65.3764 353.722 65.4597L369.55 74.305C370.059 74.5895 370.218 75.2474 369.894 75.7326L360.531 89.7779C360.088 90.4425 360.564 91.3326 361.363 91.3326H370.494C371.047 91.3326 371.494 91.7804 371.494 92.3326V97.3326C371.494 97.8849 371.047 98.3326 370.494 98.3326H363.494C362.942 98.3326 362.494 98.7804 362.494 99.3326V106.333C362.494 106.885 362.047 107.333 361.494 107.333H355.171C354.762 107.333 354.395 107.582 354.243 107.961L345.618 129.523C345.538 129.724 345.525 129.946 345.581 130.155L353.621 159.949C353.802 160.62 354.596 160.907 355.164 160.505L386.072 138.632C386.337 138.444 386.494 138.14 386.494 137.815V133.68C386.494 133.191 386.848 132.774 387.33 132.693L419.099 127.399C419.353 127.356 419.58 127.218 419.735 127.012L425.194 119.733C425.383 119.481 425.68 119.333 425.994 119.333H448.026C448.323 119.333 448.604 119.201 448.794 118.973L452.128 114.973C452.67 114.321 452.207 113.333 451.359 113.333H443.994M484.494 68.3326C484.494 69.1326 484.494 74.9993 484.494 77.8326M484.494 68.3326V77.8326M484.494 77.8326H479.994C479.442 77.8326 478.994 78.2804 478.994 78.8326V86.9184C478.994 87.1836 478.889 87.438 478.701 87.6255L468.4 97.927C467.94 98.387 467.17 98.2922 466.835 97.7344L463.759 92.6079C463.394 91.9989 462.528 91.9543 462.102 92.5224L458.927 96.756C458.669 97.1004 458.66 97.5713 458.905 97.9252L462.59 103.249C462.832 103.599 462.827 104.063 462.577 104.407L459.683 108.386C459.321 108.883 458.601 108.94 458.167 108.505L453.766 104.104C453.591 103.929 453.359 103.825 453.113 103.813C449.846 103.649 443.994 103.448 443.994 103.833M443.994 103.833C443.994 104.233 443.994 110.333 443.994 113.333M443.994 103.833V113.333" stroke="#C25628"/>
</svg>
