<svg width="557" height="481" viewBox="0 0 557 481" fill="none" xmlns="http://www.w3.org/2000/svg">
<path d="M507.19 303.294C506.385 303.294 505.91 302.39 506.367 301.726L514.775 289.535C515.065 289.114 515.627 288.98 516.077 289.225L519.307 290.987C519.974 291.351 520.786 290.868 520.786 290.109V281.53C520.786 281.375 520.75 281.222 520.68 281.083L515.342 270.406C515.305 270.332 515.277 270.253 515.259 270.171L509.278 242.564C509.092 241.706 510.022 241.042 510.773 241.497L527.304 251.502C527.603 251.683 527.786 252.008 527.786 252.358V260.294C527.786 260.846 527.338 261.294 526.786 261.294H520.786C520.234 261.294 519.786 261.742 519.786 262.294V265.294C519.786 265.846 520.234 266.294 520.786 266.294H524.372C524.637 266.294 524.891 266.399 525.079 266.587L533.408 274.916C533.644 275.152 533.747 275.491 533.681 275.819L532.827 280.088C532.8 280.224 532.745 280.352 532.666 280.466L529.41 285.117C529.328 285.234 529.272 285.366 529.246 285.506L527.8 293.218C527.791 293.269 527.777 293.318 527.76 293.367L524.843 301.632C524.805 301.739 524.786 301.852 524.786 301.965V309.145C524.786 309.995 523.792 310.457 523.142 309.909L515.565 303.529C515.385 303.377 515.157 303.294 514.921 303.294H507.19Z" fill="#FFE803"/>
<path d="M500.04 310.667C500.472 310.451 500.997 310.575 501.287 310.962L510.581 323.354C510.95 323.847 510.791 324.553 510.245 324.839L502.531 328.88C501.806 329.26 500.957 328.655 501.078 327.846L502.177 320.518C502.242 320.087 502.02 319.664 501.629 319.472L491.94 314.717L500.04 310.667Z" fill="#FFE801"/>
<path d="M491.786 314.794L491.94 314.717M491.94 314.717L500.04 310.667C500.472 310.451 500.997 310.575 501.287 310.962L510.581 323.354C510.95 323.847 510.791 324.553 510.245 324.839L502.531 328.88C501.806 329.26 500.957 328.655 501.078 327.846L502.177 320.518C502.242 320.087 502.02 319.664 501.629 319.472L491.94 314.717ZM515.565 303.529L523.142 309.909C523.792 310.457 524.786 309.995 524.786 309.144V301.965C524.786 301.852 524.805 301.739 524.843 301.632L527.76 293.367C527.777 293.318 527.791 293.269 527.8 293.218L529.246 285.506C529.272 285.366 529.328 285.234 529.41 285.117L532.666 280.466C532.745 280.352 532.8 280.224 532.827 280.088L533.681 275.819C533.747 275.491 533.644 275.152 533.408 274.916L525.079 266.587C524.891 266.399 524.637 266.294 524.372 266.294H520.786C520.234 266.294 519.786 265.846 519.786 265.294V262.294C519.786 261.742 520.234 261.294 520.786 261.294H526.786C527.338 261.294 527.786 260.846 527.786 260.294V252.358C527.786 252.008 527.603 251.683 527.304 251.502L510.773 241.497C510.022 241.042 509.092 241.706 509.278 242.564L515.259 270.171C515.277 270.253 515.305 270.332 515.342 270.406L520.68 281.083C520.75 281.222 520.786 281.375 520.786 281.53V290.109C520.786 290.868 519.974 291.351 519.307 290.987L516.077 289.225C515.627 288.98 515.065 289.114 514.775 289.535L506.367 301.726C505.91 302.39 506.385 303.294 507.19 303.294H514.921C515.157 303.294 515.385 303.377 515.565 303.529Z" stroke="#C79B2F"/>
<path d="M0.553656 257.079C0.398448 256.624 0.589362 256.122 1.00811 255.886L11.2169 250.116C11.5627 249.92 11.9913 249.948 12.309 250.186L21.3426 256.961C21.6184 257.168 21.9814 257.218 22.303 257.094L43.5595 248.881C43.7084 248.824 43.8645 248.802 44.0232 248.82C50.2655 249.497 62.3911 250.899 62.786 251.294C63.1791 251.687 73.9029 263.054 79.4938 268.984C79.6828 269.184 79.9421 269.294 80.2176 269.294H94.2387C94.5797 269.294 94.8972 269.468 95.081 269.755L102.536 281.403C102.695 281.651 102.954 281.816 103.246 281.855L124.866 284.738C125.134 284.774 125.406 284.699 125.619 284.531L136.716 275.745C137.056 275.476 137.53 275.457 137.891 275.697L157.757 288.941C158.08 289.156 158.249 289.539 158.191 289.923L155.826 305.528C155.8 305.702 155.82 305.88 155.884 306.044L167.653 335.956C167.739 336.174 167.745 336.416 167.671 336.638L163.182 350.107C162.979 350.715 162.264 350.978 161.715 350.646L144.025 339.938C143.869 339.844 143.689 339.794 143.507 339.794H129.707C129.438 339.794 129.18 339.685 128.992 339.492L109.08 319.095C108.892 318.903 108.634 318.794 108.365 318.794H101.286C100.734 318.794 100.286 319.242 100.286 319.794V335.867C100.286 336.14 100.398 336.401 100.595 336.589L111.496 347.017C111.682 347.195 111.93 347.294 112.187 347.294H118.786C119.338 347.294 119.786 347.742 119.786 348.294V354.047C119.786 354.49 120.077 354.88 120.502 355.006L132.698 358.62C133.059 358.727 133.449 358.622 133.708 358.349L141.579 350.04C141.967 349.631 142.614 349.622 143.012 350.02L158.282 365.29C158.584 365.591 158.661 366.051 158.474 366.435L149.432 384.995C149.337 385.189 149.182 385.347 148.99 385.446L98.0014 411.683C97.8598 411.756 97.703 411.794 97.5438 411.794H89.2398C88.9514 411.794 88.6771 411.669 88.4872 411.452L81.8604 403.879C81.811 403.822 81.7681 403.761 81.7325 403.695L64.4055 371.516C64.3271 371.37 64.286 371.207 64.286 371.042V358.051C64.286 357.882 64.2433 357.716 64.162 357.569L45.286 323.294L35.1299 306.851C34.921 306.512 34.9322 306.083 35.1585 305.756L47.8335 287.448C48.0984 287.065 48.0643 286.55 47.7512 286.206L43.6184 281.66C43.4089 281.429 43.104 281.309 42.7937 281.336L20.0297 283.273C19.8696 283.287 19.7086 283.262 19.5603 283.2L8.20236 278.467C7.93764 278.357 7.73301 278.138 7.64047 277.867L0.553656 257.079Z" fill="#FFE803" stroke="#C79B2F"/>
<path d="M158.739 289.155C158.452 289.243 158.141 289.197 157.892 289.031L137.353 275.339C137.308 275.309 137.266 275.276 137.227 275.239L132.152 270.527C131.486 269.908 131.924 268.794 132.833 268.794H138.286C138.838 268.794 139.286 268.346 139.286 267.794V261.794C139.286 261.242 138.838 260.794 138.286 260.794H127.786C127.234 260.794 126.786 260.346 126.786 259.794V253.294C126.786 252.742 126.338 252.294 125.786 252.294H117.811C117.482 252.294 117.175 252.132 116.988 251.862L107.804 238.545C107.511 238.12 107.589 237.541 107.988 237.212C110.116 235.456 113.429 232.794 113.786 232.794C114.113 232.794 120.03 236.134 124.546 238.72C125.394 239.205 126.366 238.313 125.955 237.427L121.055 226.873C120.891 226.52 120.537 226.294 120.148 226.294H108.414C108.03 226.294 107.68 226.074 107.513 225.729L101.045 212.331C100.886 212 100.92 211.608 101.135 211.311L106.987 203.208C107.175 202.948 107.476 202.794 107.797 202.794H125.435C125.662 202.794 125.883 202.717 126.06 202.575L135.411 195.094C135.648 194.904 135.786 194.617 135.786 194.313V182.907C135.786 182.313 136.302 181.849 136.893 181.913L181.916 186.754C182.155 186.78 182.376 186.891 182.54 187.066L210.017 216.506C210.19 216.691 210.286 216.935 210.286 217.188V227.794C210.286 228.346 210.734 228.794 211.286 228.794H217.786C218.338 228.794 218.786 229.242 218.786 229.794V236.794C218.786 237.346 218.338 237.794 217.786 237.794H211.286C210.734 237.794 210.286 238.242 210.286 238.794V243.285C210.286 243.605 210.439 243.905 210.698 244.093L221.219 251.745C221.264 251.778 221.311 251.806 221.36 251.831L230.457 256.379C230.924 256.613 231.133 257.168 230.935 257.652L227.04 267.173C226.886 267.548 226.521 267.794 226.115 267.794H211.025C210.586 267.794 210.198 268.08 210.069 268.5L206.724 279.372C206.515 280.051 205.684 280.302 205.135 279.852L201.2 276.633C200.941 276.421 200.594 276.353 200.274 276.45L158.739 289.155Z" fill="#FFE801" stroke="#C79B2F"/>
<path d="M221.94 252.343C221.353 252.064 221.184 251.308 221.597 250.806L236.335 232.843C236.605 232.514 237.054 232.392 237.453 232.538L266.524 243.198C266.695 243.261 266.846 243.369 266.96 243.512L284.486 265.419C284.676 265.656 284.963 265.794 285.267 265.794H347.336C347.622 265.794 347.895 265.671 348.084 265.457L374.275 235.871C374.576 235.531 374.611 235.031 374.359 234.653L363.996 219.109C363.861 218.906 363.804 218.661 363.837 218.419L365.149 208.802C365.224 208.248 365.739 207.864 366.291 207.949L371.039 208.679C371.481 208.747 371.914 208.513 372.1 208.106L379.429 192.076C379.634 191.626 380.137 191.394 380.613 191.53L389.935 194.194C390.162 194.258 390.358 194.401 390.49 194.596L405.489 216.853C405.675 217.129 405.985 217.294 406.318 217.294H412.989C413.183 217.294 413.373 217.35 413.535 217.456L424.362 224.518C424.629 224.691 424.962 224.728 425.26 224.616L435.657 220.717C436.244 220.497 436.886 220.865 436.993 221.482L442.212 251.368C442.259 251.64 442.192 251.919 442.027 252.14L424.473 275.544C424.351 275.707 424.183 275.828 423.99 275.893L415.102 278.855C414.455 279.071 413.786 278.589 413.786 277.907V270.708C413.786 269.817 412.709 269.371 412.079 270.001L399.706 282.374C399.242 282.838 399.344 283.617 399.912 283.946L407.862 288.548C408.129 288.703 408.454 288.726 408.74 288.609L421.061 283.589C421.487 283.416 421.976 283.555 422.247 283.927L425.296 288.12C425.58 288.51 425.544 289.048 425.211 289.398L416.416 298.633C416.059 299.007 416.047 299.592 416.387 299.981L433.039 319.011C433.198 319.193 433.286 319.427 433.286 319.67V330.013C433.286 330.197 433.337 330.377 433.433 330.534L438.542 338.894C438.697 339.148 438.731 339.456 438.635 339.737L429.857 365.585C429.81 365.723 429.734 365.848 429.634 365.954L419.581 376.484C419.393 376.682 419.131 376.794 418.858 376.794H407.666C407.421 376.794 407.185 376.884 407.002 377.047L394.335 388.306C394.008 388.596 393.531 388.641 393.156 388.416L383.931 382.881C383.835 382.823 383.749 382.75 383.678 382.664L371.672 368.257C371.435 367.972 371.059 367.842 370.696 367.919L355.37 371.17C355.01 371.246 354.721 371.514 354.618 371.866L352.497 379.076C352.372 379.502 351.981 379.794 351.538 379.794H343.786C343.234 379.794 342.786 379.346 342.786 378.794V362.931C342.786 362.542 342.561 362.189 342.209 362.025L336.709 359.458C336.046 359.149 335.286 359.633 335.286 360.364V364.294C335.286 364.846 334.838 365.294 334.286 365.294H330.488C329.863 365.294 329.391 364.727 329.505 364.112L331.658 352.483C331.735 352.069 331.545 351.652 331.182 351.439L323.402 346.862C323.325 346.817 323.242 346.782 323.156 346.759L278.887 334.821C278.82 334.803 278.755 334.778 278.693 334.746L254.5 322.403C254.359 322.331 254.204 322.294 254.046 322.294H240.649C240.153 322.294 239.732 321.931 239.66 321.44L235.391 292.506C235.328 292.081 235 291.743 234.577 291.668L213.096 287.849C212.894 287.813 212.708 287.716 212.564 287.572L206.229 281.237C205.958 280.966 205.866 280.564 205.991 280.202L210.053 268.467C210.193 268.064 210.572 267.794 210.998 267.794H226.115C226.521 267.794 226.886 267.548 227.04 267.173L230.928 257.669C231.129 257.178 230.911 256.616 230.432 256.387L221.94 252.343Z" fill="#FFE801" stroke="#C79B2F"/>
<path d="M383.161 382.044C383.509 382.461 383.46 383.079 383.051 383.437L376.128 389.495C375.91 389.685 375.786 389.959 375.786 390.248V397.842C375.786 398.129 375.909 398.403 376.125 398.593L396.447 416.495C396.663 416.685 396.786 416.958 396.786 417.246V430.961C396.786 431.177 396.716 431.388 396.586 431.561L387.928 443.105C387.835 443.229 387.714 443.33 387.575 443.4L374.233 450.07C373.568 450.403 372.786 449.919 372.786 449.176V432.975C372.786 432.855 372.764 432.736 372.722 432.624L369.924 425.162C369.835 424.925 369.661 424.731 369.435 424.618L357.997 418.9C357.858 418.83 357.705 418.794 357.55 418.794H354.271C353.724 418.794 353.279 419.232 353.271 419.778L352.793 450.371C352.788 450.641 352.894 450.902 353.085 451.093L360.993 459.001C361.181 459.189 361.286 459.443 361.286 459.708V478.567C361.286 479.43 360.267 479.888 359.622 479.315L347.944 468.935C347.84 468.842 347.756 468.728 347.698 468.601L335.401 441.547C335.326 441.381 335.297 441.198 335.318 441.018L337.753 420.08C337.774 419.893 337.743 419.704 337.662 419.534L333.057 409.864C332.892 409.516 332.54 409.294 332.155 409.294H323.475C323.06 409.294 322.688 409.038 322.54 408.651L312.404 382.102C312.327 381.902 312.317 381.683 312.375 381.476L321.76 347.886C321.777 347.825 321.8 347.765 321.829 347.708C322.08 347.207 322.694 347.008 323.19 347.269L331.134 351.451C331.522 351.655 331.732 352.087 331.652 352.518L329.505 364.112C329.391 364.727 329.863 365.294 330.488 365.294H334.286C334.838 365.294 335.286 364.846 335.286 364.294V360.364C335.286 359.633 336.046 359.149 336.709 359.458L342.209 362.025C342.561 362.189 342.786 362.542 342.786 362.931V378.794C342.786 379.346 343.234 379.794 343.786 379.794H351.538C351.981 379.794 352.372 379.502 352.497 379.076L354.618 371.866C354.721 371.514 355.01 371.246 355.37 371.17L370.696 367.919C371.059 367.842 371.435 367.972 371.672 368.257L383.161 382.044Z" fill="#FFE801" stroke="#C79B2F"/>
<path d="M163.148 350.207C162.957 350.782 163.316 351.394 163.911 351.506L188.945 356.23C189.166 356.271 189.366 356.386 189.514 356.556L208.665 378.58C209.013 378.98 209.614 379.039 210.033 378.713L216.672 373.549C217.329 373.038 218.286 373.506 218.286 374.339V402.044C218.286 402.208 218.326 402.37 218.404 402.515L241.631 446.066C241.953 446.669 242.772 446.779 243.241 446.281L258.486 430.113C258.677 429.909 258.775 429.636 258.756 429.357L257.317 408.734C257.297 408.454 257.397 408.178 257.591 407.975L287.819 376.283C288.101 375.988 288.535 375.893 288.914 376.045L295.241 378.576C295.578 378.711 295.96 378.653 296.242 378.425L305.336 371.063C305.827 370.666 306.559 370.818 306.852 371.378L311.117 379.553C311.536 380.356 312.722 380.232 312.966 379.359L321.764 347.873C321.779 347.82 321.798 347.769 321.823 347.721C322.063 347.241 321.804 346.661 321.287 346.518L278.884 334.821C278.819 334.803 278.756 334.778 278.695 334.748L254.5 322.403C254.359 322.331 254.204 322.294 254.046 322.294H240.649C240.153 322.294 239.732 321.931 239.66 321.44L235.391 292.506C235.328 292.081 235 291.743 234.577 291.668L213.096 287.849C212.894 287.813 212.708 287.716 212.564 287.572L205.786 280.794L201.207 276.672C200.946 276.438 200.581 276.357 200.245 276.459L158.888 289.11C158.52 289.222 158.249 289.536 158.192 289.916L155.826 305.528C155.8 305.702 155.82 305.88 155.884 306.044L167.653 335.956C167.739 336.174 167.745 336.416 167.671 336.638L163.148 350.207Z" fill="#FFE801" stroke="#C79B2F"/>
<path d="M424.774 275.143C424.49 275.522 424.511 276.049 424.825 276.404L431.487 283.956C431.677 284.171 431.95 284.294 432.237 284.294H438.132C438.529 284.294 438.889 284.529 439.048 284.893L445.406 299.426C445.619 299.913 446.176 300.148 446.673 299.961L456.415 296.308C457.074 296.061 457.278 295.228 456.808 294.704L440.671 276.723C440.433 276.457 440.354 276.085 440.464 275.746L446.062 258.485C446.195 258.073 446.58 257.794 447.013 257.794H452.517C452.97 257.794 453.367 257.489 453.483 257.05L459.753 233.42C459.775 233.336 459.786 233.25 459.786 233.164V214.815C459.786 214.488 459.627 214.182 459.359 213.995L445.155 204.053C444.921 203.888 444.768 203.631 444.735 203.346L441.933 178.589C441.859 177.935 441.185 177.53 440.573 177.77L428.644 182.457C428.159 182.647 427.61 182.434 427.38 181.966L416.112 158.959C415.918 158.564 416.006 158.089 416.328 157.788L422.829 151.72C423.109 151.459 423.512 151.381 423.869 151.517L446.151 160.051C446.534 160.197 446.967 160.096 447.248 159.796C449.201 157.714 452.548 154.425 453.286 154.794C454.021 155.161 461.56 156.963 466.142 158.029C466.743 158.169 467.322 157.735 467.362 157.119L468.228 143.69C468.261 143.18 468.673 142.777 469.183 142.755L478.884 142.333C479.396 142.311 479.809 141.905 479.839 141.393L480.235 134.653C480.265 134.159 480.65 133.761 481.143 133.716L485.146 133.352C485.536 133.317 485.911 133.512 486.105 133.852L493.611 146.987C493.724 147.186 493.766 147.417 493.73 147.643L491.358 162.345C491.312 162.63 491.392 162.921 491.576 163.144L516.563 193.22C517.155 193.933 518.316 193.525 518.332 192.597L518.778 166.278C518.783 165.972 518.648 165.681 518.411 165.487L508.201 157.134C507.942 156.921 507.806 156.594 507.839 156.26L509.2 142.659C509.249 142.163 509.656 141.779 510.155 141.759L521.101 141.321C521.514 141.305 521.874 141.036 522.008 140.645L528.472 121.713C528.647 121.201 528.383 120.643 527.877 120.453L521.022 117.882C520.867 117.824 520.729 117.729 520.62 117.605L514.439 110.541C514.078 110.127 514.117 109.5 514.528 109.135L522.378 102.157C522.632 101.931 522.984 101.849 523.312 101.941L554.678 110.705C555.503 110.936 556.217 110.09 555.851 109.315L548.473 93.6901C548.354 93.4376 548.134 93.2464 547.868 93.1629L489.465 74.85C489.347 74.813 489.223 74.7982 489.099 74.8064L459.965 76.7487C459.555 76.776 459.204 77.0508 459.079 77.4417L455.786 87.7319C455.558 88.445 454.656 88.6636 454.126 88.1343L450.612 84.62C450.405 84.4131 450.118 84.3072 449.826 84.3302L431.587 85.7702C431.391 85.7857 431.203 85.8589 431.048 85.9807L425.08 90.6697C424.643 91.0134 424.009 90.9341 423.67 90.4931L414.724 78.8628C414.462 78.5228 414.013 78.3875 413.607 78.5265L378.188 90.6564C377.931 90.7443 377.65 90.7242 377.408 90.6006L357.644 80.4889C357.003 80.1608 356.236 80.5979 356.191 81.3168L355.971 84.834C355.911 85.7896 354.672 86.123 354.141 85.3263L337.828 60.8565C337.384 60.1904 336.376 60.2902 336.071 61.0304L333.532 67.1954C333.383 67.5596 333.033 67.8019 332.639 67.8142L317.741 68.2797C317.452 68.2888 317.173 68.1724 316.977 67.9607L304.877 54.9303C304.538 54.5653 303.982 54.5054 303.573 54.7899L293.215 61.9956C292.946 62.1825 292.786 62.4891 292.786 62.8165V69.2506C292.786 69.5895 292.958 69.9052 293.242 70.0896L310.83 81.4983C311.114 81.6827 311.286 81.9984 311.286 82.3372V92.9338C311.286 93.1666 311.367 93.3921 311.516 93.5714L323.056 107.517C323.205 107.696 323.286 107.921 323.286 108.154V125.035C323.286 125.484 323.585 125.877 324.017 125.998L366.154 137.757C366.242 137.782 366.332 137.794 366.423 137.794H385.251C385.585 137.794 385.897 137.961 386.083 138.239L393.433 149.264C393.648 149.587 393.657 150.006 393.455 150.338L387.078 160.814C386.897 161.112 386.573 161.294 386.224 161.294H373.567C372.916 161.294 372.439 161.905 372.597 162.536L379.646 190.734C379.733 191.08 379.998 191.354 380.341 191.453L389.935 194.194C390.162 194.258 390.358 194.401 390.49 194.596L405.489 216.853C405.675 217.129 405.985 217.294 406.318 217.294H413.478C413.679 217.294 413.875 217.355 414.041 217.468L424.357 224.502C424.626 224.685 424.967 224.726 425.272 224.612L435.657 220.717C436.244 220.497 436.886 220.865 436.993 221.482L442.212 251.368C442.259 251.64 442.192 251.919 442.027 252.14L424.774 275.143Z" fill="#FFE801" stroke="#C79B2F"/>
<path d="M238.07 232.765C237.434 232.532 237.209 231.748 237.624 231.213L251.949 212.729C252.159 212.458 252.493 212.314 252.834 212.346L262.541 213.271C262.702 213.286 262.864 213.262 263.014 213.201L275.918 207.944C276.154 207.848 276.345 207.664 276.451 207.432L278.491 202.944C278.667 202.555 279.071 202.321 279.496 202.362L336.02 207.769C336.194 207.785 336.37 207.756 336.529 207.683L346.955 202.944C347.169 202.847 347.41 202.828 347.636 202.891L364.445 207.56C364.927 207.694 365.236 208.163 365.168 208.659L363.837 218.419C363.804 218.661 363.861 218.906 363.996 219.109L374.359 234.653C374.611 235.031 374.576 235.531 374.275 235.871L348.084 265.457C347.895 265.671 347.622 265.794 347.336 265.794H285.267C284.963 265.794 284.676 265.656 284.486 265.419L266.96 243.512C266.846 243.369 266.695 243.261 266.524 243.198L238.07 232.765Z" fill="#FFE801" stroke="#C79B2F"/>
<path d="M136.121 181.83C135.904 181.807 135.7 181.713 135.541 181.562L117.599 164.59C117.399 164.401 117.286 164.138 117.286 163.863V148.336C117.286 147.998 117.457 147.683 117.74 147.498L128.332 140.59C128.615 140.405 128.786 140.09 128.786 139.752V105.736C128.786 105.455 128.667 105.186 128.459 104.996L101.449 80.4418C101.342 80.3444 101.257 80.2249 101.2 80.0915L95.8194 67.3729C95.7972 67.3204 95.7705 67.2698 95.7396 67.2218L78.2218 39.9719C77.9675 39.5762 78.0233 39.0567 78.3559 38.724L85.5189 31.561C85.9321 31.1478 86.61 31.1754 86.9882 31.6208L116.858 66.7903C117.118 67.0958 117.17 67.5265 116.991 67.8849L111.142 79.5813C110.934 79.9983 111.041 80.5041 111.401 80.8004L118.468 86.6204C118.912 86.9859 119.572 86.9027 119.911 86.4384L128.17 75.1374C128.506 74.6776 129.157 74.5908 129.602 74.9465L137.82 81.5212C138.317 81.9189 139.054 81.757 139.339 81.1875L142.789 74.2875C143.055 73.7564 143.722 73.5723 144.222 73.892L161.154 84.7099C161.242 84.7656 161.32 84.8345 161.386 84.914L180.556 108.016C180.704 108.196 180.786 108.422 180.786 108.655V134.409C180.786 134.657 180.878 134.896 181.044 135.08L218.376 176.34C218.628 176.619 218.702 177.015 218.569 177.366L213.642 190.355C213.446 190.873 213.707 191.452 214.226 191.646L245.021 203.195C245.194 203.26 245.346 203.371 245.46 203.517L251.809 211.681C252.09 212.042 252.09 212.547 251.81 212.908L236.786 232.294L221.381 250.588C221.045 250.986 220.459 251.06 220.035 250.757L210.705 244.093C210.442 243.905 210.286 243.602 210.286 243.279V238.857C210.286 238.308 210.729 237.862 211.278 237.857L217.794 237.802C218.343 237.798 218.786 237.351 218.786 236.802V229.794C218.786 229.242 218.338 228.794 217.786 228.794H211.286C210.734 228.794 210.286 228.346 210.286 227.794V217.188C210.286 216.935 210.19 216.691 210.017 216.506L182.54 187.066C182.376 186.891 182.155 186.78 181.916 186.754L136.121 181.83Z" fill="#FFE801" stroke="#C79B2F"/>
<path d="M143.352 73.3377C143.308 73.3086 143.267 73.2761 143.228 73.2404L137.073 67.5591C136.889 67.3886 136.646 67.2939 136.395 67.2939H127.254C126.958 67.2939 126.676 67.1621 126.486 66.9341L113.153 50.9341C112.61 50.2828 113.073 49.2939 113.921 49.2939H130.431C130.661 49.2939 130.883 49.373 131.062 49.5178L143.115 59.3113C143.954 59.9929 145.128 59.0435 144.636 58.0807L134.544 38.3006C134.384 37.9865 134.401 37.6111 134.589 37.3128L147.878 16.2347C148.285 15.589 149.236 15.619 149.602 16.2891L151.566 19.8911C151.706 20.1469 151.95 20.3291 152.235 20.3901L157.576 21.5348C158.199 21.6682 158.786 21.1936 158.786 20.557V15.2554C158.786 14.9626 158.914 14.6845 159.137 14.4945L175.264 0.739163C175.579 0.470885 176.026 0.423807 176.389 0.620706L187.262 6.51027C187.585 6.68506 187.786 7.02256 187.786 7.38956V11.0019C187.786 11.466 188.105 11.8691 188.557 11.9753L195.057 13.5048C195.685 13.6525 196.286 13.1762 196.286 12.5313V5.79395C196.286 5.24166 196.734 4.79395 197.286 4.79395H205.499C205.687 4.79395 205.87 4.84661 206.029 4.94595L233.316 22.0002C233.608 22.1829 233.786 22.5034 233.786 22.8482V56.854C233.786 57.1343 233.904 57.4018 234.11 57.5912L239.462 62.4967C239.668 62.6861 239.786 62.9535 239.786 63.2338V79.1255C239.786 79.5301 239.542 79.8948 239.168 80.0495L226.583 85.2572C225.948 85.52 225.761 86.3302 226.217 86.8445L244.377 107.332C244.628 107.615 244.697 108.016 244.557 108.367L240.24 119.16C240.005 119.746 239.292 119.971 238.764 119.626L227.239 112.09C226.956 111.905 226.786 111.591 226.786 111.253V105.294C226.786 104.979 226.638 104.683 226.386 104.494L219.776 99.5361C219.266 99.1542 218.534 99.339 218.268 99.9171L212.892 111.564C212.823 111.715 212.792 111.881 212.802 112.047L213.772 127.073C213.781 127.218 213.822 127.36 213.893 127.489L225.199 148.135C225.257 148.24 225.333 148.334 225.423 148.412L257.439 175.995C257.659 176.185 257.786 176.461 257.786 176.752V200.34C257.786 200.874 258.205 201.314 258.738 201.339L277.313 202.224C278.019 202.257 278.468 202.993 278.176 203.636L276.449 207.436C276.344 207.666 276.156 207.848 275.923 207.945L264.471 212.717C264.349 212.768 264.218 212.794 264.086 212.794H253.271C252.965 212.794 252.675 212.654 252.486 212.414L245.459 203.513C245.346 203.37 245.196 203.26 245.025 203.196L214.237 191.651C213.714 191.455 213.453 190.868 213.657 190.349L218.562 177.863C218.7 177.514 218.63 177.117 218.381 176.836L181.029 134.569C180.872 134.391 180.783 134.164 180.779 133.927L180.293 109.631C180.288 109.412 180.213 109.201 180.077 109.03L161.384 85.4177C161.319 85.3357 161.242 85.2644 161.155 85.2064L143.352 73.3377Z" fill="#FFE801" stroke="#C79B2F"/>
<path d="M233.786 34.9533C233.786 34.5533 234.024 34.1918 234.392 34.0342L240.36 31.4766C240.63 31.3608 240.938 31.3698 241.201 31.5014L291.339 56.5703C291.62 56.7111 291.819 56.9762 291.875 57.2859L292.77 62.2052C292.781 62.2643 292.786 62.3241 292.786 62.3841V69.2506C292.786 69.5895 292.958 69.9052 293.242 70.0896L310.83 81.4983C311.114 81.6827 311.286 81.9984 311.286 82.3372V92.9338C311.286 93.1666 311.367 93.3921 311.516 93.5714L323.056 107.517C323.205 107.696 323.286 107.921 323.286 108.154V125.035C323.286 125.484 323.585 125.877 324.017 125.998L364.314 137.244C365.116 137.467 365.309 138.516 364.639 139.011L343.64 154.532C343.415 154.699 343.129 154.763 342.854 154.709L318.594 149.952C318.124 149.86 317.786 149.449 317.786 148.971V140.794C317.786 140.242 317.338 139.794 316.786 139.794H298.01C297.862 139.794 297.717 139.826 297.584 139.889L289.619 143.637C289.404 143.738 289.16 143.76 288.931 143.698L259.932 135.834C259.835 135.807 259.735 135.796 259.634 135.799L232.547 136.784C232.376 136.791 232.206 136.753 232.054 136.675L214.291 127.553C213.978 127.392 213.772 127.079 213.749 126.728L212.802 112.047C212.792 111.881 212.823 111.715 212.892 111.564L218.268 99.9171C218.534 99.339 219.266 99.1542 219.776 99.5361L226.386 104.494C226.638 104.683 226.786 104.979 226.786 105.294V111.253C226.786 111.591 226.956 111.905 227.239 112.09L238.764 119.626C239.292 119.971 240.005 119.746 240.24 119.16L244.557 108.367C244.697 108.016 244.628 107.615 244.377 107.332L226.217 86.8445C225.761 86.3302 225.948 85.52 226.583 85.2572L239.168 80.0495C239.542 79.8948 239.786 79.5301 239.786 79.1255V63.2338C239.786 62.9535 239.668 62.6861 239.462 62.4967L234.11 57.5912C233.904 57.4018 233.786 57.1343 233.786 56.854V34.9533Z" fill="#FFE801" stroke="#C79B2F"/>
<path d="M232.547 136.784C232.376 136.791 232.206 136.753 232.054 136.675L216.685 128.783C215.809 128.333 214.878 129.288 215.352 130.153L225.199 148.135C225.257 148.24 225.333 148.334 225.423 148.412L257.439 175.995C257.659 176.185 257.786 176.461 257.786 176.752V200.34C257.786 200.874 258.205 201.314 258.738 201.339L278.786 202.294L336.02 207.769C336.194 207.785 336.37 207.756 336.529 207.683L346.955 202.944C347.169 202.847 347.41 202.828 347.636 202.891L365.286 207.794L371.039 208.679C371.481 208.747 371.914 208.513 372.1 208.106L379.64 191.612C379.735 191.406 379.756 191.174 379.701 190.954L372.597 162.536C372.439 161.905 372.916 161.294 373.567 161.294H386.224C386.573 161.294 386.897 161.112 387.078 160.814L393.455 150.338C393.657 150.006 393.648 149.587 393.432 149.264L386.083 138.239C385.897 137.961 385.585 137.794 385.251 137.794H366.615C366.401 137.794 366.193 137.863 366.021 137.99L343.64 154.532C343.415 154.699 343.129 154.763 342.854 154.709L318.594 149.952C318.124 149.86 317.786 149.449 317.786 148.971V140.794C317.786 140.242 317.338 139.794 316.786 139.794H298.144C297.999 139.794 297.856 139.826 297.724 139.887L289.616 143.641C289.403 143.74 289.162 143.76 288.935 143.699L259.932 135.834C259.835 135.807 259.735 135.796 259.634 135.799L232.547 136.784Z" fill="#FFE801" stroke="#C79B2F"/>
</svg>
