<svg width="137" height="131" viewBox="0 0 137 131" fill="none" xmlns="http://www.w3.org/2000/svg">
<path d="M0.501617 34.3096C0.470535 33.7605 0.88872 33.2893 1.43764 33.255L24.0696 31.8405C24.3118 31.8254 24.5513 31.8989 24.7434 32.0473L35.1753 40.1083C35.3504 40.2436 35.5655 40.317 35.7868 40.317H58.7262C58.8707 40.317 59.0134 40.2857 59.1445 40.2253L96.3773 23.0787C96.7248 22.9186 96.9506 22.5742 96.9587 22.1916L97.3994 1.48145C97.4175 0.628825 98.4261 0.188731 99.0635 0.755315L114.939 14.8672C115.245 15.1389 115.685 15.1971 116.051 15.0142L131.293 7.39319C131.877 7.10119 132.58 7.4381 132.718 8.07629L136.315 24.7117C136.395 25.0826 136.258 25.4669 135.962 25.7039L106.747 49.0761C106.553 49.2311 106.424 49.4527 106.384 49.6977L101.507 79.9334C101.468 80.1802 101.337 80.4031 101.141 80.5582L89.6086 89.6879C89.501 89.7731 89.412 89.8795 89.3474 90.0005L74.0805 118.564C73.9922 118.729 73.8594 118.867 73.697 118.96L54.1769 130.184C54.0252 130.271 53.8534 130.317 53.6784 130.317H17.1927C16.7496 130.317 16.3593 130.025 16.2337 129.6L3.47827 86.4281C3.45645 86.3543 3.44324 86.2782 3.43889 86.2013L0.501617 34.3096Z" fill="#7F64B8" stroke="#42285B"/>
</svg>
