<svg width="152" height="191" viewBox="0 0 152 191" fill="none" xmlns="http://www.w3.org/2000/svg">
<path d="M0.5 77.7248C0.5 77.5403 0.551072 77.3593 0.647562 77.202L23.3972 40.1102C23.4651 39.9995 23.5539 39.9031 23.6587 39.8263L66.2982 8.59043C66.4307 8.49335 66.5851 8.43041 66.7477 8.40718L122.028 0.510034C122.326 0.467359 122.628 0.561859 122.85 0.76719L135.997 12.9756C136.3 13.257 136.4 13.6945 136.243 14.0772C135.163 16.7157 133.237 21.074 132.5 21.4426C131.756 21.8143 128.364 24.2303 126.417 25.64C126.155 25.83 126.002 26.135 126.006 26.4589L126.495 69.9827C126.498 70.2746 126.629 70.5505 126.853 70.7379L144.807 85.781C144.934 85.8871 145.032 86.0228 145.093 86.1761L150.797 100.436C150.924 100.752 150.881 101.11 150.684 101.387L133.079 126.129C132.759 126.579 132.863 127.202 133.312 127.523L142.647 134.19C142.872 134.351 143.021 134.598 143.057 134.873L149.5 183.443L150.323 188.791C150.416 189.396 149.947 189.943 149.334 189.943H123.888C123.638 189.943 123.398 189.849 123.214 189.681L95.571 164.463C95.2347 164.157 94.7337 164.116 94.352 164.364L85.2486 170.281C85.0863 170.386 84.897 170.443 84.7036 170.443H35.4581C35.1672 170.443 34.8908 170.316 34.7008 170.096L0.742751 130.724C0.58615 130.542 0.5 130.311 0.5 130.071V77.9426V77.7248Z" fill="#7F64B8" stroke="#42285B"/>
</svg>
