<svg width="186" height="168" viewBox="0 0 186 168" fill="none" xmlns="http://www.w3.org/2000/svg">
<path d="M2.37291 86.0185C1.8424 85.6537 1.78974 84.89 2.26517 84.4559L12.5095 75.1025C12.717 74.913 12.8352 74.645 12.8352 74.364V61.3811C12.8352 61.0245 13.0251 60.6949 13.3335 60.516L37.6025 46.44C37.7549 46.3516 37.928 46.3051 38.1042 46.3051H49.8221C50.1442 46.3051 50.4466 46.1499 50.6344 45.8883L64.036 27.2218C64.2238 26.9602 64.5262 26.8051 64.8483 26.8051H75.7468C76.11 26.8051 76.4446 26.6082 76.621 26.2907L83.5495 13.8194C83.7258 13.5019 84.0604 13.3051 84.4236 13.3051H91.3146C91.6409 13.3051 91.9467 13.4643 92.1338 13.7316L98.038 22.1663C98.4299 22.7261 99.2553 22.7367 99.6615 22.1872L115.391 0.905711C115.655 0.549473 116.121 0.408923 116.537 0.56031L136.904 7.96654C137.42 8.15401 137.689 8.71863 137.508 9.23632C135.44 15.1343 131.956 25.4259 132.335 25.8051C132.7 26.1696 138.628 34.3127 142.326 39.4124C142.777 40.0337 143.729 39.9359 144.046 39.2369L160.069 3.89216C160.231 3.53468 160.587 3.30505 160.98 3.30505H167.835C168.387 3.30505 168.835 3.75277 168.835 4.30505V55.4351C168.835 55.6738 168.921 55.9047 169.076 56.0859L177.594 66.0242C177.75 66.2054 177.835 66.4363 177.835 66.675V92.0281C177.835 92.2093 177.884 92.3872 177.978 92.5426L185.099 104.411C185.249 104.661 185.282 104.964 185.19 105.241L175.938 132.996C175.871 133.197 175.742 133.371 175.57 133.494L129.096 166.619C128.926 166.74 128.723 166.805 128.515 166.805H96.698C96.2023 166.805 95.7814 166.442 95.7088 165.952L91.9616 140.659C91.889 140.168 91.4681 139.805 90.9724 139.805H80.8352C80.2829 139.805 79.8352 139.357 79.8352 138.805V126.046C79.8352 125.606 79.5474 125.217 79.1264 125.089L57.2467 118.43C56.984 118.35 56.7 118.382 56.4613 118.518L31.6468 132.628C31.4454 132.742 31.2103 132.783 30.982 132.744L5.83311 128.391C5.52003 128.337 5.25132 128.137 5.10922 127.853L0.605616 118.846C0.439357 118.513 0.471284 118.116 0.688508 117.814L9.14674 106.067C9.26927 105.897 9.33521 105.692 9.33521 105.483V91.3311C9.33521 91.0018 9.17309 90.6936 8.90173 90.507L2.37291 86.0185Z" fill="#DA3C6B" stroke="#851858"/>
</svg>
