<svg width="82" height="81" viewBox="0 0 82 81" fill="none" xmlns="http://www.w3.org/2000/svg">
<path d="M0.5 30.4474C0.5 29.662 1.36395 29.1832 2.03 29.5994L10.97 35.1869C11.636 35.6032 12.5 35.1244 12.5 34.3389V27.6078C12.5 27.3132 12.6299 27.0336 12.8551 26.8435L43.7977 0.73572C44.1948 0.400677 44.7823 0.425528 45.1497 0.792906L52.2071 7.8503C52.3946 8.03783 52.5 8.29219 52.5 8.5574V18.3746C52.5 18.5505 52.4536 18.7234 52.3654 18.8756L47.1346 27.9107C47.0464 28.063 47 28.2358 47 28.4118V45.1365C47 45.455 47.1518 45.7545 47.4086 45.9429L53.7022 50.5581C54.1442 50.8823 54.7647 50.7902 55.0936 50.3517L61.7464 41.4813C61.9085 41.2652 62.1512 41.1238 62.4192 41.0894L80.3728 38.7877C80.9707 38.711 81.5 39.1768 81.5 39.7796V46.4234C81.5 47.0544 80.9227 47.5277 80.3039 47.404L71.9921 45.7416C71.6824 45.6797 71.3617 45.7676 71.127 45.9789L62.2834 53.9381C61.8576 54.3214 61.8402 54.9834 62.2453 55.3885L71.2071 64.3503C71.3946 64.5378 71.5 64.7922 71.5 65.0574V72.6432C71.5 73.1955 71.0523 73.6432 70.5 73.6432H60.5067C60.1882 73.6432 59.8887 73.795 59.7003 74.0518L55.51 79.7659C55.058 80.3823 54.1096 80.2842 53.7932 79.5883L47.2498 65.1928C47.0962 64.8548 46.768 64.6297 46.3973 64.6083L12.9348 62.6684C12.6575 62.6523 12.3994 62.5216 12.2223 62.3076L0.729606 48.4206C0.581201 48.2413 0.5 48.0158 0.5 47.7831V30.4474Z" fill="#DA3C6B" stroke="#851858"/>
</svg>
