<svg width="76" height="94" viewBox="0 0 76 94" fill="none" xmlns="http://www.w3.org/2000/svg">
<path d="M0.5 1.5009C0.5 0.836522 1.1359 0.356858 1.77472 0.539377L13.7747 3.96795C14.204 4.09061 14.5 4.48299 14.5 4.92947V11.7087C14.5 12.0044 14.6308 12.2849 14.8574 12.4749L29.8221 25.026C29.9392 25.1241 30.0321 25.2478 30.094 25.3874L43.4608 55.5865C43.4869 55.6455 43.5072 55.7068 43.5215 55.7697L45.9751 66.5658C45.9917 66.6385 46 66.7128 46 66.7874V72.0761C46 72.142 46.0065 72.2077 46.0194 72.2723L47.3392 78.8713C47.4327 79.3387 47.8431 79.6752 48.3198 79.6752H64.514C64.8208 79.6752 65.1107 79.8161 65.3003 80.0574L74.456 91.71C75.0136 92.4198 74.4199 93.4467 73.5266 93.3176L35.7673 87.8584C35.1235 87.7653 34.7385 87.0921 34.9848 86.4901L38.803 77.1568C38.9265 76.8549 38.895 76.5118 38.7186 76.2374L36.3412 72.5392C35.8015 71.6997 34.5 72.0819 34.5 73.08V74.761C34.5 75.0262 34.3946 75.2805 34.2071 75.4681L32.142 77.5332C31.7778 77.8973 31.1967 77.9254 30.7992 77.598L23.2765 71.4029C23.0977 71.2557 22.9756 71.0509 22.931 70.8237L17.5299 43.3273C17.5101 43.2265 17.4749 43.1293 17.4254 43.0392L0.623187 12.3998C0.542367 12.2524 0.5 12.0871 0.5 11.919V1.5009Z" fill="#DA3C6B" stroke="#851858"/>
</svg>
