<svg width="93" height="78" viewBox="0 0 93 78" fill="none" xmlns="http://www.w3.org/2000/svg">
<path d="M0.909164 1.46431C0.92838 0.926258 1.37013 0.5 1.90853 0.5H8.4436C8.99589 0.5 9.4436 0.947715 9.4436 1.5V9.85013C9.4436 10.2453 9.21087 10.6034 8.84974 10.7639L1.90623 13.8499C1.2308 14.1501 0.47435 13.6391 0.500731 12.9004L0.909164 1.46431Z" fill="#DA3C6B"/>
<path d="M13.9928 15.1783C13.4015 14.5377 13.8558 13.5 14.7276 13.5H26.0599C26.3069 13.5 26.5452 13.5914 26.7288 13.7567L31.1126 17.7021C31.3233 17.8917 31.4436 18.1619 31.4436 18.4454V24.5914C31.4436 25.3981 32.3496 25.8728 33.0128 25.4136L37.5353 22.2827C37.7925 22.1046 38.1182 22.0572 38.4156 22.1545L65.2048 30.9218C65.3616 30.9732 65.5032 31.0624 65.6171 31.1818L75.667 41.7102C75.8445 41.8962 75.9436 42.1435 75.9436 42.4007V47C75.9436 47.5523 76.3913 48 76.9436 48H79.9752C80.272 48 80.5535 48.1318 80.7434 48.3598L85.2118 53.7219C85.3616 53.9016 85.4436 54.1281 85.4436 54.362V61.1848C85.4436 61.3899 85.5067 61.5902 85.6244 61.7582L92.0444 70.9297C92.2843 71.2725 92.2855 71.7284 92.0473 72.0724L88.5943 77.0601C88.2498 77.5576 87.5459 77.6377 87.0986 77.2301L66.1088 58.1061C65.7306 57.7615 65.1534 57.758 64.771 58.0979L61.3286 61.1578C61.087 61.3725 60.7565 61.4572 60.4414 61.3852L43.9917 57.6253C43.6513 57.5475 43.3762 57.2978 43.2658 56.9666L38.0654 41.3655C37.987 41.1302 37.824 40.9325 37.6081 40.8107L18.9523 30.2869C18.638 30.1097 18.4436 29.7768 18.4436 29.416V20.391C18.4436 20.1396 18.3489 19.8974 18.1784 19.7127L13.9928 15.1783Z" fill="#DA3C6B"/>
<path d="M0.909164 1.46431C0.92838 0.926258 1.37013 0.5 1.90853 0.5H8.4436C8.99589 0.5 9.4436 0.947715 9.4436 1.5V9.85013C9.4436 10.2453 9.21087 10.6034 8.84974 10.7639L1.90623 13.8499C1.2308 14.1501 0.47435 13.6391 0.500731 12.9004L0.909164 1.46431Z" stroke="#851858"/>
<path d="M13.9928 15.1783C13.4015 14.5377 13.8558 13.5 14.7276 13.5H26.0599C26.3069 13.5 26.5452 13.5914 26.7288 13.7567L31.1126 17.7021C31.3233 17.8917 31.4436 18.1619 31.4436 18.4454V24.5914C31.4436 25.3981 32.3496 25.8728 33.0128 25.4136L37.5353 22.2827C37.7925 22.1046 38.1182 22.0572 38.4156 22.1545L65.2048 30.9218C65.3616 30.9732 65.5032 31.0624 65.6171 31.1818L75.667 41.7102C75.8445 41.8962 75.9436 42.1435 75.9436 42.4007V47C75.9436 47.5523 76.3913 48 76.9436 48H79.9752C80.272 48 80.5535 48.1318 80.7434 48.3598L85.2118 53.7219C85.3616 53.9016 85.4436 54.1281 85.4436 54.362V61.1848C85.4436 61.3899 85.5067 61.5902 85.6244 61.7582L92.0444 70.9297C92.2843 71.2725 92.2855 71.7284 92.0473 72.0724L88.5943 77.0601C88.2498 77.5576 87.5459 77.6377 87.0986 77.2301L66.1088 58.1061C65.7306 57.7615 65.1534 57.758 64.771 58.0979L61.3286 61.1578C61.087 61.3725 60.7565 61.4572 60.4414 61.3852L43.9917 57.6253C43.6513 57.5475 43.3762 57.2978 43.2658 56.9666L38.0654 41.3655C37.987 41.1302 37.824 40.9325 37.6081 40.8107L18.9523 30.2869C18.638 30.1097 18.4436 29.7768 18.4436 29.416V20.391C18.4436 20.1396 18.3489 19.8974 18.1784 19.7127L13.9928 15.1783Z" stroke="#851858"/>
</svg>
