<svg width="157" height="105" viewBox="0 0 157 105" fill="none" xmlns="http://www.w3.org/2000/svg">
<path d="M144.142 14.048C144.021 13.9689 143.886 13.9188 143.743 13.8979L52.0145 0.5105C51.6703 0.460255 51.3246 0.592556 51.1019 0.859832L47.1927 5.5508C46.8052 6.01589 46.0965 6.03262 45.6874 5.58634L41.7405 1.28062C41.3289 0.831665 40.615 0.851737 40.2294 1.32311L5.13842 44.212C5.02199 44.3543 4.94705 44.526 4.92183 44.7081L0.509479 76.5751C0.477738 76.8043 0.526491 77.0375 0.647428 77.2348L9.81597 92.194C9.91048 92.3482 10.045 92.4739 10.2053 92.5577L31.7427 103.816C31.8857 103.891 32.0447 103.93 32.206 103.93H53.6769C54.2292 103.93 54.6769 103.482 54.6769 102.93V88.0023C54.6769 87.7449 54.7762 87.4974 54.954 87.3113L73.6241 67.7815C73.8364 67.5594 74.139 67.4472 74.4448 67.4773L103.881 70.3726C104.239 70.4079 104.551 70.6328 104.697 70.9617L108.347 79.174C108.421 79.3412 108.54 79.4848 108.69 79.5892L125.774 91.4529C126.171 91.7289 126.709 91.6807 127.051 91.3386L134.667 83.7225C134.855 83.535 134.96 83.2806 134.96 83.0154V59.1629C134.96 58.868 135.091 58.5881 135.316 58.3981L145.495 49.8221C145.781 49.581 145.908 49.2005 145.825 48.8357L143.564 38.8865C143.498 38.597 143.562 38.2967 143.742 38.0608C148.154 32.2863 156.352 21.4296 155.96 21.4296C155.567 21.4296 148.033 16.5838 144.142 14.048Z" fill="#FEA200" stroke="#C25628"/>
</svg>
