<svg width="240" height="71" viewBox="0 0 240 71" fill="none" xmlns="http://www.w3.org/2000/svg">
<path d="M1.34952 46.4111C0.430786 46.2702 0.184443 45.0616 0.97474 44.5724L71.9268 0.649736C72.0849 0.551854 72.2672 0.5 72.4531 0.5H104.188C104.492 0.5 104.779 0.63809 104.969 0.875305L112.5 10.2897C112.611 10.4274 112.755 10.5336 112.92 10.5974L136.53 19.7524C136.915 19.9017 137.169 20.272 137.169 20.6848V28.5C137.169 29.0523 137.616 29.5 138.169 29.5H142.646C142.973 29.5 143.28 29.3398 143.467 29.0711L150.702 18.6705C150.974 18.2803 151.482 18.1351 151.919 18.3231L183.318 31.8492C183.544 31.9463 183.797 31.9571 184.03 31.8794L190.827 29.6137C191.048 29.5402 191.236 29.3922 191.359 29.195L200.875 13.97C201.058 13.6776 201.378 13.5 201.723 13.5H210.169C210.721 13.5 211.169 13.9477 211.169 14.5V24C211.169 24.5523 211.616 25 212.169 25H222.669C223.221 25 223.669 25.4477 223.669 26V30.1573C223.669 30.9508 224.548 31.4282 225.214 30.9958L232.93 25.9804C233.352 25.7058 233.913 25.7883 234.238 26.1729L238.608 31.3379C238.93 31.7178 238.923 32.2763 238.592 32.6482L227.711 44.89C227.395 45.2451 226.873 45.3291 226.462 45.0911L218.256 40.3402C217.902 40.1349 217.457 40.1668 217.136 40.4208L208.635 47.1314C208.348 47.3586 207.959 47.4101 207.622 47.2657L199.063 43.5974C198.403 43.3146 197.669 43.7986 197.669 44.5165V53.5C197.669 54.0523 197.221 54.5 196.669 54.5H183.669C183.116 54.5 182.669 54.9477 182.669 55.5V58.4198C182.669 59.1539 181.904 59.6378 181.241 59.3235L173.736 55.7685C173.389 55.6043 172.979 55.6529 172.68 55.8935L155.512 69.7235C155.293 69.8997 155.011 69.9758 154.733 69.9332L1.34952 46.4111Z" fill="#FEA200" stroke="#C25628"/>
</svg>
