<svg width="88" height="106" viewBox="0 0 88 106" fill="none" xmlns="http://www.w3.org/2000/svg">
<path d="M25.1499 1.05284C25.3427 0.667245 25.761 0.448613 26.1876 0.510367L62.6161 5.78292C63.108 5.8541 63.4729 6.27565 63.4729 6.7726V20.9241C63.4729 21.2291 63.6121 21.5175 63.851 21.7072L80.0948 34.6067C80.3337 34.7964 80.4729 35.0847 80.4729 35.3898V57.6625C80.4729 57.8231 80.5116 57.9813 80.5857 58.1238L86.8338 70.1395C86.9245 70.3139 86.9618 70.5112 86.941 70.7066L84.5651 93.0404C84.5123 93.537 84.1011 93.9185 83.6019 93.9341L68.8194 94.3961C68.595 94.4031 68.3794 94.4855 68.2075 94.6299L56.2518 104.673C56.0717 104.824 55.8439 104.907 55.6086 104.907H43.4729C42.9206 104.907 42.4729 104.459 42.4729 103.907V91.8211C42.4729 90.9302 41.3958 90.4841 40.7658 91.114L28.5662 103.314C28.223 103.657 27.6831 103.704 27.2856 103.426L18.7203 97.4301C18.2969 97.1337 18.1691 96.5635 18.4256 96.1148L25.8411 83.1375C25.9275 82.9864 25.9729 82.8154 25.9729 82.6414V75.975C25.9729 75.6227 25.7875 75.2964 25.485 75.116L0.988101 60.5121C0.456902 60.1955 0.337602 59.4774 0.737869 59.006L22.0311 33.9273C22.2976 33.6134 22.3445 33.1684 22.1493 32.8059L15.719 20.864C15.5647 20.5774 15.5595 20.2337 15.705 19.9426L25.1499 1.05284Z" fill="#FEA200" stroke="#C25628"/>
</svg>
