<svg width="124" height="80" viewBox="0 0 124 80" fill="none" xmlns="http://www.w3.org/2000/svg">
<path d="M96.8405 78.6861C97.1779 78.7357 97.5173 78.6098 97.7409 78.3522L119.929 52.7872C120.202 52.4733 120.252 52.0236 120.055 51.6576L113.628 39.7227C113.474 39.4361 113.469 39.0924 113.614 38.8013L122.773 20.4828C123.075 19.8792 122.705 19.1561 122.039 19.0484L7.41507 0.513512C6.69713 0.39742 6.09932 1.06217 6.29068 1.76381L8.66859 10.4828C8.79301 10.939 9.22 11.2457 9.69207 11.218L16.0779 10.8423C16.7353 10.8037 17.2499 11.3999 17.1156 12.0446L14.9555 22.4134C14.908 22.6411 14.7827 22.8451 14.6012 22.9904L10.2197 26.4955C10.0043 26.6679 9.8696 26.9216 9.8476 27.1966L8.90678 38.9569C8.89069 39.158 8.81415 39.3495 8.68721 39.5063L0.722781 49.3448C0.510227 49.6073 0.444607 49.9595 0.548317 50.281L5.19109 64.6735C5.30802 65.036 5.62075 65.3006 5.99761 65.3559L96.8405 78.6861Z" fill="#FEA200" stroke="#C25628"/>
</svg>
