<svg width="1215" height="779" viewBox="0 0 1215 779" fill="none" xmlns="http://www.w3.org/2000/svg">
<path d="M186.171 124.979C186.364 124.593 186.782 124.374 187.209 124.436L223.638 129.709C224.129 129.78 224.494 130.201 224.494 130.698V144.85C224.494 145.155 224.634 145.443 224.872 145.633L241.116 158.532C241.355 158.722 241.494 159.01 241.494 159.315V181.588C241.494 181.749 241.533 181.907 241.607 182.05L247.855 194.065C247.946 194.24 247.983 194.437 247.962 194.632L245.587 216.966C245.534 217.463 245.123 217.844 244.623 217.86L229.841 218.322C229.616 218.329 229.401 218.411 229.229 218.556L217.273 228.598C217.093 228.75 216.865 228.833 216.63 228.833H204.494C203.942 228.833 203.494 228.385 203.494 227.833V215.747C203.494 214.856 202.417 214.41 201.787 215.04L189.588 227.239C189.244 227.583 188.705 227.63 188.307 227.352L179.742 221.356C179.318 221.059 179.191 220.489 179.447 220.04L186.863 207.063C186.949 206.912 186.994 206.741 186.994 206.567V199.901C186.994 199.548 186.809 199.222 186.506 199.042L162.01 184.438C161.478 184.121 161.359 183.403 161.759 182.932L183.053 157.853C183.319 157.539 183.366 157.094 183.171 156.732L176.74 144.79C176.586 144.503 176.581 144.159 176.726 143.868L186.171 124.979Z" fill="#FEA200" stroke="#C25628"/>
<path d="M159.953 183.753C160.29 183.803 160.63 183.677 160.853 183.419L183.042 157.854C183.314 157.54 183.364 157.091 183.167 156.725L176.74 144.79C176.586 144.503 176.581 144.159 176.726 143.868L185.886 125.55C186.188 124.946 185.817 124.223 185.151 124.115L70.5273 105.581C69.8094 105.464 69.2116 106.129 69.4029 106.831L71.7808 115.55C71.9053 116.006 72.3322 116.313 72.8043 116.285L79.1902 115.909C79.8475 115.871 80.3622 116.467 80.2279 117.112L78.0677 127.48C78.0203 127.708 77.895 127.912 77.7134 128.057L73.332 131.563C73.1165 131.735 72.9818 131.989 72.9598 132.264L72.019 144.024C72.0029 144.225 71.9264 144.417 71.7995 144.573L63.835 154.412C63.6225 154.674 63.5569 155.026 63.6606 155.348L68.3033 169.741C68.4203 170.103 68.733 170.368 69.1099 170.423L159.953 183.753Z" fill="#FEA200" stroke="#C25628"/>
<path d="M71.1752 106.244C70.2565 106.103 70.0101 104.894 70.8004 104.405L141.752 60.4824C141.911 60.3845 142.093 60.3326 142.279 60.3326H174.014C174.317 60.3326 174.605 60.4707 174.795 60.7079L182.326 70.1223C182.436 70.2601 182.581 70.3662 182.745 70.43L206.356 79.5851C206.741 79.7343 206.994 80.1047 206.994 80.5174V88.3326C206.994 88.8849 207.442 89.3326 207.994 89.3326H212.472C212.799 89.3326 213.106 89.1724 213.293 88.9037L220.528 78.5031C220.799 78.1129 221.308 77.9677 221.744 78.1558L253.144 91.6818C253.37 91.779 253.623 91.7897 253.856 91.7121L260.653 89.4464C260.874 89.3729 261.062 89.2248 261.185 89.0277L270.701 73.8026C270.883 73.5103 271.204 73.3326 271.549 73.3326H279.994C280.547 73.3326 280.994 73.7804 280.994 74.3326V83.8326C280.994 84.3849 281.442 84.8326 281.994 84.8326H292.494C293.047 84.8326 293.494 85.2804 293.494 85.8326V89.99C293.494 90.7834 294.374 91.2608 295.039 90.8284L302.755 85.813C303.178 85.5385 303.738 85.621 304.064 86.0055L308.434 91.1706C308.756 91.5505 308.749 92.1089 308.418 92.4809L297.536 104.723C297.221 105.078 296.699 105.162 296.288 104.924L288.082 100.173C287.727 99.9675 287.283 99.9994 286.961 100.253L278.461 106.964C278.173 107.191 277.785 107.243 277.448 107.098L268.888 103.43C268.228 103.147 267.494 103.631 267.494 104.349V113.333C267.494 113.885 267.047 114.333 266.494 114.333H253.494C252.942 114.333 252.494 114.78 252.494 115.333V118.252C252.494 118.987 251.73 119.47 251.066 119.156L243.561 115.601C243.215 115.437 242.805 115.486 242.506 115.726L225.338 129.556C225.119 129.732 224.836 129.808 224.559 129.766L71.1752 106.244Z" fill="#FEA200" stroke="#C25628"/>
<path d="M0.956065 114.034C0.972747 114.819 1.84433 115.279 2.50151 114.851L22.2455 101.995C22.4079 101.889 22.5975 101.833 22.7912 101.833H42.7173C42.8986 101.833 43.0764 101.783 43.2318 101.69L54.9111 94.6826C55.2631 94.4714 55.7083 94.4967 56.0341 94.7464L69.9487 105.414C70.2774 105.666 70.7273 105.69 71.0803 105.473L142.894 61.3944C142.961 61.3534 143.031 61.3054 143.047 61.2286C143.298 60.0086 136.395 52.4136 132.65 48.4952C132.546 48.3863 132.426 48.3072 132.285 48.2546C122.382 44.563 102.789 37.3326 101.994 37.3326C101.198 37.3326 83.1489 40.6377 74.1097 42.3113C74.031 42.3258 73.9574 42.3492 73.8845 42.3821L64.527 46.5929C64.1979 46.741 63.9741 47.0549 63.9414 47.4143L63.0604 57.1054C63.0211 57.5386 62.707 57.8984 62.2794 57.9783C60.7046 58.2728 58.4943 58.5193 58.4943 57.8326C58.4943 57.0817 54.6758 45.9914 52.4156 39.5339C52.2014 38.922 51.4704 38.674 50.9272 39.0279L19.1975 59.7003C19.064 59.7873 18.9532 59.9049 18.8743 60.0434L0.630907 92.0927C0.541524 92.2497 0.496353 92.428 0.500197 92.6087L0.956065 114.034Z" fill="#FEA200" stroke="#C25628"/>
<path d="M242.252 183.293C241.906 182.627 242.389 181.833 243.139 181.833H246.81C247.223 181.833 247.593 181.579 247.742 181.195L257.746 155.47C257.896 155.086 258.266 154.833 258.678 154.833H264.099C264.353 154.833 264.597 154.736 264.783 154.562L295.842 125.444C296.213 125.096 296.787 125.083 297.175 125.413L312.757 138.704C313.168 139.054 313.226 139.668 312.889 140.089L309.834 143.908C309.622 144.173 309.559 144.527 309.666 144.849L312.146 152.288C312.333 152.848 312.961 153.125 313.501 152.885L324.841 147.845C325.43 147.583 326.109 147.939 326.23 148.573L331.34 175.519C331.43 175.991 331.842 176.333 332.322 176.333H341.994C342.547 176.333 342.994 176.78 342.994 177.333V183.304C342.994 183.635 342.831 183.944 342.558 184.13L332.522 190.973C332.2 191.192 332.035 191.579 332.099 191.963L333.437 199.99C333.474 200.212 333.585 200.415 333.751 200.566L338.541 204.921C338.819 205.173 338.932 205.561 338.833 205.924L334.794 220.735C334.635 221.317 334.001 221.627 333.444 221.395L293.388 204.705C292.89 204.498 292.317 204.723 292.093 205.214L290.261 209.246C290.099 209.603 290.16 210.022 290.419 210.318L299.642 220.859C300.073 221.351 299.922 222.119 299.337 222.411L287.705 228.227C287.567 228.296 287.414 228.333 287.258 228.333H281.909C281.018 228.333 280.571 227.256 281.201 226.626L285.787 222.04C286.178 221.649 286.178 221.016 285.787 220.626L282.677 217.516C282.296 217.135 281.682 217.124 281.288 217.492L276.177 222.262C275.537 222.859 274.494 222.406 274.494 221.531V212.333C274.494 211.78 274.047 211.333 273.494 211.333H264.837C264.615 211.333 264.399 211.407 264.223 211.543L251.588 221.371C251.236 221.644 250.746 221.652 250.386 221.39L245.976 218.183C245.679 217.967 245.525 217.606 245.573 217.242L248.453 195.645C248.48 195.442 248.444 195.235 248.349 195.053L242.252 183.293Z" fill="#FEA200" stroke="#C25628"/>
<path d="M161.176 183.951C161.054 183.872 160.92 183.822 160.777 183.801L69.0485 170.414C68.7042 170.363 68.3585 170.496 68.1358 170.763L64.2267 175.454C63.8391 175.919 63.1304 175.936 62.7213 175.489L58.7744 171.184C58.3629 170.735 57.649 170.755 57.2633 171.226L22.1724 214.115C22.0559 214.257 21.981 214.429 21.9558 214.611L17.5434 246.478C17.5117 246.707 17.5604 246.94 17.6814 247.138L26.8499 262.097C26.9444 262.251 27.079 262.377 27.2393 262.461L48.7767 273.719C48.9196 273.794 49.0786 273.833 49.2399 273.833H70.7108C71.2631 273.833 71.7108 273.385 71.7108 272.833V257.905C71.7108 257.648 71.8101 257.4 71.988 257.214L90.658 237.684C90.8703 237.462 91.1729 237.35 91.4787 237.38L120.915 240.276C121.273 240.311 121.585 240.536 121.731 240.865L125.381 249.077C125.455 249.244 125.574 249.388 125.724 249.492L142.808 261.356C143.205 261.632 143.743 261.584 144.085 261.242L151.701 253.626C151.889 253.438 151.994 253.184 151.994 252.918V229.066C151.994 228.771 152.124 228.491 152.35 228.301L162.529 219.725C162.815 219.484 162.942 219.104 162.859 218.739L160.598 208.79C160.532 208.5 160.596 208.2 160.776 207.964C165.188 202.189 173.386 191.333 172.994 191.333C172.601 191.333 165.067 186.487 161.176 183.951Z" fill="#FEA200" stroke="#C25628"/>
<path d="M28.3451 263.039C27.7071 262.705 26.9363 263.135 26.8844 263.853L24.0153 303.543C24.0016 303.732 24.0422 303.921 24.1322 304.089L34.0712 322.547C34.3122 322.994 34.8509 323.19 35.323 323.001L38.8657 321.584C39.2454 321.432 39.4943 321.065 39.4943 320.656V313.725C39.4943 313.473 39.3989 313.23 39.2271 313.045L33.2615 306.62C33.0898 306.435 32.9943 306.192 32.9943 305.94V275.371C32.9943 274.648 33.7392 274.164 34.4005 274.458L36.9521 275.592C37.2864 275.74 37.5128 276.059 37.5426 276.424L39.4672 300.001C39.4848 300.216 39.5717 300.42 39.7149 300.582L50.7527 313.06C50.9088 313.236 50.9976 313.462 51.0034 313.697L51.4851 332.964C51.4911 333.202 51.4118 333.434 51.2615 333.619L45.5831 340.608C45.2516 341.016 45.2926 341.611 45.6769 341.97L74.8033 369.154C74.9285 369.271 75.0817 369.354 75.2482 369.395L97.2225 374.766C97.4003 374.81 97.5628 374.901 97.6922 375.03L110.701 388.04C110.889 388.227 111.143 388.333 111.409 388.333H122.589C123.103 388.333 123.533 388.722 123.584 389.233L125.431 407.696C125.469 408.084 125.73 408.414 126.099 408.542L137.821 412.6C138.224 412.739 138.494 413.118 138.494 413.545V420.833C138.494 421.385 138.942 421.833 139.494 421.833H147.414C147.773 421.833 148.104 422.025 148.282 422.337L149.516 424.496C149.783 424.963 150.372 425.135 150.848 424.885L159.729 420.233C160.169 420.003 160.71 420.13 161.002 420.531L163.761 424.324C164.137 424.842 164.896 424.877 165.319 424.398L171.456 417.443C171.769 417.088 171.79 416.561 171.506 416.181L164.96 407.453C164.686 407.088 164.199 406.955 163.777 407.129L150.827 412.488C150.354 412.684 149.809 412.491 149.565 412.04L143.739 401.285C143.586 401.001 143.578 400.661 143.719 400.37L152.75 381.834C152.902 381.522 152.882 381.154 152.697 380.862L147.289 372.299C147.105 372.009 146.786 371.833 146.443 371.833H127.177C126.418 371.833 125.936 371.021 126.298 370.355L140.451 344.332C140.739 343.802 140.496 343.14 139.933 342.922L126.259 337.629C125.814 337.457 125.31 337.622 125.054 338.024L115.289 353.37C115.105 353.658 114.787 353.833 114.445 353.833H98.054C97.7062 353.833 97.3835 353.652 97.2016 353.356L84.3363 332.39C84.1286 332.051 84.1409 331.622 84.3677 331.296L99.4267 309.649C99.7407 309.197 99.6313 308.577 99.1817 308.26L78.2631 293.522C78.0885 293.399 77.9579 293.223 77.8904 293.021L71.7222 274.516C71.5861 274.108 71.204 273.833 70.7736 273.833H49.2399C49.0786 273.833 48.9196 273.794 48.7767 273.719L28.3451 263.039Z" fill="#FEA200"/>
<path d="M150.817 336.611C150.921 336.156 151.326 335.833 151.793 335.833H171.21C171.396 335.833 171.578 335.884 171.736 335.982L192.021 348.539C192.315 348.722 192.494 349.043 192.494 349.39V358.833C192.494 359.385 192.047 359.833 191.494 359.833H182.759C182.585 359.833 182.415 359.788 182.265 359.702L160.705 347.452C160.566 347.374 160.411 347.329 160.252 347.323L149.694 346.883C149.07 346.857 148.622 346.271 148.76 345.662L150.817 336.611Z" fill="#FEA200"/>
<path d="M194.743 361.961C194.895 361.582 195.262 361.333 195.671 361.333H212.989C213.307 361.333 213.606 361.484 213.794 361.739L219.517 369.506C219.962 370.11 219.608 370.971 218.866 371.087L204.747 373.293C204.581 373.319 204.412 373.303 204.254 373.246L192.969 369.183C192.436 368.992 192.169 368.397 192.379 367.871L194.743 361.961Z" fill="#FEA200"/>
<path d="M28.3451 263.039C27.7071 262.705 26.9363 263.135 26.8844 263.853L24.0153 303.543C24.0016 303.732 24.0422 303.921 24.1322 304.089L34.0712 322.547C34.3122 322.994 34.8509 323.19 35.323 323.001L38.8657 321.584C39.2454 321.432 39.4943 321.065 39.4943 320.656V313.725C39.4943 313.473 39.3989 313.23 39.2271 313.045L33.2615 306.62C33.0898 306.435 32.9943 306.192 32.9943 305.94V275.371C32.9943 274.648 33.7392 274.164 34.4005 274.458L36.9521 275.592C37.2864 275.74 37.5128 276.059 37.5426 276.424L39.4672 300.001C39.4848 300.216 39.5717 300.42 39.7149 300.582L50.7527 313.06C50.9088 313.236 50.9976 313.462 51.0034 313.697L51.4851 332.964C51.4911 333.202 51.4118 333.434 51.2615 333.619L45.5831 340.608C45.2516 341.016 45.2926 341.611 45.6769 341.97L74.8033 369.154C74.9285 369.271 75.0817 369.354 75.2482 369.395L97.2225 374.766C97.4003 374.81 97.5628 374.901 97.6922 375.03L110.701 388.04C110.889 388.227 111.143 388.333 111.409 388.333H122.589C123.103 388.333 123.533 388.722 123.584 389.233L125.431 407.696C125.469 408.084 125.73 408.414 126.099 408.542L137.821 412.6C138.224 412.739 138.494 413.118 138.494 413.545V420.833C138.494 421.385 138.942 421.833 139.494 421.833H147.414C147.773 421.833 148.104 422.025 148.282 422.337L149.516 424.496C149.783 424.963 150.372 425.135 150.848 424.885L159.729 420.233C160.169 420.003 160.71 420.13 161.002 420.531L163.761 424.324C164.137 424.842 164.896 424.877 165.319 424.398L171.456 417.443C171.769 417.088 171.79 416.561 171.506 416.181L164.96 407.453C164.686 407.088 164.199 406.955 163.777 407.129L150.827 412.488C150.354 412.684 149.809 412.491 149.565 412.04L143.739 401.285C143.586 401.001 143.578 400.661 143.719 400.37L152.75 381.834C152.902 381.522 152.882 381.154 152.697 380.862L147.289 372.299C147.105 372.009 146.786 371.833 146.443 371.833H127.177C126.418 371.833 125.936 371.021 126.298 370.355L140.451 344.332C140.739 343.802 140.496 343.14 139.933 342.922L126.259 337.629C125.814 337.457 125.31 337.622 125.054 338.024L115.289 353.37C115.105 353.658 114.787 353.833 114.445 353.833H98.054C97.7062 353.833 97.3835 353.652 97.2016 353.356L84.3363 332.39C84.1286 332.051 84.1409 331.622 84.3677 331.296L99.4267 309.649C99.7407 309.197 99.6313 308.577 99.1817 308.26L78.2631 293.522C78.0885 293.399 77.9579 293.223 77.8904 293.021L71.7222 274.516C71.5861 274.108 71.204 273.833 70.7736 273.833H49.2399C49.0786 273.833 48.9196 273.794 48.7767 273.719L28.3451 263.039Z" stroke="#C25628"/>
<path d="M150.817 336.611C150.921 336.156 151.326 335.833 151.793 335.833H171.21C171.396 335.833 171.578 335.884 171.736 335.982L192.021 348.539C192.315 348.722 192.494 349.043 192.494 349.39V358.833C192.494 359.385 192.047 359.833 191.494 359.833H182.759C182.585 359.833 182.415 359.788 182.265 359.702L160.705 347.452C160.566 347.374 160.411 347.329 160.252 347.323L149.694 346.883C149.07 346.857 148.622 346.271 148.76 345.662L150.817 336.611Z" stroke="#C25628"/>
<path d="M194.743 361.961C194.895 361.582 195.262 361.333 195.671 361.333H212.989C213.307 361.333 213.606 361.484 213.794 361.739L219.517 369.506C219.962 370.11 219.608 370.971 218.866 371.087L204.747 373.293C204.581 373.319 204.412 373.303 204.254 373.246L192.969 369.183C192.436 368.992 192.169 368.397 192.379 367.871L194.743 361.961Z" stroke="#C25628"/>
<path d="M71.4943 273.67C71.4943 273.778 71.5117 273.885 71.5456 273.987L77.8923 293.026C77.9586 293.226 78.0859 293.399 78.2561 293.521L98.8339 308.357C99.2185 308.634 99.745 308.603 100.094 308.283L111.208 298.095C111.392 297.926 111.633 297.833 111.883 297.833H142.58C142.845 297.833 143.1 297.727 143.287 297.54L148.201 292.626C148.389 292.438 148.643 292.333 148.909 292.333H157.166C157.379 292.333 157.587 292.401 157.759 292.528L166.613 299.052C166.854 299.23 167.003 299.506 167.019 299.806L167.976 318.471C167.988 318.705 168.081 318.927 168.24 319.098L172.579 323.799C173.148 324.416 174.178 324.099 174.302 323.268L178.961 292.054C178.983 291.908 179.037 291.769 179.118 291.647L184.653 283.344C184.863 283.03 185.23 282.861 185.605 282.906L197.096 284.285C197.352 284.316 197.609 284.246 197.815 284.092L221.309 266.472C221.431 266.38 221.53 266.262 221.6 266.126L234.216 241.378C234.387 241.044 234.731 240.833 235.107 240.833H254.494C255.047 240.833 255.494 240.385 255.494 239.833V231.833C255.494 231.28 255.942 230.833 256.494 230.833H267.08C267.345 230.833 267.6 230.727 267.787 230.54L274.201 224.126C274.389 223.938 274.494 223.684 274.494 223.418V212.333C274.494 211.78 274.047 211.333 273.494 211.333H264.837C264.615 211.333 264.399 211.407 264.223 211.543L251.588 221.371C251.236 221.644 250.746 221.652 250.386 221.39L245.771 218.034C245.592 217.904 245.374 217.836 245.152 217.843L229.841 218.322C229.616 218.329 229.401 218.411 229.229 218.556L217.273 228.598C217.093 228.75 216.865 228.833 216.63 228.833H204.494C203.942 228.833 203.494 228.385 203.494 227.833V215.747C203.494 214.856 202.417 214.41 201.787 215.04L189.588 227.239C189.244 227.583 188.705 227.63 188.307 227.352L179.742 221.356C179.318 221.059 179.191 220.489 179.447 220.04L186.863 207.063C186.949 206.912 186.994 206.741 186.994 206.567V199.913C186.994 199.554 186.802 199.223 186.49 199.045L173.768 191.775C173.327 191.523 172.767 191.641 172.466 192.051L160.765 207.964C160.593 208.198 160.531 208.495 160.596 208.778L162.861 218.747C162.943 219.107 162.819 219.484 162.54 219.725L152.341 228.533C152.121 228.723 151.994 229 151.994 229.29V252.918C151.994 253.184 151.889 253.438 151.701 253.626L144.085 261.242C143.743 261.584 143.205 261.632 142.808 261.356L125.724 249.492C125.574 249.388 125.455 249.244 125.381 249.077L121.731 240.865C121.585 240.536 121.273 240.311 120.915 240.276L91.4806 237.38C91.1738 237.35 90.8701 237.463 90.6578 237.687L72.2569 257.056C72.0878 257.234 71.9901 257.468 71.9824 257.714L71.4943 273.333V273.67Z" fill="#FEA200" stroke="#C25628"/>
<path d="M339.749 65.3326C339.106 65.3326 338.631 64.7359 338.774 64.1098L342.278 48.7812C342.398 48.2532 342.917 47.9172 343.448 48.0235L361.298 51.5934C361.917 51.7172 362.494 51.2439 362.494 50.6128V43.8326C362.494 43.2804 362.942 42.8326 363.494 42.8326H370.111C370.358 42.8326 370.596 42.7412 370.78 42.5759L374.859 38.9048C375.225 38.5754 375.776 38.5615 376.158 38.872L382.769 44.2432C383.177 44.575 383.773 44.5336 384.131 44.1485L396.698 30.6512C396.887 30.448 397.152 30.3326 397.43 30.3326H407.488C407.806 30.3326 408.106 30.1813 408.294 29.925L420.195 13.7403C420.383 13.484 420.682 13.3326 421 13.3326H437.751C437.911 13.3326 438.068 13.371 438.21 13.4444L452.278 20.7209C452.42 20.7943 452.578 20.8326 452.738 20.8326H457.539C458.354 20.8326 458.827 19.9085 458.349 19.2472L453.193 12.1075C453.064 11.9293 452.88 11.7984 452.67 11.7352L439.266 7.71421C438.629 7.52312 438.353 6.77504 438.712 6.21563L442.091 0.959388C442.33 0.587496 442.785 0.416729 443.21 0.539431L464.858 6.79336C464.949 6.81942 465.042 6.83264 465.136 6.83264H483.781C483.922 6.83264 484.061 6.86224 484.189 6.9195L507.709 17.4195C508.694 17.8594 508.38 19.3326 507.301 19.3326H483.494C482.942 19.3326 482.494 19.7804 482.494 20.3326V24.3326C482.494 24.8849 482.942 25.3326 483.494 25.3326H501.494C502.047 25.3326 502.494 25.7804 502.494 26.3326V28.3326C502.494 28.8849 502.942 29.3326 503.494 29.3326H517.041C517.329 29.3326 517.603 29.2082 517.793 28.9911L520.696 25.6741C520.885 25.4571 521.16 25.3326 521.448 25.3326H530.494C531.047 25.3326 531.494 25.7804 531.494 26.3326V30.3326C531.494 30.8849 531.047 31.3326 530.494 31.3326H523.494C522.942 31.3326 522.494 31.7804 522.494 32.3326V36.8927C522.494 37.173 522.377 37.4405 522.17 37.6299L510.781 48.0698C510.597 48.2389 510.356 48.3326 510.105 48.3326H505.494C504.942 48.3326 504.494 48.7804 504.494 49.3326V52.9895C504.494 53.2119 504.42 53.4279 504.284 53.6035L501.295 57.4466C501.105 57.6902 500.814 57.8326 500.505 57.8326H494.894C494.637 57.8326 494.391 57.9302 494.206 58.1071C490.792 61.3616 484.494 67.5551 484.494 68.3326V77.8326H479.994C479.442 77.8326 478.994 78.2804 478.994 78.8326V86.9184C478.994 87.1836 478.889 87.438 478.701 87.6255L468.4 97.927C467.94 98.387 467.17 98.2922 466.835 97.7344L463.759 92.6079C463.394 91.9989 462.528 91.9543 462.102 92.5224L458.927 96.756C458.669 97.1004 458.66 97.5714 458.905 97.9252L462.59 103.249C462.832 103.599 462.827 104.063 462.577 104.407L459.683 108.386C459.321 108.883 458.601 108.94 458.167 108.505L453.766 104.104C453.591 103.929 453.359 103.825 453.113 103.813C449.846 103.649 443.994 103.448 443.994 103.833V113.333H451.359C452.207 113.333 452.67 114.322 452.128 114.973L448.794 118.973C448.604 119.201 448.323 119.333 448.026 119.333H425.994C425.68 119.333 425.383 119.481 425.194 119.733L419.735 127.012C419.58 127.218 419.353 127.356 419.099 127.399L387.33 132.693C386.848 132.774 386.494 133.191 386.494 133.68V137.815C386.494 138.14 386.337 138.444 386.072 138.632L355.164 160.505C354.596 160.907 353.802 160.62 353.621 159.949L345.581 130.155C345.525 129.946 345.538 129.724 345.618 129.523L354.243 107.961C354.395 107.582 354.762 107.333 355.171 107.333H361.494C362.047 107.333 362.494 106.885 362.494 106.333V99.3326C362.494 98.7804 362.942 98.3326 363.494 98.3326H370.494C371.047 98.3326 371.494 97.8849 371.494 97.3326V92.3326C371.494 91.7804 371.047 91.3326 370.494 91.3326H361.363C360.564 91.3326 360.088 90.4425 360.531 89.7779L369.894 75.7326C370.218 75.2474 370.059 74.5895 369.55 74.305L353.722 65.4597C353.573 65.3764 353.405 65.3326 353.234 65.3326H339.749Z" fill="#FEA200"/>
<path d="M484.494 68.3326C484.494 67.5551 490.792 61.3616 494.206 58.1071C494.392 57.9302 494.637 57.8326 494.894 57.8326H500.505C500.814 57.8326 501.105 57.6902 501.295 57.4466L504.284 53.6035C504.42 53.4279 504.494 53.2119 504.494 52.9895V49.3326C504.494 48.7804 504.942 48.3326 505.494 48.3326H510.105C510.356 48.3326 510.597 48.2389 510.781 48.0698L522.17 37.6299C522.377 37.4405 522.494 37.173 522.494 36.8927V32.3326C522.494 31.7804 522.942 31.3326 523.494 31.3326H530.494C531.047 31.3326 531.494 30.8849 531.494 30.3326V26.3326C531.494 25.7804 531.047 25.3326 530.494 25.3326H521.448C521.16 25.3326 520.885 25.4571 520.696 25.6741L517.793 28.9911C517.603 29.2082 517.329 29.3326 517.041 29.3326H503.494C502.942 29.3326 502.494 28.8849 502.494 28.3326V26.3326C502.494 25.7804 502.047 25.3326 501.494 25.3326H483.494C482.942 25.3326 482.494 24.8849 482.494 24.3326V20.3326C482.494 19.7804 482.942 19.3326 483.494 19.3326H507.301C508.38 19.3326 508.694 17.8594 507.709 17.4195L484.189 6.9195C484.061 6.86224 483.922 6.83264 483.781 6.83264H465.136C465.042 6.83264 464.949 6.81942 464.858 6.79336L443.21 0.539431C442.785 0.416729 442.33 0.587496 442.091 0.959388L438.712 6.21563C438.353 6.77505 438.629 7.52312 439.266 7.71421L452.67 11.7352C452.88 11.7984 453.064 11.9293 453.193 12.1075L458.349 19.2472C458.827 19.9085 458.354 20.8326 457.539 20.8326H452.738C452.578 20.8326 452.42 20.7943 452.278 20.7209L438.21 13.4444C438.068 13.371 437.911 13.3326 437.751 13.3326H421C420.682 13.3326 420.383 13.484 420.195 13.7403L408.294 29.925C408.106 30.1813 407.806 30.3326 407.488 30.3326H397.43C397.152 30.3326 396.887 30.448 396.698 30.6512L384.131 44.1485C383.773 44.5336 383.177 44.575 382.769 44.2432L376.158 38.872C375.776 38.5615 375.225 38.5754 374.859 38.9048L370.78 42.5759C370.596 42.7412 370.358 42.8326 370.111 42.8326H363.494C362.942 42.8326 362.494 43.2804 362.494 43.8326V50.6128C362.494 51.2439 361.917 51.7172 361.298 51.5934L343.448 48.0235C342.917 47.9172 342.398 48.2532 342.278 48.7812L338.774 64.1098C338.631 64.7359 339.106 65.3326 339.749 65.3326H353.234C353.405 65.3326 353.573 65.3764 353.722 65.4597L369.55 74.305C370.059 74.5895 370.218 75.2474 369.894 75.7326L360.531 89.7779C360.088 90.4425 360.564 91.3326 361.363 91.3326H370.494C371.047 91.3326 371.494 91.7804 371.494 92.3326V97.3326C371.494 97.8849 371.047 98.3326 370.494 98.3326H363.494C362.942 98.3326 362.494 98.7804 362.494 99.3326V106.333C362.494 106.885 362.047 107.333 361.494 107.333H355.171C354.762 107.333 354.395 107.582 354.243 107.961L345.618 129.523C345.538 129.724 345.525 129.946 345.581 130.155L353.621 159.949C353.802 160.62 354.596 160.907 355.164 160.505L386.072 138.632C386.337 138.444 386.494 138.14 386.494 137.815V133.68C386.494 133.191 386.848 132.774 387.33 132.693L419.099 127.399C419.353 127.356 419.58 127.218 419.735 127.012L425.194 119.733C425.383 119.481 425.68 119.333 425.994 119.333H448.026C448.323 119.333 448.604 119.201 448.794 118.973L452.128 114.973C452.67 114.321 452.207 113.333 451.359 113.333H443.994M484.494 68.3326C484.494 69.1326 484.494 74.9993 484.494 77.8326M484.494 68.3326V77.8326M484.494 77.8326H479.994C479.442 77.8326 478.994 78.2804 478.994 78.8326V86.9184C478.994 87.1836 478.889 87.438 478.701 87.6255L468.4 97.927C467.94 98.387 467.17 98.2922 466.835 97.7344L463.759 92.6079C463.394 91.9989 462.528 91.9543 462.102 92.5224L458.927 96.756C458.669 97.1004 458.66 97.5713 458.905 97.9252L462.59 103.249C462.832 103.599 462.827 104.063 462.577 104.407L459.683 108.386C459.321 108.883 458.601 108.94 458.167 108.505L453.766 104.104C453.591 103.929 453.359 103.825 453.113 103.813C449.846 103.649 443.994 103.448 443.994 103.833M443.994 103.833C443.994 104.233 443.994 110.333 443.994 113.333M443.994 103.833V113.333" stroke="#C25628"/>
<path d="M171.994 416.833L164.692 425.108C164.563 425.255 164.48 425.436 164.452 425.629L162.02 442.654C162.003 442.772 161.965 442.886 161.908 442.991L153.48 458.443C153.213 458.932 153.397 459.546 153.89 459.806L179.393 473.279C179.46 473.315 179.523 473.358 179.581 473.408L196.839 488.395C197.486 488.957 198.494 488.497 198.494 487.64V465.833C198.494 465.28 198.942 464.833 199.494 464.833H219.494C220.047 464.833 220.494 464.385 220.494 463.833V454.54C220.494 454.116 220.762 453.738 221.162 453.597L244.662 445.303C245.312 445.073 245.994 445.556 245.994 446.246V464.321C245.994 464.642 246.149 464.944 246.409 465.132L254.368 470.88C254.737 471.147 255.239 471.13 255.59 470.84L266.217 462.062C266.396 461.914 266.621 461.833 266.854 461.833H278.049C278.332 461.833 278.603 461.712 278.792 461.502L286.909 452.483C287.244 452.111 287.252 451.548 286.928 451.166L279.294 442.185C279.104 441.961 278.825 441.833 278.532 441.833H264.446C264.159 441.833 263.886 441.709 263.696 441.494L238.254 412.627C238.087 412.438 237.855 412.319 237.603 412.294L208.183 409.352C208.058 409.339 207.937 409.303 207.825 409.246L191.105 400.647C190.737 400.457 190.291 400.514 189.982 400.79L171.994 416.833Z" fill="#A6E700" stroke="#1E4B17"/>
<path d="M286.85 452.548C287.21 452.149 287.821 452.105 288.234 452.449L296.135 459.033C296.363 459.223 296.494 459.504 296.494 459.801V472.514C296.494 473.066 296.047 473.514 295.494 473.514H291.494C290.942 473.514 290.494 473.961 290.494 474.514V478.833C290.494 479.385 290.942 479.833 291.494 479.833H307.666C307.879 479.833 308.087 479.901 308.259 480.027L332.902 498.161C333.562 498.647 334.494 498.175 334.494 497.355V495.333C334.494 494.78 334.942 494.333 335.494 494.333H347.977C348.302 494.333 348.606 494.49 348.793 494.755L365.31 518.073C365.43 518.242 365.494 518.444 365.494 518.651V538.854C365.494 539.157 365.357 539.443 365.121 539.633L345.367 555.532C345.131 555.722 344.994 556.009 344.994 556.311V590.476C344.994 590.707 344.914 590.93 344.768 591.109L331.794 606.966C331.604 607.198 331.32 607.333 331.02 607.333H319.898C319.639 607.333 319.39 607.433 319.204 607.613L305.727 620.608C305.576 620.754 305.474 620.944 305.437 621.151L300.036 651.104C300.008 651.254 299.947 651.397 299.856 651.52L286.126 670.123C285.571 670.874 284.381 670.523 284.323 669.591L283.527 656.852C283.506 656.527 283.329 656.231 283.05 656.061L266.456 645.921C265.945 645.608 265.821 644.918 266.193 644.448L280.017 626.937C280.299 626.581 280.305 626.08 280.033 625.717L254.694 591.933C254.2 591.273 254.67 590.333 255.494 590.333H257.494C258.047 590.333 258.494 589.885 258.494 589.333V568.333C258.494 567.78 258.047 567.333 257.494 567.333H243.646C243.25 567.333 242.891 567.099 242.731 566.736L235.605 550.584C235.533 550.42 235.417 550.278 235.27 550.173L206.422 529.637C206.154 529.447 205.81 529.4 205.501 529.512L190.043 535.133C189.704 535.256 189.325 535.187 189.051 534.952L175.844 523.632C175.622 523.442 175.494 523.165 175.494 522.873V506.846C175.494 506.524 175.65 506.221 175.911 506.033L198.077 490.132C198.339 489.944 198.494 489.642 198.494 489.319V465.833C198.494 465.28 198.942 464.833 199.494 464.833H219.494C220.047 464.833 220.494 464.385 220.494 463.833V454.54C220.494 454.116 220.762 453.738 221.162 453.597L244.662 445.303C245.312 445.073 245.994 445.556 245.994 446.246V464.321C245.994 464.642 246.149 464.944 246.409 465.132L254.368 470.88C254.737 471.147 255.239 471.13 255.59 470.84L266.217 462.062C266.396 461.914 266.621 461.833 266.854 461.833H278.049C278.332 461.833 278.603 461.712 278.792 461.502L286.85 452.548Z" fill="#A6E700" stroke="#1E4B17"/>
<path d="M283.188 672.031C283.84 672.182 284.452 671.662 284.411 670.994L283.527 656.852C283.506 656.527 283.329 656.231 283.05 656.061L266.456 645.921C265.945 645.608 265.821 644.918 266.193 644.448L280.017 626.937C280.299 626.581 280.305 626.08 280.033 625.717L253.794 590.733C253.605 590.481 253.309 590.333 252.994 590.333H238.975C238.671 590.333 238.384 590.471 238.194 590.708L230.964 599.746C230.686 600.094 230.211 600.216 229.8 600.045L217.077 594.781C216.509 594.546 215.865 594.874 215.722 595.473L205.539 638.144C205.51 638.268 205.504 638.398 205.523 638.525L214.977 701.218C214.989 701.294 215.009 701.369 215.037 701.44L233.907 748.615C233.965 748.758 233.988 748.913 233.976 749.066L233.055 760.573C233.019 761.022 233.287 761.439 233.71 761.593L248.497 766.97C249.038 767.167 249.633 766.867 249.797 766.315L254.869 749.255C254.949 748.986 254.912 748.696 254.768 748.455L246.281 734.31C246.103 734.013 246.091 733.646 246.249 733.338L254.676 716.952C254.867 716.58 254.806 716.128 254.524 715.819L249.959 710.84C249.679 710.534 249.617 710.088 249.802 709.717L255.795 697.731C255.922 697.477 256.15 697.29 256.424 697.214L269.947 693.484C270.287 693.39 270.552 693.125 270.645 692.786L274.352 679.348C274.441 679.026 274.363 678.681 274.145 678.428L266.995 670.149C266.363 669.417 267.034 668.303 267.976 668.521L283.188 672.031Z" fill="#A6E700" stroke="#1E4B17"/>
<path d="M152.503 460.129C152.78 459.681 153.356 459.524 153.821 459.77L179.393 473.279C179.46 473.315 179.523 473.358 179.581 473.408L197.539 489.003C198.026 489.426 197.991 490.194 197.466 490.57L175.911 506.033C175.65 506.221 175.494 506.524 175.494 506.846V523.043C175.494 523.338 175.624 523.617 175.849 523.807L189.038 534.947C189.319 535.185 189.707 535.249 190.049 535.114C195.7 532.895 205.994 528.946 205.994 529.333C205.994 529.73 225.363 543.291 235.269 550.176C235.42 550.281 235.534 550.422 235.608 550.59L242.731 566.736C242.891 567.099 243.25 567.333 243.646 567.333H257.494C258.047 567.333 258.494 567.78 258.494 568.333V589.333C258.494 589.885 258.047 590.333 257.494 590.333H238.975C238.671 590.333 238.384 590.471 238.194 590.708L230.964 599.746C230.686 600.094 230.211 600.216 229.8 600.045L217.077 594.781C216.509 594.546 215.865 594.874 215.722 595.473L205.539 638.144C205.51 638.268 205.504 638.398 205.523 638.525L214.977 701.218C214.989 701.294 215.009 701.369 215.037 701.44L233.907 748.615C233.965 748.758 233.988 748.913 233.976 749.066L233.055 760.58C233.019 761.025 233.283 761.44 233.702 761.597L261.26 771.873C261.88 772.104 262.109 772.863 261.72 773.398L258.794 777.421C258.606 777.68 258.305 777.833 257.985 777.833H235.068C234.713 777.833 234.384 777.644 234.205 777.337L212.136 739.575C212.043 739.416 211.996 739.236 211.999 739.052L212.488 712.168C212.492 711.95 212.425 711.737 212.297 711.562L200.686 695.596C200.561 695.425 200.494 695.219 200.494 695.007V663.648C200.494 663.443 200.431 663.242 200.314 663.074L197.15 658.555C197.048 658.409 196.987 658.239 196.973 658.062L192.512 602.551C192.5 602.407 192.52 602.262 192.57 602.127L197.782 587.913C197.912 587.557 197.83 587.159 197.571 586.883L157.728 544.58C157.576 544.42 157.482 544.214 157.46 543.994L155.53 524.688C155.507 524.458 155.405 524.243 155.242 524.08L141.787 510.626C141.6 510.438 141.494 510.184 141.494 509.918V491.813C141.494 491.509 141.632 491.222 141.87 491.032L145.337 488.258C145.891 487.816 145.82 486.954 145.203 486.606L139.402 483.343C138.907 483.065 138.743 482.43 139.041 481.946L152.503 460.129Z" fill="#A6E700" stroke="#1E4B17"/>
<path d="M1025.99 521.637C1025.99 520.851 1026.86 520.373 1027.52 520.789L1036.46 526.376C1037.13 526.793 1037.99 526.314 1037.99 525.528V518.797C1037.99 518.503 1038.12 518.223 1038.35 518.033L1069.29 491.925C1069.69 491.59 1070.28 491.615 1070.64 491.982L1077.7 499.04C1077.89 499.227 1077.99 499.482 1077.99 499.747V509.564C1077.99 509.74 1077.95 509.913 1077.86 510.065L1072.63 519.1C1072.54 519.252 1072.49 519.425 1072.49 519.601V536.326C1072.49 536.644 1072.65 536.944 1072.9 537.132L1079.2 541.748C1079.64 542.072 1080.26 541.98 1080.59 541.541L1087.24 532.671C1087.4 532.455 1087.65 532.313 1087.91 532.279L1105.87 529.977C1106.47 529.901 1106.99 530.366 1106.99 530.969V537.613C1106.99 538.244 1106.42 538.717 1105.8 538.593L1097.49 536.931C1097.18 536.869 1096.86 536.957 1096.62 537.168L1087.78 545.128C1087.35 545.511 1087.33 546.173 1087.74 546.578L1096.7 555.54C1096.89 555.727 1096.99 555.982 1096.99 556.247V563.833C1096.99 564.385 1096.55 564.833 1095.99 564.833H1086C1085.68 564.833 1085.38 564.984 1085.19 565.241L1081 570.955C1080.55 571.572 1079.6 571.474 1079.29 570.778L1072.74 556.382C1072.59 556.044 1072.26 555.819 1071.89 555.798L1038.43 553.858C1038.15 553.842 1037.89 553.711 1037.72 553.497L1026.22 539.61C1026.08 539.431 1025.99 539.205 1025.99 538.973V521.637Z" fill="#DA3C6B" stroke="#851858"/>
<path d="M954.032 673.046C953.502 672.681 953.449 671.918 953.924 671.484L964.169 662.13C964.376 661.941 964.494 661.673 964.494 661.392V648.409C964.494 648.052 964.684 647.723 964.993 647.544L989.262 633.468C989.414 633.379 989.587 633.333 989.763 633.333H1001.48C1001.8 633.333 1002.11 633.177 1002.29 632.916L1015.7 614.249C1015.88 613.988 1016.19 613.833 1016.51 613.833H1027.41C1027.77 613.833 1028.1 613.636 1028.28 613.318L1035.21 600.847C1035.38 600.53 1035.72 600.333 1036.08 600.333H1042.97C1043.3 600.333 1043.61 600.492 1043.79 600.759L1049.7 609.194C1050.09 609.754 1050.91 609.764 1051.32 609.215L1067.05 587.933C1067.31 587.577 1067.78 587.437 1068.2 587.588L1088.56 594.994C1089.08 595.182 1089.35 595.746 1089.17 596.264C1087.1 602.162 1083.62 612.454 1083.99 612.833C1084.36 613.197 1090.29 621.34 1093.99 626.44C1094.44 627.061 1095.39 626.964 1095.71 626.264L1111.73 590.92C1111.89 590.562 1112.25 590.333 1112.64 590.333H1119.49C1120.05 590.333 1120.49 590.78 1120.49 591.333V642.463C1120.49 642.701 1120.58 642.932 1120.74 643.114L1129.25 653.052C1129.41 653.233 1129.49 653.464 1129.49 653.703V679.056C1129.49 679.237 1129.54 679.415 1129.64 679.57L1136.76 691.438C1136.91 691.689 1136.94 691.992 1136.85 692.269L1127.6 720.024C1127.53 720.224 1127.4 720.399 1127.23 720.522L1080.75 753.647C1080.59 753.768 1080.38 753.833 1080.17 753.833H1048.36C1047.86 753.833 1047.44 753.47 1047.37 752.979L1043.62 727.686C1043.55 727.196 1043.13 726.833 1042.63 726.833H1032.49C1031.94 726.833 1031.49 726.385 1031.49 725.833V713.074C1031.49 712.633 1031.21 712.245 1030.79 712.117L1008.91 705.458C1008.64 705.378 1008.36 705.41 1008.12 705.545L983.306 719.655C983.104 719.77 982.869 719.811 982.641 719.771L957.492 715.419C957.179 715.365 956.91 715.165 956.768 714.881L952.265 705.873C952.098 705.541 952.13 705.144 952.348 704.842L960.806 693.094C960.928 692.924 960.994 692.72 960.994 692.51V678.359C960.994 678.029 960.832 677.721 960.561 677.535L954.032 673.046Z" fill="#DA3C6B" stroke="#851858"/>
<path d="M939.494 498.658C939.494 497.994 940.13 497.514 940.769 497.697L952.769 501.125C953.198 501.248 953.494 501.64 953.494 502.087V508.866C953.494 509.162 953.625 509.442 953.852 509.632L968.816 522.183C968.933 522.282 969.026 522.405 969.088 522.545L982.455 552.744C982.481 552.803 982.502 552.864 982.516 552.927L984.969 563.723C984.986 563.796 984.994 563.87 984.994 563.945V569.234C984.994 569.299 985.001 569.365 985.014 569.43L986.334 576.029C986.427 576.496 986.837 576.833 987.314 576.833H1003.51C1003.82 576.833 1004.11 576.974 1004.29 577.215L1013.45 588.868C1014.01 589.577 1013.41 590.604 1012.52 590.475L974.762 585.016C974.118 584.923 973.733 584.25 973.979 583.648L977.797 574.314C977.921 574.012 977.889 573.669 977.713 573.395L975.336 569.697C974.796 568.857 973.494 569.239 973.494 570.237V571.918C973.494 572.184 973.389 572.438 973.201 572.626L971.136 574.691C970.772 575.055 970.191 575.083 969.793 574.755L962.271 568.56C962.092 568.413 961.97 568.208 961.925 567.981L956.524 540.485C956.504 540.384 956.469 540.287 956.42 540.197L939.618 509.557C939.537 509.41 939.494 509.245 939.494 509.076V498.658Z" fill="#DA3C6B" stroke="#851858"/>
<path d="M1122.96 533.297C1122.98 532.759 1123.42 532.333 1123.96 532.333H1130.49C1131.05 532.333 1131.49 532.78 1131.49 533.333V541.683C1131.49 542.078 1131.26 542.436 1130.9 542.597L1123.96 545.683C1123.28 545.983 1122.53 545.472 1122.55 544.733L1122.96 533.297Z" fill="#DA3C6B"/>
<path d="M1136.04 547.011C1135.45 546.37 1135.91 545.333 1136.78 545.333H1148.11C1148.36 545.333 1148.6 545.424 1148.78 545.589L1153.16 549.535C1153.37 549.724 1153.49 549.995 1153.49 550.278V556.424C1153.49 557.231 1154.4 557.705 1155.06 557.246L1159.59 554.115C1159.84 553.937 1160.17 553.89 1160.47 553.987L1187.26 562.754C1187.41 562.806 1187.55 562.895 1187.67 563.014L1197.72 573.543C1197.9 573.729 1197.99 573.976 1197.99 574.233V578.833C1197.99 579.385 1198.44 579.833 1198.99 579.833H1202.03C1202.32 579.833 1202.6 579.964 1202.79 580.192L1207.26 585.555C1207.41 585.734 1207.49 585.961 1207.49 586.195V593.017C1207.49 593.223 1207.56 593.423 1207.68 593.591L1214.1 602.762C1214.34 603.105 1214.34 603.561 1214.1 603.905L1210.65 608.893C1210.3 609.39 1209.6 609.47 1209.15 609.063L1188.16 589.939C1187.78 589.594 1187.2 589.591 1186.82 589.931L1183.38 592.99C1183.14 593.205 1182.81 593.29 1182.49 593.218L1166.04 589.458C1165.7 589.38 1165.43 589.13 1165.32 588.799L1160.12 573.198C1160.04 572.963 1159.87 572.765 1159.66 572.643L1141 562.12C1140.69 561.942 1140.49 561.609 1140.49 561.249V552.224C1140.49 551.972 1140.4 551.73 1140.23 551.545L1136.04 547.011Z" fill="#DA3C6B"/>
<path d="M1122.96 533.297C1122.98 532.759 1123.42 532.333 1123.96 532.333H1130.49C1131.05 532.333 1131.49 532.78 1131.49 533.333V541.683C1131.49 542.078 1131.26 542.436 1130.9 542.597L1123.96 545.683C1123.28 545.983 1122.53 545.472 1122.55 544.733L1122.96 533.297Z" stroke="#851858"/>
<path d="M1136.04 547.011C1135.45 546.37 1135.91 545.333 1136.78 545.333H1148.11C1148.36 545.333 1148.6 545.424 1148.78 545.589L1153.16 549.535C1153.37 549.724 1153.49 549.995 1153.49 550.278V556.424C1153.49 557.231 1154.4 557.705 1155.06 557.246L1159.59 554.115C1159.84 553.937 1160.17 553.89 1160.47 553.987L1187.26 562.754C1187.41 562.806 1187.55 562.895 1187.67 563.014L1197.72 573.543C1197.9 573.729 1197.99 573.976 1197.99 574.233V578.833C1197.99 579.385 1198.44 579.833 1198.99 579.833H1202.03C1202.32 579.833 1202.6 579.964 1202.79 580.192L1207.26 585.555C1207.41 585.734 1207.49 585.961 1207.49 586.195V593.017C1207.49 593.223 1207.56 593.423 1207.68 593.591L1214.1 602.762C1214.34 603.105 1214.34 603.561 1214.1 603.905L1210.65 608.893C1210.3 609.39 1209.6 609.47 1209.15 609.063L1188.16 589.939C1187.78 589.594 1187.2 589.591 1186.82 589.931L1183.38 592.99C1183.14 593.205 1182.81 593.29 1182.49 593.218L1166.04 589.458C1165.7 589.38 1165.43 589.13 1165.32 588.799L1160.12 573.198C1160.04 572.963 1159.87 572.765 1159.66 572.643L1141 562.12C1140.69 561.942 1140.49 561.609 1140.49 561.249V552.224C1140.49 551.972 1140.4 551.73 1140.23 551.545L1136.04 547.011Z" stroke="#851858"/>
<path d="M1164.9 325.333C1164.09 325.333 1163.62 324.428 1164.08 323.765L1172.48 311.574C1172.77 311.153 1173.34 311.019 1173.79 311.264L1177.02 313.026C1177.68 313.389 1178.49 312.907 1178.49 312.148V303.569C1178.49 303.413 1178.46 303.26 1178.39 303.121L1173.05 292.445C1173.01 292.37 1172.99 292.291 1172.97 292.21L1166.99 264.603C1166.8 263.745 1167.73 263.081 1168.48 263.535L1185.01 273.541C1185.31 273.722 1185.49 274.046 1185.49 274.396V282.333C1185.49 282.885 1185.05 283.333 1184.49 283.333H1178.49C1177.94 283.333 1177.49 283.78 1177.49 284.333V287.333C1177.49 287.885 1177.94 288.333 1178.49 288.333H1182.08C1182.35 288.333 1182.6 288.438 1182.79 288.626L1191.12 296.954C1191.35 297.191 1191.45 297.53 1191.39 297.857L1190.54 302.127C1190.51 302.263 1190.45 302.391 1190.37 302.504L1187.12 307.156C1187.04 307.272 1186.98 307.405 1186.95 307.545L1185.51 315.257C1185.5 315.307 1185.49 315.357 1185.47 315.405L1182.55 323.671C1182.51 323.778 1182.49 323.891 1182.49 324.004V331.183C1182.49 332.033 1181.5 332.496 1180.85 331.948L1173.27 325.568C1173.09 325.416 1172.87 325.333 1172.63 325.333H1164.9Z" fill="#FFE803"/>
<path d="M1157.75 332.706C1158.18 332.49 1158.71 332.614 1159 333L1168.29 345.392C1168.66 345.885 1168.5 346.592 1167.95 346.878L1160.24 350.918C1159.51 351.298 1158.67 350.694 1158.79 349.884L1159.89 342.556C1159.95 342.125 1159.73 341.702 1159.34 341.51L1149.65 336.756L1157.75 332.706Z" fill="#FFE801"/>
<path d="M1149.49 336.833L1149.65 336.756M1149.65 336.756L1157.75 332.706C1158.18 332.49 1158.71 332.614 1159 333L1168.29 345.392C1168.66 345.885 1168.5 346.592 1167.95 346.878L1160.24 350.918C1159.51 351.298 1158.67 350.694 1158.79 349.884L1159.89 342.556C1159.95 342.125 1159.73 341.702 1159.34 341.51L1149.65 336.756ZM1173.27 325.568L1180.85 331.948C1181.5 332.496 1182.49 332.033 1182.49 331.183V324.004C1182.49 323.891 1182.51 323.778 1182.55 323.671L1185.47 315.405C1185.49 315.357 1185.5 315.307 1185.51 315.257L1186.95 307.545C1186.98 307.405 1187.04 307.272 1187.12 307.156L1190.37 302.504C1190.45 302.391 1190.51 302.263 1190.54 302.127L1191.39 297.857C1191.45 297.53 1191.35 297.191 1191.12 296.954L1182.79 288.626C1182.6 288.438 1182.35 288.333 1182.08 288.333H1178.49C1177.94 288.333 1177.49 287.885 1177.49 287.333V284.333C1177.49 283.78 1177.94 283.333 1178.49 283.333H1184.49C1185.05 283.333 1185.49 282.885 1185.49 282.333V274.396C1185.49 274.046 1185.31 273.722 1185.01 273.541L1168.48 263.535C1167.73 263.081 1166.8 263.745 1166.99 264.603L1172.97 292.21C1172.99 292.291 1173.01 292.37 1173.05 292.445L1178.39 303.121C1178.46 303.26 1178.49 303.413 1178.49 303.569V312.148C1178.49 312.907 1177.68 313.389 1177.02 313.026L1173.79 311.264C1173.34 311.019 1172.77 311.153 1172.48 311.574L1164.08 323.765C1163.62 324.428 1164.09 325.333 1164.9 325.333H1172.63C1172.87 325.333 1173.09 325.416 1173.27 325.568Z" stroke="#C79B2F"/>
<path d="M658.262 279.118C658.107 278.662 658.298 278.161 658.716 277.924L668.925 272.154C669.271 271.959 669.7 271.987 670.017 272.225L679.051 279C679.327 279.207 679.69 279.257 680.011 279.133L701.268 270.92C701.417 270.863 701.573 270.841 701.731 270.858C707.974 271.535 720.099 272.938 720.494 273.333C720.887 273.726 731.611 285.093 737.202 291.023C737.391 291.223 737.65 291.333 737.926 291.333H751.947C752.288 291.333 752.606 291.506 752.789 291.794L760.244 303.442C760.403 303.69 760.663 303.855 760.954 303.894L782.574 306.777C782.843 306.812 783.114 306.738 783.327 306.569L794.424 297.784C794.764 297.515 795.239 297.496 795.599 297.736L815.465 310.98C815.788 311.195 815.957 311.578 815.899 311.962L813.535 327.567C813.508 327.741 813.528 327.919 813.593 328.083L825.361 357.995C825.447 358.213 825.454 358.455 825.38 358.677L820.89 372.145C820.687 372.754 819.972 373.017 819.424 372.685L801.733 361.977C801.577 361.883 801.398 361.833 801.215 361.833H787.416C787.146 361.833 786.888 361.724 786.7 361.531L766.789 341.134C766.6 340.941 766.342 340.833 766.073 340.833H758.994C758.442 340.833 757.994 341.28 757.994 341.833V357.905C757.994 358.178 758.106 358.439 758.303 358.628L769.204 369.055C769.39 369.233 769.638 369.333 769.896 369.333H776.494C777.047 369.333 777.494 369.78 777.494 370.333V376.086C777.494 376.529 777.786 376.919 778.21 377.045L790.406 380.658C790.767 380.765 791.157 380.661 791.416 380.387L799.288 372.078C799.675 371.67 800.323 371.661 800.721 372.059L815.99 387.329C816.292 387.63 816.369 388.09 816.182 388.474L807.14 407.034C807.045 407.228 806.891 407.386 806.699 407.485L755.71 433.722C755.568 433.795 755.411 433.833 755.252 433.833H746.948C746.66 433.833 746.385 433.708 746.196 433.491L739.569 425.918C739.519 425.861 739.476 425.799 739.441 425.733L722.114 393.555C722.035 393.409 721.994 393.246 721.994 393.081V380.09C721.994 379.921 721.952 379.755 721.87 379.607L702.994 345.333L692.838 328.889C692.629 328.551 692.641 328.121 692.867 327.795L705.542 309.486C705.807 309.104 705.773 308.589 705.46 308.244L701.327 303.698C701.117 303.468 700.812 303.348 700.502 303.375L677.738 305.312C677.578 305.326 677.417 305.3 677.269 305.239L665.911 300.506C665.646 300.396 665.441 300.177 665.349 299.906L658.262 279.118Z" fill="#FFE803" stroke="#C79B2F"/>
<path d="M816.447 311.194C816.161 311.282 815.85 311.236 815.6 311.07L795.061 297.377C795.017 297.348 794.975 297.314 794.935 297.278L789.86 292.565C789.194 291.947 789.632 290.833 790.541 290.833H795.994C796.547 290.833 796.994 290.385 796.994 289.833V283.833C796.994 283.28 796.547 282.833 795.994 282.833H785.494C784.942 282.833 784.494 282.385 784.494 281.833V275.333C784.494 274.78 784.047 274.333 783.494 274.333H775.519C775.191 274.333 774.883 274.171 774.696 273.9L765.513 260.584C765.219 260.159 765.297 259.58 765.696 259.251C767.824 257.495 771.137 254.833 771.494 254.833C771.821 254.833 777.738 258.173 782.255 260.759C783.102 261.244 784.075 260.352 783.663 259.466L778.763 248.912C778.599 248.558 778.245 248.333 777.856 248.333H766.122C765.738 248.333 765.388 248.113 765.221 247.767L758.754 234.37C758.594 234.039 758.628 233.647 758.843 233.349L764.695 225.247C764.883 224.987 765.185 224.833 765.506 224.833H783.144C783.371 224.833 783.591 224.755 783.768 224.614L793.119 217.133C793.356 216.943 793.494 216.656 793.494 216.352V204.946C793.494 204.351 794.01 203.888 794.601 203.952L839.624 208.793C839.863 208.819 840.084 208.929 840.248 209.105L867.725 238.544C867.898 238.73 867.994 238.974 867.994 239.227V249.833C867.994 250.385 868.442 250.833 868.994 250.833H875.494C876.047 250.833 876.494 251.28 876.494 251.833V258.833C876.494 259.385 876.047 259.833 875.494 259.833H868.994C868.442 259.833 867.994 260.28 867.994 260.833V265.323C867.994 265.643 868.147 265.944 868.406 266.132L878.927 273.784C878.972 273.816 879.019 273.845 879.068 273.87L888.165 278.418C888.633 278.652 888.841 279.207 888.643 279.691L884.749 289.211C884.595 289.587 884.229 289.833 883.823 289.833H868.733C868.294 289.833 867.906 290.119 867.777 290.539L864.432 301.411C864.223 302.09 863.393 302.34 862.843 301.891L858.908 298.671C858.65 298.46 858.302 298.391 857.983 298.489L816.447 311.194Z" fill="#FFE801" stroke="#C79B2F"/>
<path d="M879.648 274.382C879.061 274.103 878.893 273.347 879.305 272.845L894.044 254.882C894.314 254.553 894.762 254.431 895.161 254.577L924.232 265.237C924.404 265.299 924.555 265.408 924.669 265.551L942.194 287.457C942.384 287.695 942.671 287.833 942.975 287.833H1005.04C1005.33 287.833 1005.6 287.71 1005.79 287.495L1031.98 257.909C1032.28 257.569 1032.32 257.07 1032.07 256.692L1021.7 241.148C1021.57 240.945 1021.51 240.699 1021.55 240.458L1022.86 230.841C1022.93 230.287 1023.45 229.902 1024 229.987L1028.75 230.718C1029.19 230.786 1029.62 230.552 1029.81 230.145L1037.14 214.115C1037.34 213.665 1037.85 213.433 1038.32 213.569L1047.64 216.232C1047.87 216.297 1048.07 216.44 1048.2 216.635L1063.2 238.891C1063.38 239.167 1063.69 239.333 1064.03 239.333H1070.7C1070.89 239.333 1071.08 239.389 1071.24 239.495L1082.07 246.556C1082.34 246.73 1082.67 246.767 1082.97 246.655L1093.37 242.756C1093.95 242.536 1094.59 242.903 1094.7 243.52L1099.92 273.407C1099.97 273.678 1099.9 273.958 1099.73 274.179L1082.18 297.583C1082.06 297.745 1081.89 297.867 1081.7 297.931L1072.81 300.894C1072.16 301.11 1071.49 300.628 1071.49 299.945V292.747C1071.49 291.856 1070.42 291.41 1069.79 292.04L1057.41 304.412C1056.95 304.877 1057.05 305.656 1057.62 305.985L1065.57 310.587C1065.84 310.742 1066.16 310.764 1066.45 310.648L1078.77 305.628C1079.19 305.455 1079.68 305.594 1079.96 305.966L1083 310.158C1083.29 310.549 1083.25 311.087 1082.92 311.436L1074.12 320.672C1073.77 321.046 1073.75 321.631 1074.1 322.02L1090.75 341.05C1090.91 341.232 1090.99 341.466 1090.99 341.708V352.051C1090.99 352.235 1091.05 352.416 1091.14 352.573L1096.25 360.933C1096.4 361.186 1096.44 361.495 1096.34 361.776L1087.57 387.624C1087.52 387.761 1087.44 387.887 1087.34 387.992L1077.29 398.523C1077.1 398.721 1076.84 398.833 1076.57 398.833H1065.37C1065.13 398.833 1064.89 398.923 1064.71 399.085L1052.04 410.345C1051.72 410.635 1051.24 410.68 1050.86 410.455L1041.64 404.92C1041.54 404.862 1041.46 404.789 1041.39 404.702L1029.38 390.296C1029.14 390.011 1028.77 389.881 1028.4 389.958L1013.08 393.209C1012.72 393.285 1012.43 393.552 1012.33 393.905L1010.21 401.115C1010.08 401.54 1009.69 401.833 1009.25 401.833H1001.49C1000.94 401.833 1000.49 401.385 1000.49 400.833V384.97C1000.49 384.581 1000.27 384.228 999.917 384.063L994.417 381.497C993.754 381.187 992.994 381.671 992.994 382.403V386.333C992.994 386.885 992.547 387.333 991.994 387.333H988.197C987.571 387.333 987.099 386.765 987.213 386.151L989.367 374.521C989.443 374.108 989.253 373.691 988.891 373.477L981.111 368.901C981.033 368.856 980.95 368.821 980.864 368.798L936.595 356.86C936.528 356.842 936.463 356.817 936.401 356.785L912.208 344.442C912.068 344.37 911.912 344.333 911.754 344.333H898.358C897.862 344.333 897.441 343.969 897.368 343.479L893.099 314.545C893.037 314.12 892.709 313.782 892.285 313.707L870.804 309.888C870.602 309.852 870.417 309.755 870.272 309.61L863.937 303.275C863.666 303.005 863.574 302.603 863.699 302.241L867.761 290.506C867.901 290.103 868.28 289.833 868.706 289.833H883.823C884.229 289.833 884.595 289.587 884.749 289.211L888.636 279.708C888.837 279.217 888.62 278.654 888.141 278.426L879.648 274.382Z" fill="#FFE801" stroke="#C79B2F"/>
<path d="M1040.87 404.083C1041.22 404.5 1041.17 405.118 1040.76 405.475L1033.84 411.534C1033.62 411.724 1033.49 411.998 1033.49 412.286V419.881C1033.49 420.168 1033.62 420.441 1033.83 420.631L1054.16 438.534C1054.37 438.724 1054.49 438.997 1054.49 439.284V452.999C1054.49 453.216 1054.42 453.426 1054.29 453.599L1045.64 465.144C1045.54 465.268 1045.42 465.369 1045.28 465.438L1031.94 472.109C1031.28 472.441 1030.49 471.958 1030.49 471.215V455.014C1030.49 454.894 1030.47 454.775 1030.43 454.663L1027.63 447.2C1027.54 446.964 1027.37 446.77 1027.14 446.657L1015.71 440.938C1015.57 440.869 1015.41 440.833 1015.26 440.833H1011.98C1011.43 440.833 1010.99 441.271 1010.98 441.817L1010.5 472.409C1010.5 472.68 1010.6 472.941 1010.79 473.132L1018.7 481.04C1018.89 481.227 1018.99 481.482 1018.99 481.747V500.606C1018.99 501.469 1017.97 501.926 1017.33 501.353L1005.65 490.973C1005.55 490.881 1005.46 490.767 1005.41 490.64L993.109 463.586C993.034 463.42 993.005 463.237 993.026 463.056L995.461 442.118C995.483 441.932 995.451 441.743 995.371 441.573L990.766 431.903C990.6 431.554 990.249 431.333 989.863 431.333H981.183C980.768 431.333 980.397 431.077 980.249 430.689L970.112 404.141C970.036 403.941 970.025 403.721 970.083 403.515L979.469 369.925C979.486 369.864 979.509 369.804 979.537 369.747C979.788 369.246 980.402 369.047 980.898 369.308L988.843 373.49C989.23 373.694 989.44 374.126 989.36 374.557L987.213 386.151C987.099 386.765 987.571 387.333 988.197 387.333H991.994C992.547 387.333 992.994 386.885 992.994 386.333V382.403C992.994 381.671 993.754 381.187 994.417 381.497L999.917 384.063C1000.27 384.228 1000.49 384.581 1000.49 384.97V400.833C1000.49 401.385 1000.94 401.833 1001.49 401.833H1009.25C1009.69 401.833 1010.08 401.54 1010.21 401.115L1012.33 393.905C1012.43 393.552 1012.72 393.285 1013.08 393.209L1028.4 389.958C1028.77 389.881 1029.14 390.011 1029.38 390.296L1040.87 404.083Z" fill="#FFE801" stroke="#C79B2F"/>
<path d="M820.857 372.246C820.665 372.821 821.024 373.433 821.62 373.545L846.653 378.268C846.874 378.31 847.075 378.425 847.222 378.595L866.373 400.618C866.722 401.019 867.322 401.077 867.742 400.751L874.38 395.588C875.037 395.077 875.994 395.545 875.994 396.377V424.083C875.994 424.247 876.035 424.408 876.112 424.553L899.339 468.104C899.661 468.708 900.48 468.817 900.949 468.32L916.194 452.151C916.385 451.948 916.483 451.674 916.464 451.396L915.025 430.773C915.005 430.492 915.105 430.217 915.299 430.013L945.527 398.322C945.809 398.026 946.243 397.932 946.622 398.084L952.95 400.615C953.286 400.749 953.669 400.691 953.95 400.464L963.044 393.102C963.535 392.704 964.268 392.856 964.56 393.417L968.825 401.591C969.244 402.395 970.431 402.271 970.675 401.398L979.472 369.911C979.487 369.859 979.507 369.808 979.531 369.76C979.771 369.28 979.513 368.7 978.995 368.557L936.592 356.86C936.527 356.842 936.464 356.817 936.404 356.786L912.208 344.442C912.068 344.37 911.912 344.333 911.754 344.333H898.358C897.862 344.333 897.441 343.969 897.368 343.479L893.099 314.545C893.037 314.12 892.709 313.782 892.285 313.707L870.804 309.888C870.602 309.852 870.417 309.755 870.272 309.61L863.494 302.833L858.915 298.711C858.654 298.476 858.289 298.395 857.953 298.498L816.596 311.149C816.228 311.261 815.958 311.575 815.9 311.955L813.535 327.567C813.508 327.741 813.528 327.919 813.593 328.083L825.361 357.995C825.447 358.213 825.454 358.455 825.38 358.677L820.857 372.246Z" fill="#FFE801" stroke="#C79B2F"/>
<path d="M1082.48 297.181C1082.2 297.561 1082.22 298.088 1082.53 298.443L1089.2 305.994C1089.39 306.209 1089.66 306.333 1089.95 306.333H1095.84C1096.24 306.333 1096.6 306.568 1096.76 306.932L1103.11 321.464C1103.33 321.951 1103.88 322.186 1104.38 322L1114.12 318.347C1114.78 318.1 1114.99 317.267 1114.52 316.743L1098.38 298.761C1098.14 298.496 1098.06 298.124 1098.17 297.785L1103.77 280.524C1103.9 280.112 1104.29 279.833 1104.72 279.833H1110.23C1110.68 279.833 1111.08 279.527 1111.19 279.089L1117.46 255.459C1117.48 255.375 1117.49 255.289 1117.49 255.202V236.853C1117.49 236.527 1117.34 236.221 1117.07 236.034L1102.86 226.091C1102.63 225.927 1102.48 225.669 1102.44 225.385L1099.64 200.627C1099.57 199.974 1098.89 199.569 1098.28 199.809L1086.35 204.496C1085.87 204.686 1085.32 204.472 1085.09 204.005L1073.82 180.998C1073.63 180.603 1073.71 180.127 1074.04 179.827L1080.54 173.759C1080.82 173.498 1081.22 173.419 1081.58 173.556L1103.86 182.089C1104.24 182.236 1104.68 182.135 1104.96 181.835C1106.91 179.753 1110.26 176.464 1110.99 176.833C1111.73 177.2 1119.27 179.001 1123.85 180.067C1124.45 180.207 1125.03 179.773 1125.07 179.158L1125.94 165.728C1125.97 165.219 1126.38 164.816 1126.89 164.794L1136.59 164.372C1137.1 164.35 1137.52 163.943 1137.55 163.432L1137.94 156.692C1137.97 156.198 1138.36 155.8 1138.85 155.755L1142.85 155.391C1143.24 155.355 1143.62 155.551 1143.81 155.891L1151.32 169.026C1151.43 169.224 1151.47 169.456 1151.44 169.681L1149.07 184.384C1149.02 184.669 1149.1 184.96 1149.28 185.182L1174.27 215.258C1174.86 215.972 1176.02 215.564 1176.04 214.636L1176.49 188.317C1176.49 188.011 1176.36 187.72 1176.12 187.526L1165.91 179.172C1165.65 178.96 1165.51 178.632 1165.55 178.299L1166.91 164.698C1166.96 164.202 1167.36 163.818 1167.86 163.798L1178.81 163.36C1179.22 163.344 1179.58 163.075 1179.72 162.684L1186.18 143.751C1186.36 143.24 1186.09 142.682 1185.59 142.492L1178.73 139.921C1178.58 139.863 1178.44 139.768 1178.33 139.643L1172.15 132.579C1171.79 132.166 1171.83 131.538 1172.24 131.173L1180.09 124.195C1180.34 123.969 1180.69 123.888 1181.02 123.979L1212.39 132.744C1213.21 132.974 1213.93 132.128 1213.56 131.354L1206.18 115.729C1206.06 115.476 1205.84 115.285 1205.58 115.202L1147.17 96.8887C1147.05 96.8517 1146.93 96.8369 1146.81 96.8451L1117.67 98.7874C1117.26 98.8147 1116.91 99.0895 1116.79 99.4804L1113.49 109.771C1113.27 110.484 1112.36 110.702 1111.83 110.173L1108.32 106.659C1108.11 106.452 1107.83 106.346 1107.53 106.369L1089.3 107.809C1089.1 107.824 1088.91 107.898 1088.76 108.019L1082.79 112.708C1082.35 113.052 1081.72 112.973 1081.38 112.532L1072.43 100.902C1072.17 100.562 1071.72 100.426 1071.32 100.565L1035.9 112.695C1035.64 112.783 1035.36 112.763 1035.12 112.639L1015.35 102.528C1014.71 102.2 1013.94 102.637 1013.9 103.355L1013.68 106.873C1013.62 107.828 1012.38 108.162 1011.85 107.365L995.536 82.8952C995.092 82.2291 994.084 82.3289 993.779 83.0691L991.241 89.2341C991.091 89.5983 990.741 89.8406 990.347 89.8529L975.449 90.3184C975.16 90.3275 974.881 90.2111 974.685 89.9994L962.585 76.969C962.246 76.604 961.69 76.5441 961.281 76.8286L950.923 84.0343C950.655 84.2212 950.494 84.5278 950.494 84.8552V91.2893C950.494 91.6282 950.666 91.9439 950.95 92.1283L968.539 103.537C968.823 103.721 968.994 104.037 968.994 104.376V114.973C968.994 115.205 969.076 115.431 969.224 115.61L980.765 129.555C980.913 129.735 980.994 129.96 980.994 130.193V147.074C980.994 147.522 981.293 147.916 981.726 148.037L1023.86 159.796C1023.95 159.82 1024.04 159.833 1024.13 159.833H1042.96C1043.29 159.833 1043.61 160 1043.79 160.278L1051.14 171.302C1051.36 171.626 1051.37 172.045 1051.16 172.377L1044.79 182.853C1044.61 183.151 1044.28 183.333 1043.93 183.333H1031.28C1030.62 183.333 1030.15 183.944 1030.3 184.575L1037.35 212.772C1037.44 213.119 1037.71 213.393 1038.05 213.491L1047.64 216.232C1047.87 216.297 1048.07 216.44 1048.2 216.635L1063.2 238.891C1063.38 239.167 1063.69 239.333 1064.03 239.333H1071.19C1071.39 239.333 1071.58 239.393 1071.75 239.506L1082.07 246.54C1082.33 246.724 1082.68 246.765 1082.98 246.65L1093.37 242.756C1093.95 242.536 1094.59 242.903 1094.7 243.52L1099.92 273.407C1099.97 273.678 1099.9 273.958 1099.73 274.179L1082.48 297.181Z" fill="#FFE801" stroke="#C79B2F"/>
<path d="M895.778 254.803C895.143 254.57 894.917 253.787 895.332 253.252L909.657 234.768C909.867 234.497 910.201 234.352 910.542 234.385L920.25 235.309C920.41 235.325 920.572 235.301 920.722 235.24L933.626 229.983C933.862 229.886 934.053 229.703 934.159 229.47L936.199 224.982C936.376 224.594 936.78 224.36 937.205 224.401L993.728 229.807C993.903 229.824 994.078 229.795 994.237 229.722L1004.66 224.983C1004.88 224.886 1005.12 224.867 1005.34 224.93L1022.15 229.599C1022.64 229.733 1022.94 230.202 1022.88 230.698L1021.55 240.458C1021.51 240.699 1021.57 240.945 1021.7 241.148L1032.07 256.692C1032.32 257.07 1032.28 257.569 1031.98 257.909L1005.79 287.495C1005.6 287.71 1005.33 287.833 1005.04 287.833H942.975C942.671 287.833 942.384 287.695 942.194 287.457L924.669 265.551C924.555 265.408 924.404 265.299 924.232 265.237L895.778 254.803Z" fill="#FFE801" stroke="#C79B2F"/>
<path d="M793.83 203.869C793.612 203.845 793.408 203.751 793.249 203.601L775.307 186.629C775.107 186.44 774.994 186.177 774.994 185.902V170.374C774.994 170.036 775.165 169.721 775.448 169.537L786.041 162.629C786.324 162.444 786.494 162.129 786.494 161.791V127.775C786.494 127.493 786.375 127.225 786.167 127.035L759.157 102.481C759.05 102.383 758.965 102.264 758.909 102.13L753.528 89.4116C753.506 89.3591 753.479 89.3085 753.448 89.2605L735.93 62.0106C735.676 61.6149 735.732 61.0954 736.064 60.7627L743.227 53.5997C743.64 53.1865 744.318 53.2141 744.697 53.6595L774.567 88.829C774.826 89.1345 774.878 89.5652 774.699 89.9236L768.851 101.62C768.642 102.037 768.749 102.543 769.109 102.839L776.176 108.659C776.62 109.025 777.28 108.941 777.619 108.477L785.878 97.1761C786.214 96.7163 786.865 96.6295 787.31 96.9852L795.528 103.56C796.026 103.958 796.763 103.796 797.048 103.226L800.498 96.3262C800.763 95.7951 801.43 95.611 801.93 95.9307L818.863 106.749C818.95 106.804 819.028 106.873 819.094 106.953L838.264 130.055C838.413 130.234 838.494 130.46 838.494 130.694V156.447C838.494 156.695 838.586 156.934 838.753 157.118L876.084 198.379C876.336 198.657 876.411 199.054 876.277 199.405L871.35 212.394C871.154 212.912 871.416 213.491 871.934 213.685L902.73 225.233C902.903 225.298 903.054 225.41 903.168 225.556L909.518 233.72C909.798 234.08 909.799 234.585 909.519 234.946L894.494 254.333L879.089 272.626C878.753 273.025 878.167 273.099 877.743 272.796L868.413 266.132C868.15 265.944 867.994 265.641 867.994 265.318V260.896C867.994 260.347 868.437 259.9 868.986 259.896L875.503 259.841C876.052 259.836 876.494 259.39 876.494 258.841V251.833C876.494 251.28 876.047 250.833 875.494 250.833H868.994C868.442 250.833 867.994 250.385 867.994 249.833V239.227C867.994 238.974 867.898 238.73 867.725 238.544L840.248 209.105C840.084 208.929 839.863 208.819 839.624 208.793L793.83 203.869Z" fill="#FFE801" stroke="#C79B2F"/>
<path d="M801.06 95.3764C801.016 95.3473 800.975 95.3148 800.936 95.2791L794.782 89.5978C794.597 89.4273 794.355 89.3326 794.103 89.3326H784.963C784.666 89.3326 784.384 89.2008 784.194 88.9728L770.861 72.9728C770.318 72.3215 770.782 71.3326 771.629 71.3326H788.139C788.369 71.3326 788.592 71.4117 788.77 71.5565L800.823 81.35C801.662 82.0316 802.836 81.0822 802.345 80.1194L792.253 60.3393C792.093 60.0252 792.11 59.6498 792.298 59.3515L805.586 38.2734C805.993 37.6277 806.944 37.6577 807.31 38.3278L809.275 41.9298C809.414 42.1856 809.658 42.3677 809.943 42.4288L815.285 43.5735C815.907 43.7069 816.494 43.2323 816.494 42.5957V37.294C816.494 37.0013 816.623 36.7232 816.845 36.5332L832.972 22.7779C833.287 22.5096 833.734 22.4625 834.098 22.6594L844.971 28.549C845.293 28.7238 845.494 29.0613 845.494 29.4283V33.0406C845.494 33.5047 845.814 33.9078 846.265 34.014L852.765 35.5435C853.393 35.6912 853.994 35.2149 853.994 34.57V27.8326C853.994 27.2804 854.442 26.8326 854.994 26.8326H863.208C863.395 26.8326 863.579 26.8853 863.738 26.9846L891.024 44.0389C891.317 44.2216 891.494 44.5421 891.494 44.8869V78.8927C891.494 79.173 891.612 79.4405 891.819 79.6299L897.17 84.5354C897.377 84.7248 897.494 84.9922 897.494 85.2725V101.164C897.494 101.569 897.251 101.934 896.877 102.088L884.291 107.296C883.656 107.559 883.47 108.369 883.926 108.883L902.085 129.371C902.336 129.654 902.406 130.054 902.265 130.406L897.948 141.199C897.713 141.785 897.001 142.01 896.472 141.664L884.947 134.129C884.665 133.944 884.494 133.629 884.494 133.292V127.333C884.494 127.018 884.346 126.721 884.094 126.533L877.484 121.575C876.975 121.193 876.243 121.378 875.976 121.956L870.601 133.602C870.531 133.753 870.5 133.92 870.511 134.086L871.48 149.111C871.489 149.257 871.531 149.399 871.601 149.527L882.907 170.174C882.965 170.279 883.041 170.373 883.132 170.451L915.147 198.033C915.368 198.223 915.494 198.5 915.494 198.791V222.379C915.494 222.913 915.914 223.353 916.447 223.378L935.021 224.262C935.727 224.296 936.177 225.032 935.884 225.675L934.157 229.475C934.052 229.705 933.865 229.887 933.631 229.984L922.179 234.756C922.057 234.807 921.926 234.833 921.794 234.833H910.979C910.673 234.833 910.384 234.692 910.194 234.452L903.167 225.551C903.054 225.408 902.904 225.299 902.733 225.235L871.945 213.689C871.423 213.493 871.162 212.907 871.366 212.387L876.271 199.902C876.408 199.553 876.338 199.156 876.089 198.874L838.737 156.608C838.58 156.43 838.492 156.203 838.487 155.966L838.001 131.669C837.997 131.451 837.921 131.24 837.785 131.069L819.092 107.456C819.027 107.374 818.95 107.303 818.863 107.245L801.06 95.3764Z" fill="#FFE801" stroke="#C79B2F"/>
<path d="M891.494 56.992C891.494 56.592 891.733 56.2305 892.1 56.0729L898.068 53.5153C898.338 53.3995 898.646 53.4085 898.909 53.5401L949.047 78.609C949.329 78.7498 949.527 79.0149 949.584 79.3246L950.478 84.2439C950.489 84.3029 950.494 84.3628 950.494 84.4228V91.2893C950.494 91.6282 950.666 91.9439 950.95 92.1283L968.539 103.537C968.823 103.721 968.994 104.037 968.994 104.376V114.973C968.994 115.205 969.076 115.431 969.224 115.61L980.765 129.555C980.913 129.735 980.994 129.96 980.994 130.193V147.074C980.994 147.522 981.293 147.916 981.726 148.037L1022.02 159.282C1022.82 159.506 1023.02 160.555 1022.35 161.05L1001.35 176.571C1001.12 176.738 1000.84 176.802 1000.56 176.748L976.302 171.991C975.833 171.899 975.494 171.488 975.494 171.01V162.833C975.494 162.28 975.047 161.833 974.494 161.833H955.718C955.571 161.833 955.425 161.865 955.292 161.928L947.327 165.676C947.112 165.777 946.869 165.799 946.639 165.736L917.641 157.872C917.544 157.846 917.443 157.835 917.343 157.838L890.255 158.823C890.084 158.829 889.914 158.792 889.762 158.713L871.999 149.592C871.686 149.431 871.48 149.118 871.458 148.767L870.511 134.086C870.5 133.92 870.531 133.753 870.601 133.602L875.976 121.956C876.243 121.378 876.975 121.193 877.484 121.575L884.094 126.533C884.346 126.721 884.494 127.018 884.494 127.333V133.292C884.494 133.629 884.665 133.944 884.947 134.129L896.472 141.664C897.001 142.01 897.713 141.785 897.948 141.199L902.265 130.406C902.406 130.054 902.336 129.654 902.085 129.371L883.926 108.883C883.47 108.369 883.656 107.559 884.291 107.296L896.877 102.088C897.251 101.934 897.494 101.569 897.494 101.164V85.2725C897.494 84.9922 897.377 84.7248 897.17 84.5354L891.819 79.6299C891.612 79.4405 891.494 79.173 891.494 78.8927V56.992Z" fill="#FFE801" stroke="#C79B2F"/>
<path d="M890.255 158.823C890.084 158.829 889.914 158.792 889.762 158.713L874.394 150.822C873.517 150.371 872.586 151.327 873.06 152.191L882.907 170.174C882.965 170.279 883.041 170.373 883.132 170.451L915.147 198.033C915.368 198.223 915.494 198.5 915.494 198.791V222.379C915.494 222.913 915.914 223.353 916.447 223.378L936.494 224.333L993.728 229.807C993.903 229.824 994.078 229.795 994.237 229.722L1004.66 224.983C1004.88 224.886 1005.12 224.867 1005.34 224.93L1022.99 229.833L1028.75 230.718C1029.19 230.786 1029.62 230.552 1029.81 230.145L1037.35 213.651C1037.44 213.445 1037.46 213.213 1037.41 212.993L1030.3 184.575C1030.15 183.944 1030.62 183.333 1031.28 183.333H1043.93C1044.28 183.333 1044.61 183.151 1044.79 182.853L1051.16 172.377C1051.37 172.045 1051.36 171.626 1051.14 171.302L1043.79 160.278C1043.61 160 1043.29 159.833 1042.96 159.833H1024.32C1024.11 159.833 1023.9 159.901 1023.73 160.028L1001.35 176.571C1001.12 176.738 1000.84 176.802 1000.56 176.748L976.302 171.991C975.833 171.899 975.494 171.488 975.494 171.01V162.833C975.494 162.28 975.047 161.833 974.494 161.833H955.852C955.707 161.833 955.564 161.864 955.432 161.925L947.325 165.68C947.111 165.778 946.87 165.799 946.643 165.737L917.641 157.872C917.544 157.846 917.443 157.835 917.343 157.838L890.255 158.823Z" fill="#FFE801" stroke="#C79B2F"/>
<path d="M720.698 623.359C720.572 623.032 720.625 622.663 720.839 622.386L728.786 612.103C728.921 611.928 728.994 611.713 728.994 611.491V590.281C728.994 589.75 729.411 589.311 729.942 589.283L747.558 588.356C747.836 588.341 748.096 588.211 748.274 587.997L759.202 574.883C759.732 574.248 760.76 574.493 760.945 575.3L765.875 596.81C765.949 597.137 765.856 597.479 765.626 597.722L757.132 606.688C757.041 606.783 756.932 606.86 756.812 606.914L752.873 608.664C752.63 608.772 752.441 608.972 752.346 609.219L750.104 615.048C750.033 615.233 749.907 615.394 749.744 615.508L745.421 618.534C745.154 618.721 744.994 619.027 744.994 619.353V636.797C744.994 637.132 744.827 637.444 744.549 637.63L731.031 646.642C730.499 646.996 729.775 646.767 729.544 646.171L720.698 623.359Z" fill="#7F64B8" stroke="#42285B"/>
<path d="M460.494 367.615C460.494 367.43 460.545 367.249 460.642 367.092L483.391 330C483.459 329.89 483.548 329.793 483.653 329.716L526.292 298.481C526.425 298.383 526.579 298.32 526.742 298.297L582.022 290.4C582.321 290.357 582.623 290.452 582.844 290.657L595.991 302.866C596.294 303.147 596.394 303.585 596.237 303.967C595.157 306.606 593.231 310.964 592.494 311.333C591.751 311.704 588.358 314.12 586.411 315.53C586.149 315.72 585.996 316.025 586 316.349L586.489 359.873C586.492 360.165 586.623 360.441 586.847 360.628L604.801 375.671C604.928 375.777 605.026 375.913 605.088 376.066L610.792 390.326C610.918 390.642 610.875 391 610.678 391.277L593.073 416.019C592.753 416.469 592.858 417.092 593.307 417.413L602.641 424.08C602.867 424.241 603.015 424.488 603.051 424.763L609.494 473.333L610.317 478.681C610.41 479.286 609.942 479.833 609.329 479.833H583.882C583.633 479.833 583.392 479.739 583.208 479.571L555.565 454.354C555.229 454.047 554.728 454.006 554.346 454.254L545.243 460.171C545.081 460.277 544.891 460.333 544.698 460.333H495.452C495.162 460.333 494.885 460.206 494.695 459.986L460.737 420.614C460.58 420.433 460.494 420.201 460.494 419.961V367.833V367.615Z" fill="#7F64B8" stroke="#42285B"/>
<path d="M700.765 344.833C701.534 344.833 702.015 344 701.631 343.334L693.367 328.979C693.146 328.596 692.699 328.403 692.268 328.505L672.431 333.229C672.153 333.295 671.86 333.239 671.626 333.075L652.432 319.639C652.158 319.447 651.808 319.405 651.497 319.526L627.907 328.673C627.644 328.775 627.351 328.761 627.098 328.635L593.024 311.597C592.697 311.434 592.308 311.462 592.007 311.67L586.431 315.53C586.158 315.719 585.997 316.032 586 316.364L586.489 359.873C586.492 360.165 586.623 360.441 586.847 360.628L604.862 375.722C604.95 375.795 605.049 375.853 605.156 375.893L649.013 392.154C649.315 392.266 649.653 392.226 649.92 392.045L667.724 380.015C667.9 379.897 668.109 379.837 668.321 379.845L706.962 381.276C707.684 381.303 708.195 380.579 707.928 379.907L694.538 346.202C694.277 345.545 694.761 344.833 695.468 344.833H700.765Z" fill="#7F64B8" stroke="#42285B"/>
<path d="M707.894 381.31C708.263 381.324 708.595 381.54 708.757 381.873L733.404 432.647C733.464 432.77 733.547 432.878 733.65 432.967L755.029 451.431C755.315 451.677 755.714 451.743 756.063 451.599L773.149 444.59C773.91 444.277 774.702 444.967 774.497 445.764L766.555 476.596C766.515 476.751 766.438 476.895 766.331 477.015L718.25 530.548C718.086 530.731 717.994 530.969 717.994 531.216V562.215C717.994 562.593 717.78 562.94 717.442 563.109L701.59 571.035C701.229 571.215 700.795 571.161 700.49 570.898L682.994 555.833L664.865 541.133C664.63 540.943 664.494 540.658 664.494 540.356V510.747C664.494 510.482 664.6 510.227 664.787 510.04L676.201 498.626C676.389 498.438 676.494 498.184 676.494 497.918V480.43C676.494 480.062 676.292 479.724 675.968 479.549L663.716 472.952C663.571 472.874 663.408 472.833 663.242 472.833H610.36C609.863 472.833 609.442 472.467 609.371 471.975L602.553 424.742C602.516 424.48 602.375 424.243 602.164 424.085L593.275 417.418C592.84 417.092 592.745 416.48 593.06 416.038L610.678 391.277C610.875 391 610.918 390.642 610.792 390.326L605.831 377.925C605.509 377.12 606.294 376.315 607.107 376.616L649.013 392.154C649.315 392.266 649.653 392.226 649.92 392.045L667.724 380.015C667.9 379.897 668.109 379.837 668.321 379.845L707.894 381.31Z" fill="#8163B8" stroke="#42285B"/>
<path d="M584.22 479.833C583.787 479.833 583.403 480.111 583.269 480.522L575.646 503.868C575.55 504.161 575.595 504.482 575.768 504.738L588.809 524.058C588.929 524.236 588.989 524.449 588.979 524.664L586.046 588.219C586.018 588.813 586.513 589.3 587.107 589.263L609.618 587.856C609.861 587.841 610.1 587.914 610.292 588.063L620.724 596.124C620.899 596.259 621.114 596.333 621.336 596.333H644.275C644.42 596.333 644.562 596.301 644.693 596.241L681.926 579.094C682.274 578.934 682.499 578.59 682.508 578.207L682.984 555.833C682.99 555.518 682.849 555.218 682.601 555.024L664.877 541.133C664.636 540.943 664.494 540.653 664.494 540.346V510.747C664.494 510.482 664.6 510.227 664.787 510.04L676.201 498.626C676.389 498.438 676.494 498.184 676.494 497.918V480.43C676.494 480.062 676.292 479.724 675.968 479.549L663.716 472.952C663.571 472.874 663.408 472.833 663.242 472.833H610.647C610.039 472.833 609.571 473.372 609.657 473.974L610.331 478.691C610.417 479.294 609.95 479.833 609.341 479.833H584.22Z" fill="#8163B8" stroke="#42285B"/>
<path d="M586.051 590.325C586.019 589.776 586.438 589.305 586.987 589.271L609.618 587.856C609.861 587.841 610.1 587.914 610.292 588.063L620.724 596.124C620.899 596.259 621.114 596.333 621.336 596.333H644.275C644.42 596.333 644.562 596.301 644.693 596.241L681.926 579.094C682.274 578.934 682.499 578.59 682.508 578.207L682.948 557.497C682.966 556.644 683.975 556.204 684.612 556.771L700.488 570.883C700.794 571.155 701.234 571.213 701.6 571.03L716.842 563.409C717.426 563.117 718.129 563.454 718.267 564.092L721.863 580.727C721.944 581.098 721.807 581.482 721.511 581.72L692.295 605.092C692.102 605.247 691.972 605.468 691.933 605.713L687.056 635.949C687.016 636.196 686.886 636.419 686.69 636.574L675.157 645.703C675.05 645.789 674.961 645.895 674.896 646.016L659.629 674.58C659.541 674.745 659.408 674.882 659.246 674.975L639.726 686.2C639.574 686.287 639.402 686.333 639.227 686.333H602.742C602.298 686.333 601.908 686.041 601.783 685.616L589.027 642.444C589.005 642.37 588.992 642.294 588.988 642.217L586.051 590.325Z" fill="#7F64B8" stroke="#42285B"/>
<path d="M484.494 120.505C484.494 119.89 485.045 119.421 485.652 119.518L496.916 121.32C496.968 121.328 497.021 121.333 497.074 121.333H517.569C517.841 121.333 518.101 121.443 518.289 121.639L530.694 134.503C531.116 134.941 531.053 135.651 530.56 136.008L513.861 148.068C513.628 148.236 513.334 148.296 513.054 148.232L502.71 145.882C502.568 145.849 502.421 145.848 502.278 145.879L496.105 147.202C495.731 147.282 495.345 147.142 495.109 146.842L490.046 140.398C490.012 140.355 489.974 140.314 489.932 140.276L484.822 135.63C484.613 135.441 484.494 135.172 484.494 134.89V120.505Z" fill="#229DDC" stroke="#0A6AAE"/>
<path d="M466.881 185.433C466.956 185.366 467.041 185.312 467.132 185.27L471.863 183.119C472.243 182.947 472.69 183.028 472.984 183.323L478.463 188.802C478.778 189.116 478.847 189.601 478.632 189.991L473.68 198.994C473.561 199.212 473.364 199.377 473.129 199.458L458.819 204.377C458.17 204.6 457.494 204.118 457.494 203.431V200.973C457.494 200.88 457.481 200.787 457.456 200.698L455.608 194.231C455.535 193.976 455.567 193.702 455.695 193.471L457.709 189.847C457.885 189.53 458.22 189.333 458.583 189.333H462.114C462.359 189.333 462.595 189.243 462.778 189.08L466.881 185.433Z" fill="#229DDC"/>
<path d="M481.952 181.897C481.98 181.854 482.012 181.814 482.046 181.776L491.257 171.728C491.873 171.055 492.994 171.491 492.994 172.403V199.432C492.994 199.689 493.093 199.936 493.271 200.122L502.751 210.054C503.153 210.475 503.112 211.147 502.664 211.517L495.271 217.605C495.092 217.752 494.867 217.833 494.636 217.833H478.661C478.257 217.833 477.893 217.59 477.738 217.217L473.293 206.551C473.118 206.128 473.251 205.64 473.617 205.366L480.594 200.133C480.846 199.944 480.994 199.647 480.994 199.333V183.635C480.994 183.438 481.053 183.245 481.162 183.081L481.952 181.897Z" fill="#229DDC"/>
<path d="M466.881 185.433C466.956 185.366 467.041 185.312 467.132 185.27L471.863 183.119C472.243 182.947 472.69 183.028 472.984 183.323L478.463 188.802C478.778 189.116 478.847 189.601 478.632 189.991L473.68 198.994C473.561 199.212 473.364 199.377 473.129 199.458L458.819 204.377C458.17 204.6 457.494 204.118 457.494 203.431V200.973C457.494 200.88 457.481 200.787 457.456 200.698L455.608 194.231C455.535 193.976 455.567 193.702 455.695 193.471L457.709 189.847C457.885 189.53 458.22 189.333 458.583 189.333H462.114C462.359 189.333 462.595 189.243 462.778 189.08L466.881 185.433Z" stroke="#0A6AAE"/>
<path d="M481.952 181.897C481.98 181.854 482.012 181.814 482.046 181.776L491.257 171.728C491.873 171.055 492.994 171.491 492.994 172.403V199.432C492.994 199.689 493.093 199.936 493.271 200.122L502.751 210.054C503.153 210.475 503.112 211.147 502.664 211.517L495.271 217.605C495.092 217.752 494.867 217.833 494.636 217.833H478.661C478.257 217.833 477.893 217.59 477.738 217.217L473.293 206.551C473.118 206.128 473.251 205.64 473.617 205.366L480.594 200.133C480.846 199.944 480.994 199.647 480.994 199.333V183.635C480.994 183.438 481.053 183.245 481.162 183.081L481.952 181.897Z" stroke="#0A6AAE"/>
<path d="M513.162 283.666C512.766 283.468 512.547 283.034 512.624 282.598L518.358 250.105C518.438 249.651 518.817 249.311 519.276 249.281L532.972 248.367C533.299 248.346 533.595 248.165 533.763 247.884L539.258 238.727C539.408 238.477 539.441 238.173 539.349 237.896L537.433 232.149C537.217 231.501 537.699 230.833 538.382 230.833H549.832C549.94 230.833 550.046 230.815 550.148 230.781L552.751 229.914C553.502 229.663 553.678 228.679 553.059 228.184L544.721 221.514C544.573 221.395 544.462 221.238 544.4 221.059L539.74 207.545C539.595 207.124 539.746 206.656 540.112 206.4L543.881 203.762C544.245 203.508 544.732 203.523 545.079 203.8L551.189 208.688C551.629 209.041 552.275 208.959 552.613 208.507L557.643 201.801C557.86 201.512 558.216 201.362 558.575 201.41L564.414 202.189C564.995 202.266 565.385 202.824 565.258 203.397L563.576 210.966C563.523 211.202 563.558 211.45 563.674 211.662L569.309 221.994C569.428 222.212 569.624 222.378 569.859 222.459L580.61 226.199C580.857 226.285 581.06 226.463 581.176 226.696L586.813 237.97C586.929 238.203 587.132 238.381 587.377 238.467L606.692 245.227C606.889 245.296 607.059 245.424 607.179 245.594L612.545 253.196C612.809 253.571 612.786 254.076 612.488 254.424L610.52 256.719C610.213 257.077 610.198 257.601 610.484 257.976L626.273 278.727C626.774 279.385 626.304 280.333 625.477 280.333H621.267C620.812 280.333 620.414 280.64 620.299 281.08L617.689 291.085C617.574 291.525 617.177 291.833 616.722 291.833H613.994C613.442 291.833 612.994 291.385 612.994 290.833V275.803C612.994 275.505 612.861 275.223 612.632 275.033L587.98 254.648C587.479 254.233 586.722 254.4 586.441 254.985L581.176 265.954C581.06 266.196 580.851 266.381 580.596 266.468L555.173 275.102C554.767 275.24 554.494 275.621 554.494 276.049V288.333C554.494 288.885 554.047 289.333 553.494 289.333H524.73C524.575 289.333 524.422 289.296 524.283 289.227L513.162 283.666Z" fill="#229DDC" stroke="#0A6AAE"/>
<path d="M565.494 202.333L569.465 181.984C569.484 181.884 569.519 181.787 569.568 181.697L584.547 154.155C584.799 153.692 585.366 153.504 585.844 153.725L591.036 156.121C591.324 156.254 591.532 156.516 591.596 156.827L594.879 172.773C594.951 173.12 595.2 173.403 595.534 173.518L611.642 179.04C612.126 179.206 612.407 179.712 612.292 180.211L609.546 192.108C609.512 192.256 609.512 192.41 609.546 192.558L613.865 211.273C613.945 211.62 613.835 211.982 613.576 212.226L606.394 218.986C605.931 219.422 605.987 220.174 606.51 220.536L618.064 228.534C618.333 228.721 618.494 229.028 618.494 229.357V240.622C618.494 241.047 618.225 241.426 617.823 241.566L607.324 245.218C607.11 245.292 606.878 245.292 606.665 245.217L587.377 238.467C587.132 238.381 586.929 238.203 586.813 237.97L581.176 226.696C581.06 226.463 580.857 226.285 580.61 226.199L569.859 222.459C569.624 222.378 569.428 222.212 569.309 221.994L563.674 211.662C563.558 211.45 563.523 211.202 563.576 210.966L565.494 202.333Z" fill="#229DDC" stroke="#0A6AAE"/>
<path d="M562.043 126.966C561.726 126.599 561.716 126.058 562.021 125.682L569.772 116.108C569.916 115.93 569.994 115.708 569.994 115.479V92.1641C569.994 91.9489 570.064 91.7394 570.192 91.5668L586.904 69.1257C587.231 68.6863 587.851 68.592 588.294 68.9142L592.494 71.9691C592.801 72.1919 593.207 72.2225 593.543 72.0481L646.482 44.5982C646.799 44.4338 647.18 44.4509 647.481 44.643L669.56 58.7361C670.06 59.0551 670.174 59.7365 669.805 60.2009L657.211 76.0595C657.071 76.2364 656.994 76.4556 656.994 76.6814V105.671C656.994 106.283 656.451 106.751 655.846 106.66L647.422 105.397C647.149 105.356 646.871 105.429 646.655 105.6L630.683 118.184C630.559 118.282 630.46 118.408 630.394 118.551L619.262 142.751C619.099 143.105 618.744 143.333 618.354 143.333H610.345C610.118 143.333 609.898 143.41 609.72 143.552L598.589 152.457C598.053 152.886 597.254 152.659 597.023 152.012L588.044 126.872C587.793 126.168 586.886 125.979 586.374 126.523L579.79 133.518C579.601 133.719 579.338 133.833 579.062 133.833H568.451C568.161 133.833 567.885 133.707 567.695 133.488L562.043 126.966Z" fill="#229DDC" stroke="#0A6AAE"/>
<path d="M612.494 179.333L617.994 179.833L623.367 176.251C623.738 176.003 624.229 176.032 624.569 176.321L633.642 184.033C633.866 184.223 633.994 184.502 633.994 184.795V196.092C633.994 196.532 634.282 196.92 634.703 197.048L644.808 200.124C645.218 200.249 645.503 200.621 645.516 201.05L645.975 216.19C645.987 216.581 646.226 216.93 646.588 217.081L660.881 223.075C661.253 223.231 661.494 223.595 661.494 223.998V242.374C661.494 242.665 661.621 242.942 661.842 243.132L678.795 257.73C679.19 258.07 679.257 258.657 678.95 259.078L670.04 271.27C670.01 271.312 669.976 271.351 669.94 271.387L669.591 271.736C669.527 271.8 669.454 271.855 669.376 271.9L658.223 278.203C658.073 278.288 657.904 278.333 657.731 278.333H653.123C652.523 278.333 652.058 278.857 652.13 279.453L653.951 294.477C653.979 294.707 653.926 294.939 653.802 295.135L647.31 305.337C647.115 305.643 646.77 305.819 646.408 305.798L639.855 305.413C639.181 305.373 638.739 304.69 638.98 304.058L642.288 295.374C642.416 295.039 642.354 294.662 642.128 294.384L633.72 284.109C633.574 283.93 633.494 283.707 633.494 283.476V273.18C633.494 272.955 633.419 272.737 633.279 272.56L618.795 254.213C618.605 253.973 618.316 253.833 618.01 253.833H613.512C613.188 253.833 612.883 253.675 612.696 253.409L607.76 246.418C607.377 245.874 607.62 245.115 608.249 244.896L617.823 241.566C618.225 241.426 618.494 241.047 618.494 240.622V229.357C618.494 229.028 618.333 228.721 618.064 228.534L606.51 220.536C605.987 220.174 605.931 219.422 606.394 218.986L613.576 212.226C613.835 211.982 613.945 211.62 613.865 211.273L609.546 192.558C609.512 192.41 609.512 192.256 609.546 192.108L612.494 179.333Z" fill="#229DDC"/>
<path d="M612.494 179.333C614.642 179.528 617.994 179.833 617.994 179.833M612.494 179.333L609.546 192.108C609.512 192.256 609.512 192.41 609.546 192.558L613.865 211.273C613.945 211.62 613.835 211.982 613.576 212.226L606.394 218.986C605.931 219.422 605.987 220.174 606.51 220.536L618.064 228.534C618.333 228.721 618.494 229.028 618.494 229.357V240.622C618.494 241.047 618.225 241.426 617.823 241.566L608.249 244.896C607.62 245.115 607.377 245.874 607.76 246.418L612.696 253.409C612.883 253.675 613.188 253.833 613.512 253.833H618.01C618.316 253.833 618.605 253.973 618.795 254.213L633.279 272.56C633.419 272.737 633.494 272.955 633.494 273.18V283.476C633.494 283.707 633.574 283.93 633.72 284.109L642.128 294.385C642.354 294.662 642.416 295.039 642.288 295.374L638.98 304.058C638.739 304.69 639.181 305.373 639.855 305.413L646.408 305.798C646.77 305.819 647.115 305.643 647.31 305.337L653.802 295.135C653.926 294.939 653.979 294.707 653.951 294.477L652.13 279.453C652.058 278.857 652.523 278.333 653.123 278.333H657.731C657.904 278.333 658.073 278.288 658.223 278.203L669.376 271.9C669.454 271.855 669.527 271.8 669.591 271.736L669.94 271.387C669.976 271.351 670.01 271.312 670.04 271.27L678.95 259.078C679.257 258.657 679.19 258.07 678.795 257.73L661.842 243.132C661.621 242.942 661.494 242.665 661.494 242.374V223.998C661.494 223.595 661.253 223.231 660.881 223.075L646.588 217.081C646.226 216.93 645.987 216.581 645.975 216.19L645.516 201.05C645.503 200.621 645.218 200.249 644.808 200.124L634.703 197.048C634.282 196.92 633.994 196.532 633.994 196.092V184.795C633.994 184.502 633.866 184.223 633.642 184.033L624.569 176.321C624.229 176.032 623.738 176.003 623.367 176.251L617.994 179.833M612.494 179.333L617.994 179.833" stroke="#0A6AAE"/>
<path d="M669.972 59.9902C670.274 59.61 670.806 59.5016 671.232 59.7333L687.471 68.5488C687.794 68.7237 687.994 69.061 687.994 69.4276V78.8326C687.994 79.3849 687.547 79.8326 686.994 79.8326H673.428C672.733 79.8326 672.25 80.5255 672.49 81.1783L678.413 97.2549C678.675 97.9665 679.603 98.1387 680.103 97.5686L703.079 71.3766C703.529 70.8632 704.35 70.9423 704.694 71.5322L710.406 81.3242C710.715 81.8541 711.424 81.9833 711.9 81.5964L718.28 76.4131C718.684 76.0851 719.272 76.1214 719.632 76.4967L730.717 88.0439C730.895 88.2293 731.137 88.339 731.394 88.3504L752.864 89.3046C753.249 89.3217 753.59 89.5588 753.74 89.914L758.909 102.13C758.965 102.264 759.05 102.383 759.157 102.481L786.167 127.035C786.375 127.225 786.494 127.493 786.494 127.775V161.07C786.494 161.417 786.314 161.74 786.019 161.922L774.47 169.04C774.174 169.222 773.994 169.544 773.994 169.891V185.902C773.994 186.177 774.108 186.44 774.308 186.629L791.681 203.037C791.881 203.226 791.994 203.489 791.994 203.764V215.827C791.994 216.145 791.843 216.444 791.588 216.632L782.759 223.138C782.587 223.264 782.379 223.333 782.166 223.333H765.037C764.699 223.333 764.383 223.504 764.199 223.788L758.277 232.898C758.1 233.17 758.066 233.512 758.187 233.814L763.446 246.961C763.709 247.618 763.225 248.333 762.517 248.333H755.072C754.715 248.333 754.384 248.523 754.206 248.833L747.308 260.789C747.116 261.122 747.131 261.534 747.347 261.851L763.752 285.977C763.907 286.204 763.961 286.485 763.902 286.753L760.97 300.157C760.786 301 759.692 301.23 759.185 300.532L752.794 291.744C752.606 291.486 752.305 291.333 751.985 291.333H738.44C738.156 291.333 737.886 291.212 737.696 291.002L707.066 256.968C706.737 256.602 706.723 256.051 707.034 255.669L711.669 249.963C712.2 249.31 711.735 248.333 710.893 248.333H701.963C701.666 248.333 701.384 248.464 701.194 248.692L694.874 256.277C694.44 256.798 693.623 256.745 693.26 256.171L688.739 249.012C688.374 248.433 687.547 248.385 687.117 248.917L680.143 257.531C679.788 257.97 679.141 258.028 678.713 257.66L661.842 243.132C661.621 242.942 661.494 242.665 661.494 242.374V223.998C661.494 223.595 661.253 223.231 660.881 223.075L646.588 217.081C646.226 216.93 645.987 216.581 645.975 216.19L645.516 201.05C645.503 200.621 645.218 200.249 644.808 200.124L634.703 197.048C634.282 196.92 633.994 196.532 633.994 196.092V184.795C633.994 184.502 633.866 184.223 633.642 184.033L625.2 176.857C624.64 176.382 624.767 175.485 625.437 175.183L643.799 166.921C643.928 166.863 644.067 166.833 644.209 166.833H653.005C653.716 166.833 654.199 166.112 653.93 165.454L650.28 156.531C650.111 156.118 650.237 155.642 650.588 155.366L656.722 150.546C656.899 150.408 657.116 150.333 657.34 150.333H661.024C661.565 150.333 662.007 149.906 662.023 149.365C662.185 143.641 662.372 133.833 661.994 133.833C661.604 133.833 655.163 138.268 651.751 140.653C651.583 140.771 651.384 140.833 651.179 140.833H640.357C639.97 140.833 639.617 140.609 639.452 140.258L635.84 132.569C635.639 132.14 635.766 131.629 636.146 131.344L657.094 115.633C657.346 115.444 657.494 115.147 657.494 114.833V105.833L657 76.6909C656.996 76.4593 657.073 76.2335 657.217 76.0521L669.972 59.9902Z" fill="#229DDC" stroke="#0A6AAE"/>
</svg>
