<svg width="49" height="48" viewBox="0 0 49 48" fill="none" xmlns="http://www.w3.org/2000/svg">
<path d="M11.8117 14.5326C11.8866 14.466 11.9711 14.4111 12.0623 14.3696L16.7938 12.219C17.1733 12.0465 17.62 12.1275 17.9147 12.4222L23.3937 17.9012C23.7083 18.2158 23.7772 18.7004 23.5628 19.0902L18.6107 28.0939C18.491 28.3116 18.2945 28.4769 18.0596 28.5577L3.74976 33.4767C3.10055 33.6999 2.42468 33.2175 2.42468 32.531V30.0722C2.42468 29.9793 2.41173 29.8869 2.38621 29.7975L0.538476 23.3305C0.465615 23.0755 0.497042 22.8019 0.625842 22.5701L2.63893 18.9465C2.8153 18.6291 3.14992 18.4322 3.51309 18.4322H7.04448C7.2894 18.4322 7.5258 18.3423 7.70885 18.1796L11.8117 14.5326Z" fill="#229DDC"/>
<path d="M26.8819 10.9964C26.9104 10.9536 26.9421 10.9132 26.9768 10.8753L36.1875 0.827268C36.8038 0.154977 37.9247 0.590983 37.9247 1.50299V28.5315C37.9247 28.7887 38.0238 29.036 38.2013 29.222L47.6817 39.1538C48.0829 39.5742 48.0426 40.2468 47.5941 40.6162L40.2016 46.7041C40.0226 46.8516 39.7979 46.9322 39.5659 46.9322H23.5913C23.1876 46.9322 22.8235 46.6895 22.6683 46.3168L18.2238 35.6501C18.0479 35.2279 18.1809 34.74 18.5469 34.4655L25.5247 29.2322C25.7765 29.0433 25.9247 28.7469 25.9247 28.4322V12.735C25.9247 12.5375 25.9831 12.3445 26.0926 12.1803L26.8819 10.9964Z" fill="#229DDC"/>
<path d="M11.8117 14.5326C11.8866 14.466 11.9711 14.4111 12.0623 14.3696L16.7938 12.219C17.1733 12.0465 17.62 12.1275 17.9147 12.4222L23.3937 17.9012C23.7083 18.2158 23.7772 18.7004 23.5628 19.0902L18.6107 28.0939C18.491 28.3116 18.2945 28.4769 18.0596 28.5577L3.74976 33.4767C3.10055 33.6999 2.42468 33.2175 2.42468 32.531V30.0722C2.42468 29.9793 2.41173 29.8869 2.38621 29.7975L0.538476 23.3305C0.465615 23.0755 0.497042 22.8019 0.625842 22.5701L2.63893 18.9465C2.8153 18.6291 3.14992 18.4322 3.51309 18.4322H7.04448C7.2894 18.4322 7.5258 18.3423 7.70885 18.1796L11.8117 14.5326Z" stroke="#0A6AAE"/>
<path d="M26.8819 10.9964C26.9104 10.9536 26.9421 10.9132 26.9768 10.8753L36.1875 0.827268C36.8038 0.154977 37.9247 0.590983 37.9247 1.50299V28.5315C37.9247 28.7887 38.0238 29.036 38.2013 29.222L47.6817 39.1538C48.0829 39.5742 48.0426 40.2468 47.5941 40.6162L40.2016 46.7041C40.0226 46.8516 39.7979 46.9322 39.5659 46.9322H23.5913C23.1876 46.9322 22.8235 46.6895 22.6683 46.3168L18.2238 35.6501C18.0479 35.2279 18.1809 34.74 18.5469 34.4655L25.5247 29.2322C25.7765 29.0433 25.9247 28.7469 25.9247 28.4322V12.735C25.9247 12.5375 25.9831 12.3445 26.0926 12.1803L26.8819 10.9964Z" stroke="#0A6AAE"/>
</svg>
