<svg width="48" height="30" viewBox="0 0 48 30" fill="none" xmlns="http://www.w3.org/2000/svg">
<path d="M0.5 1.50036C0.5 0.885044 1.05041 0.415702 1.65799 0.512915L12.9215 2.31508C12.9738 2.32344 13.0266 2.32764 13.0795 2.32764H33.5751C33.8466 2.32764 34.1065 2.43805 34.2949 2.6335L46.6998 15.4978C47.1222 15.9358 47.0587 16.6463 46.5654 17.0026L29.8664 29.063C29.6335 29.2312 29.3395 29.2911 29.0593 29.2275L18.7153 26.8766C18.5735 26.8443 18.4263 26.8434 18.2841 26.8739L12.1103 28.1969C11.7368 28.2769 11.3504 28.1372 11.1144 27.8369L6.05171 21.3935C6.0173 21.3497 5.97928 21.3088 5.93807 21.2713L0.827328 16.6252C0.618853 16.4357 0.5 16.167 0.5 15.8853V1.50036Z" fill="#229DDC" stroke="#0A6AAE"/>
</svg>
