<svg width="75" height="131" viewBox="0 0 75 131" fill="none" xmlns="http://www.w3.org/2000/svg">
<path d="M6.91479 3.74957L12.4148 4.24957L17.7872 0.667984C18.1587 0.420321 18.6493 0.448933 18.9895 0.738095L28.0624 8.45007C28.286 8.64007 28.4148 8.91864 28.4148 9.21201V20.5086C28.4148 20.9488 28.7026 21.3372 29.1236 21.4653L39.2282 24.5406C39.6385 24.6655 39.9235 25.0382 39.9365 25.467L40.3953 40.6065C40.4072 40.9982 40.6467 41.3468 41.0081 41.4984L55.3015 47.4924C55.673 47.6482 55.9148 48.0117 55.9148 48.4146V66.791C55.9148 67.0821 56.0417 67.3588 56.2623 67.5488L73.2152 82.1472C73.6103 82.4874 73.6777 83.074 73.3701 83.4949L64.4604 95.6871C64.43 95.7287 64.3965 95.7679 64.3601 95.8042L64.0112 96.1532C63.9472 96.2171 63.8749 96.2721 63.7961 96.3166L52.6438 102.62C52.4937 102.705 52.3242 102.75 52.1517 102.75H47.5433C46.9433 102.75 46.4784 103.274 46.5506 103.87L48.3717 118.894C48.3996 119.124 48.3469 119.356 48.2227 119.551L41.7304 129.754C41.5356 130.06 41.1902 130.236 40.828 130.215L34.276 129.83C33.6015 129.79 33.1597 129.107 33.4002 128.475L36.7087 119.791C36.8362 119.456 36.7749 119.079 36.5481 118.801L28.1408 108.526C27.9947 108.347 27.9148 108.123 27.9148 107.893V97.5967C27.9148 97.3719 27.839 97.1536 27.6997 96.9771L13.2151 78.6299C13.0254 78.3897 12.7362 78.2496 12.4302 78.2496H7.93295C7.60803 78.2496 7.30336 78.0917 7.11598 77.8263L2.18062 70.8345C1.79709 70.2912 2.04092 69.5318 2.66906 69.3133L12.2433 65.9831C12.6453 65.8433 12.9148 65.4643 12.9148 65.0386V53.7735C12.9148 53.4454 12.7538 53.1381 12.484 52.9513L0.930852 44.953C0.407727 44.5908 0.351376 43.8387 0.814698 43.4026L7.99665 36.6431C8.25559 36.3994 8.36563 36.0365 8.28568 35.6901L3.96669 16.9744C3.93254 16.8265 3.93254 16.6727 3.96669 16.5247L6.91479 3.74957Z" fill="#229DDC"/>
<path d="M6.91479 3.74957C9.06268 3.94483 12.4148 4.24957 12.4148 4.24957M6.91479 3.74957L3.96669 16.5247C3.93254 16.6727 3.93254 16.8265 3.96669 16.9744L8.28568 35.6901C8.36563 36.0365 8.25559 36.3994 7.99665 36.6431L0.814698 43.4026C0.351376 43.8387 0.407727 44.5908 0.930852 44.953L12.484 52.9513C12.7538 53.1381 12.9148 53.4454 12.9148 53.7735V65.0386C12.9148 65.4643 12.6453 65.8433 12.2433 65.9831L2.66906 69.3133C2.04092 69.5318 1.79709 70.2912 2.18062 70.8345L7.11598 77.8263C7.30336 78.0917 7.60803 78.2496 7.93295 78.2496H12.4302C12.7362 78.2496 13.0254 78.3897 13.2151 78.6299L27.6997 96.9771C27.839 97.1536 27.9148 97.3719 27.9148 97.5967V107.893C27.9148 108.123 27.9947 108.347 28.1408 108.526L36.5481 118.801C36.7749 119.079 36.8362 119.456 36.7087 119.791L33.4002 128.475C33.1597 129.107 33.6015 129.79 34.276 129.83L40.828 130.215C41.1902 130.236 41.5356 130.06 41.7304 129.754L48.2227 119.552C48.3469 119.356 48.3996 119.124 48.3717 118.894L46.5506 103.87C46.4784 103.274 46.9433 102.75 47.5433 102.75H52.1517C52.3242 102.75 52.4937 102.705 52.6438 102.62L63.7961 96.3166C63.8749 96.2721 63.9472 96.2171 64.0112 96.1532L64.3601 95.8042C64.3965 95.7678 64.43 95.7287 64.4604 95.6872L73.3701 83.495C73.6777 83.074 73.6103 82.4874 73.2152 82.1472L56.2623 67.5488C56.0417 67.3588 55.9148 67.0821 55.9148 66.791V48.4146C55.9148 48.0117 55.673 47.6482 55.3015 47.4924L41.0081 41.4984C40.6467 41.3468 40.4072 40.9982 40.3953 40.6065L39.9365 25.467C39.9235 25.0382 39.6385 24.6655 39.2282 24.5406L29.1236 21.4653C28.7026 21.3372 28.4148 20.9488 28.4148 20.5086V9.21201C28.4148 8.91864 28.286 8.64007 28.0624 8.45007L18.9895 0.738095C18.6493 0.448933 18.1587 0.420321 17.7872 0.667984L12.4148 4.24957M6.91479 3.74957L12.4148 4.24957" stroke="#0A6AAE"/>
</svg>
