<svg width="115" height="92" viewBox="0 0 115 92" fill="none" xmlns="http://www.w3.org/2000/svg">
<path d="M1.05283 82.765C0.65702 82.5671 0.438352 82.1326 0.515257 81.6968L6.24941 49.2033C6.3294 48.75 6.70843 48.4099 7.16767 48.3793L20.8637 47.4662C21.1907 47.4444 21.4862 47.2638 21.6547 46.9829L27.149 37.8258C27.2992 37.5755 27.3325 37.272 27.2402 36.9951L25.3244 31.2476C25.1085 30.6001 25.5905 29.9314 26.273 29.9314H37.7233C37.8308 29.9314 37.9376 29.9141 38.0396 29.8801L40.6418 29.0127C41.3936 28.7621 41.5691 27.7782 40.9503 27.2831L32.6119 20.6124C32.4641 20.4942 32.3529 20.3364 32.2912 20.1575L27.6314 6.64422C27.4859 6.22226 27.6377 5.75496 28.0033 5.499L31.7722 2.86081C32.1358 2.60626 32.6237 2.62188 32.9703 2.89917L39.08 7.78687C39.5208 8.13953 40.1659 8.05763 40.5047 7.60601L45.5341 0.900048C45.7512 0.610617 46.1077 0.461005 46.4663 0.50882L52.3051 1.28733C52.8862 1.36481 53.2763 1.92323 53.1492 2.49549L51.467 10.0651C51.4145 10.3012 51.4495 10.5484 51.5653 10.7608L57.2008 21.0926C57.3197 21.3106 57.5156 21.4766 57.7502 21.5582L68.5016 25.2978C68.7478 25.3835 68.9509 25.5619 69.0675 25.7951L74.7043 37.0687C74.8206 37.3013 75.0229 37.4794 75.2684 37.5654L94.5836 44.3257C94.78 44.3944 94.9501 44.5228 95.0702 44.6928L100.437 52.2952C100.701 52.6693 100.677 53.175 100.379 53.5227L98.4114 55.818C98.1047 56.1758 98.0894 56.6993 98.3748 57.0743L114.164 77.8259C114.665 78.4842 114.195 79.4314 113.368 79.4314H109.158C108.703 79.4314 108.305 79.7386 108.191 80.179L105.581 90.1838C105.466 90.6241 105.068 90.9314 104.613 90.9314H101.886C101.333 90.9314 100.886 90.4837 100.886 89.9314V74.9021C100.886 74.604 100.753 74.3214 100.523 74.1314L75.8711 53.7463C75.3702 53.3321 74.6135 53.4983 74.3323 54.0842L69.0675 65.0524C68.9512 65.2948 68.7421 65.4801 68.4876 65.5666L43.064 74.201C42.6584 74.3387 42.3856 74.7195 42.3856 75.1479V87.4314C42.3856 87.9837 41.9379 88.4314 41.3856 88.4314H12.6217C12.4664 88.4314 12.3133 88.3952 12.1745 88.3258L1.05283 82.765Z" fill="#229DDC" stroke="#0A6AAE"/>
</svg>
