<svg width="169" height="243" viewBox="0 0 169 243" fill="none" xmlns="http://www.w3.org/2000/svg">
<path d="M45.6249 0.878177C45.9269 0.497922 46.4583 0.389545 46.8851 0.621206L63.1242 9.43672C63.4464 9.61165 63.6471 9.94891 63.6471 10.3156V19.7206C63.6471 20.2729 63.1994 20.7206 62.6471 20.7206H49.0812C48.3855 20.7206 47.9024 21.4134 48.1429 22.0663L54.0658 38.1428C54.328 38.8544 55.2558 39.0266 55.7559 38.4565L78.7313 12.2646C79.1817 11.7512 80.0027 11.8302 80.3468 12.4201L86.0588 22.2121C86.368 22.7421 87.077 22.8713 87.5532 22.4844L93.9326 17.3011C94.3364 16.973 94.9243 17.0093 95.2846 17.3847L106.37 28.9319C106.548 29.1172 106.79 29.2269 107.047 29.2384L128.516 30.1926C128.902 30.2097 129.243 30.4468 129.393 30.8019L134.561 43.0181C134.618 43.1515 134.703 43.271 134.81 43.3684L161.82 67.923C162.028 68.1125 162.147 68.3812 162.147 68.6629V101.958C162.147 102.305 161.967 102.627 161.672 102.81L150.122 109.928C149.827 110.11 149.647 110.432 149.647 110.779V126.79C149.647 127.065 149.76 127.328 149.96 127.517L167.334 143.925C167.534 144.114 167.647 144.376 167.647 144.652V156.715C167.647 157.033 167.496 157.332 167.24 157.52L158.412 164.026C158.24 164.152 158.032 164.221 157.818 164.221H140.69C140.351 164.221 140.036 164.392 139.851 164.676L133.93 173.786C133.753 174.058 133.719 174.4 133.84 174.702L139.099 187.849C139.361 188.506 138.878 189.221 138.17 189.221H130.725C130.367 189.221 130.037 189.411 129.858 189.721L122.961 201.677C122.769 202.009 122.784 202.422 123 202.739L139.405 226.865C139.56 227.092 139.614 227.373 139.555 227.641L136.623 241.045C136.439 241.888 135.345 242.117 134.837 241.42L128.447 232.632C128.258 232.374 127.958 232.221 127.638 232.221H114.092C113.809 232.221 113.539 232.1 113.349 231.89L82.7193 197.856C82.3898 197.49 82.3759 196.939 82.6864 196.557L87.3222 190.851C87.8532 190.198 87.3882 189.221 86.5461 189.221H77.6155C77.3187 189.221 77.0372 189.352 76.8473 189.58L70.5269 197.165C70.0924 197.686 69.2757 197.632 68.9132 197.059L64.3921 189.9C64.0264 189.321 63.2002 189.273 62.7693 189.805L55.7957 198.419C55.4407 198.858 54.7935 198.916 54.3659 198.548L37.4946 184.02C37.274 183.83 37.1471 183.553 37.1471 183.262V164.886C37.1471 164.483 36.9053 164.119 36.5338 163.963L22.2404 157.969C21.879 157.818 21.6395 157.469 21.6276 157.077L21.1688 141.938C21.1558 141.509 20.8708 141.137 20.4605 141.012L10.3559 137.936C9.93487 137.808 9.64709 137.42 9.64709 136.98V125.683C9.64709 125.39 9.51827 125.111 9.29474 124.921L0.852545 117.745C0.292839 117.269 0.419947 116.373 1.08983 116.071L19.4514 107.809C19.5804 107.751 19.7203 107.721 19.8617 107.721H28.6576C29.3684 107.721 29.8522 107 29.5831 106.342L25.9329 97.4192C25.7637 97.0057 25.8894 96.5302 26.2406 96.2542L32.3751 91.4343C32.5513 91.2958 32.7689 91.2206 32.993 91.2206H36.6769C37.2174 91.2206 37.6601 90.7934 37.6754 90.2532C37.8378 84.5293 38.0248 74.7206 37.6471 74.7206C37.2571 74.7206 30.8154 79.1564 27.4039 81.541C27.2357 81.6585 27.037 81.7206 26.8319 81.7206H16.0099C15.6223 81.7206 15.2696 81.4966 15.1048 81.1458L11.4932 73.4574C11.2916 73.0283 11.419 72.5166 11.7983 72.2322L32.7471 56.5206C32.9989 56.3317 33.1471 56.0353 33.1471 55.7206V46.7206L32.6532 17.5788C32.6492 17.3472 32.7259 17.1214 32.8699 16.94L45.6249 0.878177Z" fill="#229DDC" stroke="#0A6AAE"/>
</svg>
