<svg width="191" height="227" viewBox="0 0 191 227" fill="none" xmlns="http://www.w3.org/2000/svg">
<path d="M111.856 7.80335C112.216 7.40385 112.827 7.36001 113.24 7.70409L121.14 14.288C121.368 14.478 121.5 14.7594 121.5 15.0562V27.7689C121.5 28.3212 121.052 28.7689 120.5 28.7689H116.5C115.948 28.7689 115.5 29.2166 115.5 29.7689V34.0878C115.5 34.6401 115.948 35.0878 116.5 35.0878H132.672C132.885 35.0878 133.093 35.156 133.264 35.2824L157.907 53.4159C158.568 53.9018 159.5 53.4303 159.5 52.6104V50.5878C159.5 50.0355 159.948 49.5878 160.5 49.5878H172.983C173.307 49.5878 173.611 49.7451 173.799 50.0098L190.316 73.3281C190.436 73.4971 190.5 73.699 190.5 73.9061V94.109C190.5 94.4118 190.363 94.6982 190.127 94.888L170.373 110.788C170.137 110.977 170 111.264 170 111.567V145.731C170 145.962 169.92 146.185 169.774 146.364L156.8 162.221C156.61 162.453 156.326 162.588 156.026 162.588H144.904C144.645 162.588 144.396 162.688 144.209 162.868L130.733 175.863C130.581 176.009 130.48 176.199 130.443 176.406L125.041 206.359C125.014 206.509 124.953 206.652 124.862 206.775L111.131 225.378C110.577 226.129 109.387 225.778 109.329 224.846L108.532 212.107C108.512 211.782 108.334 211.487 108.056 211.316L91.4621 201.176C90.9504 200.863 90.8271 200.174 91.1987 199.703L105.023 182.192C105.304 181.836 105.31 181.335 105.038 180.972L79.7 147.188C79.2056 146.529 79.676 145.588 80.5 145.588H82.5C83.0523 145.588 83.5 145.14 83.5 144.588V123.588C83.5 123.036 83.0523 122.588 82.5 122.588H68.6518C68.2556 122.588 67.8968 122.354 67.7369 121.991L60.611 105.839C60.5383 105.675 60.4226 105.533 60.276 105.428L31.428 84.8925C31.16 84.7017 30.8154 84.655 30.5063 84.7674L15.049 90.3882C14.7098 90.5115 14.3305 90.4425 14.0565 90.2077L0.849208 78.8872C0.627562 78.6972 0.5 78.4198 0.5 78.1279V62.1012C0.5 61.7789 0.655271 61.4764 0.917092 61.2886L23.0829 45.387C23.3447 45.1992 23.5 44.8967 23.5 44.5745V21.0878C23.5 20.5355 23.9477 20.0878 24.5 20.0878H44.5C45.0523 20.0878 45.5 19.6401 45.5 19.0878V9.79534C45.5 9.37136 45.7674 8.99346 46.1672 8.85235L69.6672 0.558236C70.3178 0.328606 71 0.811273 71 1.50123V19.5765C71 19.8976 71.1542 20.1992 71.4145 20.3872L79.3735 26.1353C79.7425 26.4018 80.2449 26.3855 80.5958 26.0956L91.2227 17.3169C91.402 17.1688 91.6272 17.0878 91.8596 17.0878H103.055C103.338 17.0878 103.608 16.9675 103.798 16.7568L111.856 7.80335Z" fill="#A6E700" stroke="#1E4B17"/>
</svg>
