<svg width="132" height="109" viewBox="0 0 132 109" fill="none" xmlns="http://www.w3.org/2000/svg">
<path d="M58.2932 107.748C58.0065 107.836 57.6955 107.79 57.446 107.624L36.9071 93.9315C36.8626 93.9018 36.8205 93.8686 36.7813 93.8322L31.7063 89.1197C31.0403 88.5013 31.4779 87.3869 32.3867 87.3869H37.8402C38.3925 87.3869 38.8402 86.9392 38.8402 86.3869V80.3869C38.8402 79.8346 38.3925 79.3869 37.8402 79.3869H27.3402C26.7879 79.3869 26.3402 78.9392 26.3402 78.3869V71.8869C26.3402 71.3346 25.8925 70.8869 25.3402 70.8869H17.3653C17.0365 70.8869 16.7288 70.7253 16.5421 70.4546L7.3585 57.1384C7.06494 56.7128 7.14317 56.1342 7.54201 55.8051C9.66983 54.0494 12.9827 51.3869 13.3402 51.3869C13.6672 51.3869 19.5839 54.7274 24.1005 57.3128C24.9481 57.798 25.9205 56.906 25.5092 56.0201L20.609 45.4658C20.4451 45.1128 20.0912 44.8869 19.702 44.8869H7.96788C7.5841 44.8869 7.23418 44.6673 7.06733 44.3217L0.599408 30.9238C0.439723 30.593 0.474227 30.2013 0.689281 29.9036L6.54084 21.8014C6.72885 21.5411 7.03042 21.3869 7.35152 21.3869H24.9894C25.2165 21.3869 25.4368 21.3096 25.6141 21.1678L34.9649 13.6871C35.2021 13.4974 35.3402 13.2101 35.3402 12.9063V1.50019C35.3402 0.905597 35.8559 0.442356 36.4471 0.505925L81.4701 5.3471C81.7088 5.37277 81.9304 5.4835 82.0942 5.65905L109.571 35.0987C109.744 35.2839 109.84 35.5278 109.84 35.7811V46.3869C109.84 46.9392 110.288 47.3869 110.84 47.3869H117.34C117.892 47.3869 118.34 47.8346 118.34 48.3869V55.3869C118.34 55.9392 117.892 56.3869 117.34 56.3869H110.84C110.288 56.3869 109.84 56.8346 109.84 57.3869V61.8777C109.84 62.1976 109.993 62.4982 110.252 62.6864L120.773 70.3382C120.818 70.3706 120.865 70.3993 120.914 70.4239L130.011 74.9722C130.479 75.2061 130.687 75.7611 130.489 76.2452L126.594 85.7655C126.441 86.1414 126.075 86.3869 125.669 86.3869H110.579C110.14 86.3869 109.752 86.6732 109.623 87.0928L106.278 97.9649C106.069 98.6438 105.239 98.8946 104.689 98.4448L100.754 95.2257C100.496 95.014 100.148 94.9456 99.8286 95.0434L58.2932 107.748Z" fill="#FFE801" stroke="#C79B2F"/>
</svg>
