<svg width="238" height="199" viewBox="0 0 238 199" fill="none" xmlns="http://www.w3.org/2000/svg">
<path d="M16.504 61.3519C15.9175 61.0726 15.7488 60.3169 16.1609 59.8147L30.8998 41.8516C31.1696 41.5228 31.6178 41.4006 32.0172 41.547L61.0882 52.2064C61.2597 52.2692 61.4107 52.3779 61.5248 52.5205L79.0501 74.4272C79.2399 74.6644 79.5272 74.8025 79.831 74.8025H141.9C142.186 74.8025 142.459 74.6797 142.649 74.4653L168.84 44.8792C169.141 44.5393 169.175 44.0394 168.923 43.6616L158.56 28.1174C158.425 27.9145 158.369 27.6691 158.401 27.4275L159.713 17.8104C159.788 17.2566 160.303 16.8722 160.856 16.9572L165.603 17.6875C166.045 17.7555 166.479 17.5217 166.665 17.1149L173.993 1.08446C174.198 0.634823 174.702 0.402876 175.177 0.538697L184.5 3.20229C184.726 3.267 184.923 3.40961 185.054 3.60496L200.053 25.8613C200.239 26.1371 200.55 26.3025 200.882 26.3025H207.553C207.747 26.3025 207.937 26.3589 208.099 26.4649L218.927 33.5261C219.193 33.6999 219.526 33.7365 219.824 33.6249L230.221 29.7258C230.808 29.5059 231.45 29.8731 231.558 30.4901L236.776 60.3765C236.823 60.6483 236.756 60.9277 236.591 61.1485L219.038 84.5526C218.916 84.7153 218.747 84.837 218.554 84.9013L209.667 87.8637C209.019 88.0796 208.35 87.5976 208.35 86.9151V79.7167C208.35 78.8258 207.273 78.3796 206.643 79.0096L194.271 91.3821C193.806 91.8467 193.908 92.6255 194.477 92.9546L202.426 97.5568C202.694 97.7118 203.018 97.7342 203.304 97.6175L215.625 92.598C216.051 92.4244 216.54 92.5639 216.811 92.9359L219.86 97.1283C220.144 97.5188 220.108 98.0565 219.775 98.4061L210.98 107.641C210.623 108.016 210.611 108.6 210.952 108.99L227.603 128.02C227.762 128.202 227.85 128.436 227.85 128.678V139.021C227.85 139.205 227.901 139.386 227.997 139.543L233.106 147.903C233.261 148.156 233.295 148.465 233.2 148.746L224.421 174.593C224.375 174.731 224.298 174.857 224.198 174.962L214.146 185.493C213.957 185.691 213.696 185.802 213.422 185.802H202.231C201.986 185.802 201.749 185.892 201.566 186.055L188.899 197.314C188.573 197.605 188.095 197.649 187.72 197.425L178.496 191.89C178.399 191.832 178.314 191.758 178.242 191.672L166.236 177.266C165.999 176.981 165.623 176.851 165.261 176.928L149.934 180.179C149.574 180.255 149.286 180.522 149.182 180.875L147.061 188.085C146.936 188.51 146.546 188.802 146.102 188.802H138.35C137.798 188.802 137.35 188.355 137.35 187.802V171.939C137.35 171.551 137.125 171.197 136.773 171.033L131.273 168.467C130.61 168.157 129.85 168.641 129.85 169.373V173.302C129.85 173.855 129.403 174.302 128.85 174.302H125.053C124.427 174.302 123.955 173.735 124.069 173.12L126.223 161.491C126.299 161.078 126.109 160.661 125.747 160.447L117.967 155.871C117.889 155.826 117.807 155.791 117.72 155.767L73.4513 143.83C73.3842 143.812 73.3191 143.787 73.2572 143.755L49.0644 131.412C48.9237 131.34 48.768 131.302 48.61 131.302H35.2136C34.7177 131.302 34.2967 130.939 34.2243 130.448L29.9555 101.515C29.8927 101.089 29.5648 100.752 29.1412 100.676L7.66001 96.8575C7.45843 96.8217 7.27271 96.7249 7.12794 96.5801L0.792993 90.2451C0.522231 89.9744 0.429859 89.5728 0.555114 89.2109L4.61742 77.4754C4.75683 77.0726 5.1362 76.8025 5.5624 76.8025H20.679C21.085 76.8025 21.4508 76.5569 21.6045 76.1811L25.4924 66.6775C25.6932 66.1865 25.4757 65.6241 24.9968 65.396L16.504 61.3519Z" fill="#FFE801" stroke="#C79B2F"/>
</svg>
