<svg width="168" height="172" viewBox="0 0 168 172" fill="none" xmlns="http://www.w3.org/2000/svg">
<path d="M7.83325 74.2918C7.64165 74.8665 8.00115 75.4783 8.59652 75.5906L33.6298 80.3139C33.8508 80.3556 34.0514 80.4706 34.199 80.6404L53.3498 102.664C53.6983 103.065 54.2992 103.123 54.7184 102.797L61.3571 97.6336C62.014 97.1227 62.9711 97.5908 62.9711 98.4229V126.128C62.9711 126.292 63.0115 126.454 63.0887 126.599L86.316 170.15C86.6378 170.753 87.4568 170.863 87.926 170.366L103.171 154.197C103.362 153.994 103.46 153.72 103.441 153.441L102.002 132.819C101.982 132.538 102.082 132.262 102.276 132.059L132.504 100.368C132.786 100.072 133.22 99.9778 133.599 100.13L139.926 102.66C140.263 102.795 140.645 102.737 140.927 102.509L150.021 95.1476C150.512 94.7499 151.244 94.9019 151.537 95.4622L155.802 103.637C156.221 104.441 157.407 104.317 157.651 103.444L166.449 71.957C166.464 71.9046 166.483 71.8538 166.508 71.8052C166.748 71.3252 166.489 70.7454 165.972 70.6027L123.569 58.9053C123.504 58.8874 123.441 58.8628 123.381 58.8321L99.1852 46.4875C99.0444 46.4157 98.8887 46.3783 98.7307 46.3783H85.3344C84.8384 46.3783 84.4174 46.0149 84.3451 45.5243L80.0762 16.5908C80.0134 16.1653 79.6855 15.8275 79.2619 15.7522L57.7807 11.9333C57.5792 11.8975 57.3934 11.8007 57.2487 11.6559L50.4711 4.8783L45.8916 0.756741C45.6307 0.52193 45.2658 0.441099 44.9301 0.543771L3.57299 13.1942C3.20511 13.3067 2.9344 13.6203 2.87678 14.0006L0.511339 29.6125C0.484961 29.7866 0.50502 29.9646 0.569489 30.1284L12.3381 60.0404C12.424 60.2587 12.4304 60.5002 12.3562 60.7228L7.83325 74.2918Z" fill="#FFE801" stroke="#C79B2F"/>
</svg>
