<svg width="169" height="164" viewBox="0 0 169 164" fill="none" xmlns="http://www.w3.org/2000/svg">
<path d="M0.553656 8.7652C0.398448 8.30992 0.589362 7.80864 1.00811 7.57196L11.2169 1.80176C11.5627 1.60635 11.9913 1.63404 12.309 1.87233L21.3426 8.64755C21.6184 8.85443 21.9814 8.90461 22.303 8.78035L43.5595 0.567608C43.7084 0.510106 43.8645 0.488578 44.0232 0.505783C50.2655 1.18289 62.3911 2.58517 62.786 2.9801C63.1791 3.37314 73.9029 14.7406 79.4938 20.6702C79.6828 20.8706 79.9421 20.9801 80.2176 20.9801H94.2387C94.5797 20.9801 94.8972 21.1538 95.081 21.441L102.536 33.0893C102.695 33.3371 102.954 33.5025 103.246 33.5414L124.866 36.4241C125.134 36.4599 125.406 36.3851 125.619 36.2169L136.716 27.4315C137.056 27.1624 137.53 27.143 137.891 27.3835L157.757 40.6272C158.08 40.8425 158.249 41.2253 158.191 41.6091L155.826 57.2143C155.8 57.3884 155.82 57.5664 155.884 57.7303L167.653 87.6422C167.739 87.8605 167.745 88.102 167.671 88.3246L163.182 101.793C162.979 102.401 162.264 102.664 161.715 102.332L144.025 91.6246C143.869 91.5301 143.689 91.4801 143.507 91.4801H129.707C129.438 91.4801 129.18 91.3714 128.992 91.1786L109.08 70.7816C108.892 70.5888 108.634 70.4801 108.365 70.4801H101.286C100.734 70.4801 100.286 70.9278 100.286 71.4801V87.5528C100.286 87.8257 100.398 88.0868 100.595 88.2755L111.496 98.7027C111.682 98.8808 111.93 98.9801 112.187 98.9801H118.786C119.338 98.9801 119.786 99.4278 119.786 99.9801V105.733C119.786 106.176 120.077 106.566 120.502 106.692L132.698 110.306C133.059 110.413 133.449 110.308 133.708 110.035L141.579 101.726C141.967 101.317 142.614 101.309 143.012 101.707L158.282 116.976C158.584 117.278 158.661 117.737 158.474 118.121L149.432 136.681C149.337 136.875 149.182 137.033 148.99 137.132L98.0014 163.369C97.8598 163.442 97.703 163.48 97.5438 163.48H89.2398C88.9514 163.48 88.6771 163.356 88.4872 163.139L81.8604 155.565C81.811 155.509 81.7681 155.447 81.7325 155.381L64.4055 123.202C64.3271 123.056 64.286 122.893 64.286 122.728V109.737C64.286 109.569 64.2433 109.403 64.162 109.255L45.286 74.9801L35.1299 58.5368C34.921 58.1987 34.9322 57.7689 35.1585 57.4421L47.8335 39.1337C48.0984 38.7511 48.0643 38.2362 47.7512 37.8919L43.6184 33.3457C43.4089 33.1153 43.104 32.9956 42.7937 33.022L20.0297 34.9594C19.8696 34.973 19.7086 34.9478 19.5603 34.886L8.20236 30.1536C7.93764 30.0433 7.73301 29.8246 7.64047 29.5532L0.553656 8.7652Z" fill="#FFE803" stroke="#C79B2F"/>
</svg>
