<svg width="154" height="125" viewBox="0 0 154 125" fill="none" xmlns="http://www.w3.org/2000/svg">
<path d="M21.4857 4.05759C21.4857 3.65756 21.7241 3.29602 22.0918 3.13844L28.0594 0.580893C28.3298 0.465021 28.6375 0.474062 28.9006 0.605611L79.0385 25.6746C79.32 25.8153 79.5189 26.0804 79.5752 26.3901L80.4696 31.3095C80.4803 31.3685 80.4857 31.4284 80.4857 31.4884V38.3549C80.4857 38.6937 80.6573 39.0095 80.9415 39.1939L98.5299 50.6025C98.8142 50.7869 98.9857 51.1027 98.9857 51.4415V62.0381C98.9857 62.2708 99.0669 62.4963 99.2153 62.6756L110.756 76.6208C110.905 76.8001 110.986 77.0256 110.986 77.2583V94.1391C110.986 94.5878 111.285 94.9816 111.717 95.1022L152.014 106.348C152.816 106.572 153.009 107.62 152.339 108.115L131.34 123.636C131.114 123.803 130.829 123.867 130.553 123.813L106.293 119.057C105.824 118.965 105.486 118.553 105.486 118.075V109.898C105.486 109.346 105.038 108.898 104.486 108.898H85.7093C85.562 108.898 85.4167 108.931 85.2835 108.993L77.3184 112.742C77.1036 112.843 76.8599 112.864 76.6309 112.802L47.6322 104.938C47.5351 104.912 47.4346 104.9 47.3341 104.904L20.2466 105.889C20.0756 105.895 19.9058 105.857 19.7535 105.779L1.99032 96.6573C1.67734 96.4966 1.47185 96.1832 1.4492 95.8321L0.502049 81.1513C0.491331 80.9852 0.522255 80.819 0.592015 80.6679L5.96735 69.0213C6.23414 68.4433 6.96599 68.2584 7.47531 68.6404L14.0857 73.5982C14.3375 73.787 14.4857 74.0834 14.4857 74.3982V80.3573C14.4857 80.6948 14.656 81.0095 14.9385 81.1942L26.4636 88.7299C26.9921 89.0755 27.7047 88.8506 27.9393 88.2643L32.2565 77.4711C32.397 77.1199 32.3273 76.7195 32.0764 76.4364L13.9169 55.9488C13.461 55.4345 13.6479 54.6242 14.2829 54.3614L26.8681 49.1538C27.2419 48.9991 27.4857 48.6343 27.4857 48.2298V32.3381C27.4857 32.0578 27.3681 31.7903 27.1614 31.6009L21.81 26.6954C21.6034 26.506 21.4857 26.2386 21.4857 25.9583V4.05759Z" fill="#FFE801" stroke="#C79B2F"/>
</svg>
