<svg width="86" height="134" viewBox="0 0 86 134" fill="none" xmlns="http://www.w3.org/2000/svg">
<path d="M71.3232 35.3898C71.6707 35.8068 71.622 36.425 71.2135 36.7825L64.2896 42.8409C64.0726 43.0308 63.9481 43.3051 63.9481 43.5935V51.188C63.9481 51.4752 64.0716 51.7485 64.2871 51.9383L84.6092 69.8411C84.8246 70.0309 84.9481 70.3043 84.9481 70.5915V84.3064C84.9481 84.5227 84.8779 84.7333 84.7481 84.9064L76.0898 96.4509C75.9966 96.5751 75.8758 96.6759 75.737 96.7453L62.3953 103.416C61.7304 103.749 60.9481 103.265 60.9481 102.522V86.321C60.9481 86.2011 60.9266 86.0822 60.8844 85.9699L58.086 78.5074C57.9974 78.2711 57.8227 78.077 57.5969 77.9641L46.1593 72.2453C46.0204 72.1759 45.8673 72.1397 45.7121 72.1397H42.4326C41.8864 72.1397 41.4413 72.578 41.4327 73.1241L40.9547 103.716C40.9505 103.987 41.0561 104.248 41.2475 104.439L49.1552 112.347C49.3428 112.534 49.4481 112.789 49.4481 113.054V131.913C49.4481 132.776 48.4287 133.234 47.7838 132.66L36.1065 122.28C36.0021 122.188 35.9183 122.074 35.8605 121.947L23.5632 94.8928C23.4879 94.7272 23.4592 94.5442 23.4802 94.3635L25.9149 73.4254C25.9366 73.2387 25.9053 73.0497 25.8244 72.88L21.2196 63.2098C21.0538 62.8615 20.7024 62.6397 20.3167 62.6397H11.6367C11.2221 62.6397 10.8504 62.3838 10.7025 61.9964L0.565773 35.4478C0.489362 35.2477 0.479234 35.0284 0.53688 34.822L9.92232 1.23206C9.93948 1.17063 9.96252 1.11091 9.99104 1.05386C10.2417 0.552593 10.8557 0.354238 11.3517 0.61526L19.2965 4.79675C19.684 5.00072 19.8938 5.43314 19.814 5.86376L17.667 17.4576C17.5532 18.0724 18.0251 18.6397 18.6503 18.6397H22.4481C23.0004 18.6397 23.4481 18.192 23.4481 17.6397V13.7099C23.4481 12.9783 24.208 12.4943 24.871 12.8037L30.371 15.3704C30.7231 15.5347 30.9481 15.888 30.9481 16.2766V32.1397C30.9481 32.692 31.3958 33.1397 31.9481 33.1397H39.6999C40.1435 33.1397 40.5341 32.8475 40.6592 32.4219L42.7798 25.212C42.8835 24.8595 43.1722 24.5922 43.5317 24.5159L58.8584 21.2648C59.2211 21.1879 59.5967 21.318 59.8341 21.6029L71.3232 35.3898Z" fill="#FFE801" stroke="#C79B2F"/>
</svg>
