<svg width="265" height="247" viewBox="0 0 265 247" fill="none" xmlns="http://www.w3.org/2000/svg">
<path d="M132.488 221.032C132.204 221.411 132.225 221.938 132.539 222.294L139.201 229.845C139.391 230.06 139.664 230.183 139.951 230.183H145.846C146.243 230.183 146.603 230.418 146.762 230.782L153.12 245.315C153.333 245.802 153.89 246.037 154.387 245.85L164.129 242.197C164.788 241.95 164.992 241.117 164.522 240.593L148.385 222.612C148.147 222.346 148.068 221.974 148.178 221.635L153.776 204.375C153.909 203.962 154.294 203.683 154.727 203.683H160.231C160.684 203.683 161.081 203.378 161.197 202.94L167.467 179.309C167.489 179.226 167.5 179.139 167.5 179.053V160.704C167.5 160.378 167.341 160.072 167.073 159.885L152.869 149.942C152.635 149.777 152.482 149.52 152.449 149.235L149.647 124.478C149.573 123.825 148.899 123.419 148.287 123.66L136.358 128.346C135.873 128.536 135.324 128.323 135.094 127.855L123.826 104.849C123.632 104.453 123.72 103.978 124.042 103.678L130.543 97.6094C130.823 97.3486 131.226 97.2699 131.583 97.4066L153.865 105.94C154.248 106.087 154.681 105.985 154.962 105.686C156.915 103.603 160.262 100.314 161 100.683C161.735 101.051 169.274 102.852 173.856 103.918C174.456 104.058 175.036 103.624 175.076 103.008L175.942 89.5788C175.975 89.0693 176.387 88.6664 176.897 88.6442L186.598 88.2224C187.11 88.2001 187.523 87.7939 187.553 87.282L187.949 80.5424C187.979 80.0485 188.364 79.65 188.857 79.6052L192.86 79.2413C193.25 79.2059 193.625 79.4012 193.819 79.7411L201.325 92.8765C201.438 93.0749 201.48 93.3062 201.444 93.5319L199.072 108.234C199.026 108.52 199.106 108.811 199.29 109.033L224.277 139.109C224.869 139.822 226.03 139.414 226.046 138.487L226.492 112.167C226.497 111.862 226.362 111.57 226.125 111.376L215.915 103.023C215.656 102.811 215.52 102.483 215.553 102.149L216.913 88.5481C216.963 88.0521 217.37 87.6684 217.869 87.6484L228.815 87.2106C229.228 87.1941 229.588 86.9254 229.721 86.5345L236.186 67.6018C236.361 67.0901 236.097 66.5322 235.591 66.3423L228.736 63.7716C228.581 63.7135 228.443 63.6181 228.334 63.4937L222.153 56.4299C221.792 56.0165 221.831 55.3889 222.242 55.024L230.092 48.0457C230.346 47.8197 230.698 47.7385 231.026 47.83L262.392 56.5942C263.217 56.8247 263.931 55.9788 263.565 55.2041L256.187 39.5793C256.068 39.3268 255.848 39.1356 255.582 39.0521L197.179 20.7392C197.061 20.7022 196.937 20.6874 196.813 20.6956L167.679 22.6379C167.269 22.6652 166.918 22.94 166.793 23.3309L163.5 33.6211C163.272 34.3342 162.37 34.5529 161.84 34.0235L158.326 30.5093C158.119 30.3023 157.832 30.1964 157.54 30.2195L139.301 31.6594C139.105 31.6749 138.917 31.7482 138.762 31.87L132.794 36.559C132.357 36.9027 131.723 36.8233 131.384 36.3824L122.438 24.7521C122.176 24.4121 121.727 24.2767 121.321 24.4157L85.9016 36.5456C85.6449 36.6335 85.3636 36.6134 85.1221 36.4898L65.3584 26.3781C64.7171 26.05 63.9498 26.4871 63.9048 27.206L63.685 30.7232C63.6253 31.6788 62.386 32.0122 61.8549 31.2155L45.5417 6.74572C45.0976 6.07958 44.0898 6.17938 43.785 6.91967L41.2465 13.0846C41.0965 13.4488 40.7467 13.6911 40.353 13.7034L25.4546 14.169C25.1658 14.178 24.8872 14.0616 24.6905 13.8499L12.5909 0.819564C12.252 0.454521 11.696 0.394632 11.2871 0.679109L0.928936 7.88478C0.660215 8.07171 0.5 8.37833 0.5 8.70568V15.1399C0.5 15.4787 0.671558 15.7944 0.955809 15.9788L18.5442 27.3875C18.8284 27.5719 19 27.8877 19 28.2265V38.823C19 39.0558 19.0812 39.2813 19.2296 39.4606L30.7704 53.4057C30.9188 53.585 31 53.8105 31 54.0433V70.924C31 71.3728 31.299 71.7666 31.7312 71.8872L73.8681 83.6464C73.9556 83.6708 74.0461 83.6832 74.1369 83.6832H92.9648C93.2992 83.6832 93.6114 83.8503 93.7969 84.1285L101.146 95.1529C101.362 95.4764 101.371 95.8955 101.169 96.2275L94.7922 106.703C94.6107 107.001 94.287 107.183 93.938 107.183H81.2808C80.6302 107.183 80.1528 107.795 80.3106 108.426L87.3599 136.623C87.4466 136.97 87.7117 137.244 88.0553 137.342L97.6493 140.083C97.8758 140.148 98.0722 140.29 98.2038 140.486L113.203 162.742C113.389 163.018 113.699 163.183 114.032 163.183H121.192C121.393 163.183 121.589 163.244 121.755 163.357L132.071 170.391C132.34 170.574 132.681 170.615 132.986 170.501L143.371 166.606C143.958 166.387 144.6 166.754 144.707 167.371L149.926 197.257C149.973 197.529 149.906 197.808 149.741 198.029L132.488 221.032Z" fill="#FFE801" stroke="#C79B2F"/>
</svg>
