<svg width="56" height="93" viewBox="0 0 56 93" fill="none" xmlns="http://www.w3.org/2000/svg">
<path d="M2.44238 49.1999L6.41291 28.8509C6.43244 28.7508 6.46718 28.6543 6.51591 28.5647L21.495 1.02247C21.7467 0.559688 22.3143 0.371521 22.7926 0.592279L27.9838 2.98825C28.2722 3.12134 28.4802 3.38349 28.5442 3.69456L31.8273 19.6407C31.8986 19.9873 32.1477 20.2703 32.4824 20.385L48.5896 25.9075C49.0742 26.0737 49.3549 26.5791 49.2397 27.0783L46.4943 38.975C46.4601 39.123 46.4601 39.2768 46.4943 39.4248L50.8133 58.1404C50.8932 58.4869 50.7832 58.8497 50.5242 59.0934L43.3423 65.8529C42.879 66.289 42.9353 67.0412 43.4584 67.4033L55.0116 75.4016C55.2814 75.5884 55.4424 75.8957 55.4424 76.2238V87.489C55.4424 87.9146 55.1729 88.2936 54.7709 88.4334L44.2719 92.0853C44.0585 92.1595 43.8263 92.1593 43.6131 92.0846L24.3251 85.3338C24.0797 85.2479 23.8773 85.0698 23.761 84.8372L18.1242 73.5636C18.0076 73.3304 17.8046 73.152 17.5583 73.0663L6.80693 69.3267C6.57233 69.2451 6.3765 69.0791 6.25756 68.861L0.622082 58.5293C0.506227 58.3169 0.471306 58.0697 0.52379 57.8336L2.44238 49.1999Z" fill="#229DDC" stroke="#0A6AAE"/>
</svg>
