<svg width="110" height="110" viewBox="0 0 110 110" fill="none" xmlns="http://www.w3.org/2000/svg">
<path d="M0.74431 82.9797C0.426884 82.6135 0.4178 82.0723 0.722754 81.6956L8.47292 72.1218C8.61704 71.9438 8.69568 71.7217 8.69568 71.4927V48.1781C8.69568 47.9629 8.7651 47.7535 8.89364 47.5809L25.6051 25.1397C25.9324 24.7003 26.5522 24.606 26.9953 24.9282L31.1959 27.9832C31.5022 28.206 31.9081 28.2365 32.2443 28.0622L85.1836 0.612218C85.5005 0.447884 85.881 0.46497 86.1819 0.657049L108.261 14.7501C108.761 15.0692 108.875 15.7506 108.506 16.2149L95.9126 32.0736C95.7721 32.2504 95.6957 32.4696 95.6957 32.6954V61.6855C95.6957 62.2969 95.1519 62.7651 94.5473 62.6744L86.1233 61.4108C85.8504 61.3699 85.5728 61.4435 85.3561 61.6143L69.3847 74.1977C69.2605 74.2956 69.1612 74.4216 69.0951 74.5653L57.9634 98.7646C57.8002 99.1194 57.4455 99.3467 57.055 99.3467H49.0465C48.8194 99.3467 48.5991 99.424 48.4218 99.5658L37.2905 108.471C36.7543 108.9 35.9551 108.673 35.7241 108.026L26.7454 82.8859C26.4941 82.1821 25.5877 81.9927 25.0755 82.5369L18.4918 89.532C18.3028 89.7328 18.0393 89.8467 17.7636 89.8467H7.15231C6.86229 89.8467 6.58656 89.7208 6.39662 89.5016L0.74431 82.9797Z" fill="#229DDC" stroke="#0A6AAE"/>
</svg>
