<svg width="109" height="125" viewBox="0 0 109 125" fill="none" xmlns="http://www.w3.org/2000/svg">
<path d="M9.12314 7.5C8.69045 7.5 8.30684 7.77828 8.17253 8.1896L0.549443 31.5353C0.453698 31.8285 0.498628 32.1495 0.6712 32.4052L13.7123 51.7254C13.8327 51.9037 13.8923 52.1161 13.8824 52.331L10.9491 115.886C10.9217 116.481 11.4164 116.968 12.0104 116.93L34.5219 115.523C34.7641 115.508 35.0036 115.582 35.1957 115.73L45.6276 123.791C45.8027 123.927 46.0178 124 46.2391 124H69.1785C69.3229 124 69.4656 123.969 69.5968 123.908L106.83 106.762C107.177 106.602 107.403 106.257 107.411 105.875L107.887 83.4999C107.894 83.1852 107.752 82.8857 107.504 82.6916L89.7808 68.8003C89.539 68.6107 89.3977 68.3205 89.3977 68.0132V38.4142C89.3977 38.149 89.5031 37.8946 89.6906 37.7071L101.105 26.2929C101.292 26.1054 101.398 25.851 101.398 25.5858V8.09729C101.398 7.72941 101.196 7.39124 100.872 7.21682L88.6197 0.619529C88.474 0.54107 88.3111 0.5 88.1456 0.5H35.5507C34.9422 0.5 34.4747 1.03899 34.5608 1.64142L35.2346 6.35858C35.3207 6.96101 34.8532 7.5 34.2447 7.5H9.12314Z" fill="#8163B8" stroke="#42285B"/>
</svg>
