<svg width="123" height="82" viewBox="0 0 123 82" fill="none" xmlns="http://www.w3.org/2000/svg">
<path d="M115.264 33.8408C116.034 33.8408 116.515 33.0085 116.131 32.3418L107.866 17.9874C107.646 17.6038 107.199 17.4111 106.768 17.5136L86.9312 22.2367C86.6532 22.3029 86.3602 22.247 86.1261 22.0831L66.9314 8.64687C66.6582 8.45557 66.3075 8.41314 65.9965 8.53374L42.4069 17.6807C42.144 17.7826 41.8503 17.7689 41.5982 17.6428L7.52374 0.605557C7.19715 0.442263 6.80753 0.469954 6.50731 0.677793L0.930835 4.53843C0.657768 4.72748 0.496377 5.03976 0.500108 5.37186L0.988973 48.8809C0.992253 49.1728 1.12292 49.4487 1.34669 49.6361L19.3616 64.7298C19.4493 64.8032 19.549 64.8611 19.6562 64.9008L63.5124 81.1621C63.8148 81.2742 64.1527 81.2337 64.4199 81.0531L82.2236 69.0236C82.3994 68.9048 82.6084 68.845 82.8204 68.8528L121.462 70.284C122.183 70.3107 122.695 69.5868 122.428 68.9155L109.038 35.21C108.777 34.5534 109.261 33.8408 109.967 33.8408H115.264Z" fill="#7F64B8" stroke="#42285B"/>
</svg>
