<svg width="47" height="74" viewBox="0 0 47 74" fill="none" xmlns="http://www.w3.org/2000/svg">
<path d="M0.567604 49.3366C0.440945 49.01 0.494463 48.6409 0.708679 48.3636L8.65481 38.0804C8.79012 37.9053 8.86353 37.6903 8.86353 37.469V16.2591C8.86353 15.7272 9.27984 15.2884 9.81097 15.2604L27.4274 14.3333C27.7055 14.3186 27.9648 14.1887 28.1431 13.9748L39.0714 0.860829C39.6011 0.2252 40.6296 0.471142 40.8144 1.27764L45.7439 22.7881C45.8186 23.1143 45.7252 23.4563 45.4951 23.6992L37.0009 32.6653C36.9102 32.761 36.8015 32.8379 36.681 32.8914L32.742 34.6421C32.4997 34.7498 32.31 34.9494 32.2148 35.1969L29.9732 41.0252C29.9017 41.211 29.7764 41.3713 29.6133 41.4855L25.2901 44.5117C25.0227 44.6989 24.8635 45.0046 24.8635 45.331V62.7751C24.8635 63.1095 24.6964 63.4217 24.4182 63.6072L10.9002 72.6192C10.3681 72.9739 9.64431 72.7449 9.4131 72.1487L0.567604 49.3366Z" fill="#7F64B8" stroke="#42285B"/>
</svg>
