<svg width="183" height="196" viewBox="0 0 183 196" fill="none" xmlns="http://www.w3.org/2000/svg">
<path d="M115.52 5.26012C115.889 5.2738 116.221 5.49017 116.382 5.82273L141.03 56.5969C141.089 56.7193 141.173 56.8282 141.276 56.9171L162.655 75.3809C162.94 75.6271 163.34 75.6922 163.688 75.5492L180.774 68.5395C181.536 68.2271 182.328 68.917 182.122 69.7141L174.181 100.546C174.141 100.701 174.064 100.845 173.956 100.964L125.876 154.497C125.711 154.681 125.62 154.919 125.62 155.165V186.164C125.62 186.543 125.406 186.889 125.067 187.059L109.215 194.985C108.855 195.165 108.421 195.111 108.115 194.848L90.6199 179.782L72.4901 165.083C72.2559 164.893 72.1199 164.607 72.1199 164.306V134.697C72.1199 134.431 72.2252 134.177 72.4128 133.989L83.827 122.575C84.0145 122.388 84.1199 122.133 84.1199 121.868V104.38C84.1199 104.012 83.9179 103.674 83.594 103.499L71.3419 96.9019C71.1961 96.8234 71.0332 96.7823 70.8678 96.7823H17.9859C17.4888 96.7823 17.0672 96.4172 16.9962 95.9252L10.1789 48.6915C10.1411 48.4295 10.001 48.1932 9.78918 48.0343L0.900062 41.3675C0.466047 41.042 0.370743 40.4298 0.685271 39.9877L18.3036 15.2269C18.5007 14.9498 18.5435 14.5915 18.4172 14.2758L13.4569 1.87489C13.1349 1.06982 13.92 0.264429 14.733 0.565876L56.6381 16.1037C56.9405 16.2158 57.2784 16.1752 57.5456 15.9947L75.3493 3.96516C75.5251 3.84637 75.7342 3.78658 75.9462 3.79443L115.52 5.26012Z" fill="#8163B8" stroke="#42285B"/>
</svg>
