<svg width="167" height="214" viewBox="0 0 167 214" fill="none" xmlns="http://www.w3.org/2000/svg">
<path d="M30.9334 73.3377C30.8897 73.3086 30.8484 73.2761 30.8098 73.2404L24.6551 67.5591C24.4704 67.3886 24.2282 67.2939 23.9768 67.2939H14.8362C14.5394 67.2939 14.2579 67.1621 14.068 66.9341L0.73462 50.9341C0.191848 50.2828 0.655002 49.2939 1.50284 49.2939H18.0128C18.2424 49.2939 18.4651 49.373 18.6434 49.5178L30.6968 59.3113C31.5357 59.9929 32.7094 59.0435 32.2182 58.0807L22.1263 38.3006C21.966 37.9865 21.9831 37.6111 22.1711 37.3128L35.4595 16.2347C35.8666 15.589 36.8178 15.619 37.1833 16.2891L39.1481 19.8911C39.2876 20.1469 39.5316 20.3291 39.8164 20.3901L45.1583 21.5348C45.7808 21.6682 46.3678 21.1936 46.3678 20.557V15.2554C46.3678 14.9626 46.4961 14.6845 46.7189 14.4945L62.8458 0.739163C63.1604 0.470885 63.6075 0.423807 63.971 0.620706L74.8441 6.51027C75.1668 6.68506 75.3678 7.02256 75.3678 7.38956V11.0019C75.3678 11.466 75.687 11.8691 76.1388 11.9753L82.6388 13.5048C83.2665 13.6525 83.8678 13.1762 83.8678 12.5313V5.79395C83.8678 5.24166 84.3155 4.79395 84.8678 4.79395H93.081C93.2684 4.79395 93.4521 4.84661 93.611 4.94595L120.898 22.0002C121.19 22.1829 121.368 22.5034 121.368 22.8482V56.854C121.368 57.1343 121.485 57.4018 121.692 57.5912L127.044 62.4967C127.25 62.6861 127.368 62.9535 127.368 63.2338V79.1255C127.368 79.5301 127.124 79.8948 126.75 80.0495L114.165 85.2572C113.53 85.52 113.343 86.3302 113.799 86.8445L131.958 107.332C132.209 107.615 132.279 108.016 132.139 108.367L127.821 119.16C127.587 119.746 126.874 119.971 126.346 119.626L114.821 112.09C114.538 111.905 114.368 111.591 114.368 111.253V105.294C114.368 104.979 114.22 104.683 113.968 104.494L107.357 99.5361C106.848 99.1542 106.116 99.339 105.849 99.9171L100.474 111.564C100.404 111.715 100.373 111.881 100.384 112.047L101.354 127.073C101.363 127.218 101.404 127.36 101.474 127.489L112.781 148.135C112.838 148.24 112.914 148.334 113.005 148.412L145.021 175.995C145.241 176.185 145.368 176.461 145.368 176.752V200.34C145.368 200.874 145.787 201.314 146.32 201.339L164.895 202.224C165.601 202.257 166.05 202.993 165.758 203.636L164.031 207.436C163.926 207.666 163.738 207.848 163.505 207.945L152.052 212.717C151.931 212.768 151.8 212.794 151.668 212.794H140.852C140.546 212.794 140.257 212.654 140.068 212.414L133.041 203.513C132.928 203.37 132.778 203.26 132.607 203.196L101.819 191.651C101.296 191.455 101.035 190.868 101.239 190.349L106.144 177.863C106.281 177.514 106.211 177.117 105.963 176.836L68.6109 134.569C68.454 134.391 68.3652 134.164 68.3605 133.927L67.8745 109.631C67.8702 109.412 67.7944 109.201 67.6588 109.03L48.9658 85.4177C48.9009 85.3357 48.8235 85.2644 48.7364 85.2064L30.9334 73.3377Z" fill="#FFE801" stroke="#C79B2F"/>
</svg>
