<svg width="43" height="89" viewBox="0 0 43 89" fill="none" xmlns="http://www.w3.org/2000/svg">
<path d="M15.628 62.4462C14.8222 62.4462 14.3473 61.5419 14.8048 60.8785L23.2123 48.6877C23.5029 48.2663 24.0649 48.1324 24.5143 48.3775L27.7448 50.1396C28.4112 50.5031 29.2236 50.0207 29.2236 49.2617V40.6823C29.2236 40.5271 29.1875 40.3739 29.1181 40.2351L23.7799 29.5587C23.7425 29.484 23.7147 29.4049 23.697 29.3233L17.7154 1.7161C17.5296 0.85841 18.4598 0.194427 19.2106 0.648844L35.7414 10.6544C36.0408 10.8355 36.2236 11.16 36.2236 11.5099V19.4462C36.2236 19.9985 35.7759 20.4462 35.2236 20.4462H29.2236C28.6713 20.4462 28.2236 20.8939 28.2236 21.4462V24.4462C28.2236 24.9985 28.6713 25.4462 29.2236 25.4462H32.8094C33.0746 25.4462 33.329 25.5516 33.5165 25.7391L41.8452 34.0678C42.0816 34.3042 42.1842 34.6432 42.1187 34.971L41.2648 39.2406C41.2376 39.3762 41.1827 39.5047 41.1034 39.618L37.8475 44.2693C37.7659 44.3859 37.7101 44.5186 37.6838 44.6585L36.2378 52.3704C36.2284 52.4209 36.215 52.4705 36.198 52.519L33.2806 60.7847C33.2429 60.8916 33.2236 61.0042 33.2236 61.1175V68.2968C33.2236 69.147 32.2299 69.6094 31.5795 69.0617L24.0028 62.6813C23.8225 62.5295 23.5944 62.4462 23.3587 62.4462H15.628Z" fill="#FFE803"/>
<path d="M8.47717 69.8195C8.90943 69.6033 9.43441 69.7273 9.72438 70.1139L19.0183 82.5058C19.3881 82.9988 19.2282 83.7057 18.6823 83.9917L10.9688 88.0321C10.2438 88.4119 9.39447 87.8073 9.51588 86.9979L10.6151 79.6699C10.6797 79.239 10.4579 78.8158 10.0667 78.6238L0.377768 73.8692L8.47717 69.8195Z" fill="#FFE801"/>
<path d="M0.223633 73.9462L0.377768 73.8692M0.377768 73.8692L8.47717 69.8195C8.90943 69.6033 9.43441 69.7273 9.72438 70.1139L19.0183 82.5058C19.3881 82.9988 19.2282 83.7057 18.6823 83.9917L10.9688 88.0321C10.2438 88.4119 9.39447 87.8073 9.51588 86.9979L10.6151 79.6699C10.6797 79.239 10.4579 78.8158 10.0667 78.6238L0.377768 73.8692ZM24.0028 62.6813L31.5795 69.0617C32.2299 69.6094 33.2236 69.147 33.2236 68.2968V61.1175C33.2236 61.0042 33.2429 60.8916 33.2806 60.7847L36.198 52.519C36.2151 52.4705 36.2284 52.4209 36.2378 52.3704L37.6838 44.6585C37.7101 44.5186 37.7659 44.3859 37.8475 44.2693L41.1034 39.618C41.1827 39.5047 41.2376 39.3762 41.2648 39.2406L42.1187 34.971C42.1842 34.6432 42.0816 34.3042 41.8452 34.0678L33.5165 25.7391C33.329 25.5516 33.0746 25.4462 32.8094 25.4462H29.2236C28.6713 25.4462 28.2236 24.9985 28.2236 24.4462V21.4462C28.2236 20.8939 28.6713 20.4462 29.2236 20.4462H35.2236C35.7759 20.4462 36.2236 19.9985 36.2236 19.4462V11.5099C36.2236 11.16 36.0408 10.8355 35.7414 10.6544L19.2106 0.648844C18.4598 0.194427 17.5296 0.85841 17.7154 1.7161L23.697 29.3233C23.7147 29.4049 23.7425 29.484 23.7799 29.5587L29.1181 40.2351C29.1875 40.3739 29.2236 40.5271 29.2236 40.6823V49.2617C29.2236 50.0207 28.4112 50.5031 27.7448 50.1396L24.5143 48.3775C24.0649 48.1324 23.5029 48.2663 23.2123 48.6877L14.8048 60.8785C14.3473 61.5419 14.8222 62.4462 15.628 62.4462H23.3587C23.5944 62.4462 23.8225 62.5295 24.0028 62.6813Z" stroke="#C79B2F"/>
</svg>
