<svg width="139" height="65" viewBox="0 0 139 65" fill="none" xmlns="http://www.w3.org/2000/svg">
<path d="M1.15642 30.9074C0.521057 30.6744 0.295714 29.8908 0.710258 29.3559L15.0355 10.8718C15.2454 10.6009 15.5795 10.4563 15.9207 10.4888L25.6281 11.4134C25.7888 11.4287 25.9507 11.4048 26.1002 11.3439L39.0042 6.08675C39.2408 5.99036 39.4316 5.80705 39.5373 5.57446L41.5774 1.08624C41.7541 0.697579 42.158 0.463937 42.583 0.504588L99.1068 5.91121C99.281 5.92788 99.4565 5.89854 99.6158 5.82612L110.042 1.08713C110.255 0.98992 110.497 0.971103 110.723 1.03398L127.532 5.703C128.013 5.83685 128.322 6.3061 128.255 6.80163L126.924 16.5617C126.891 16.8033 126.947 17.0486 127.083 17.2515L137.445 32.7958C137.697 33.1735 137.663 33.6734 137.362 34.0133L111.171 63.5995C110.981 63.8139 110.709 63.9366 110.422 63.9366H48.3533C48.0495 63.9366 47.7622 63.7986 47.5724 63.5613L30.0471 41.6547C29.933 41.5121 29.782 41.4034 29.6105 41.3405L1.15642 30.9074Z" fill="#FFE801" stroke="#C79B2F"/>
</svg>
