<svg width="175" height="221" viewBox="0 0 175 221" fill="none" xmlns="http://www.w3.org/2000/svg">
<path d="M58.5583 151.062C58.3408 151.039 58.137 150.944 57.978 150.794L40.0358 133.822C39.8362 133.633 39.723 133.37 39.723 133.095V117.568C39.723 117.23 39.8937 116.915 40.1768 116.73L50.7693 109.822C51.0523 109.637 51.223 109.322 51.223 108.984V74.9682C51.223 74.6865 51.1042 74.4178 50.8957 74.2283L23.8857 49.6737C23.7785 49.5763 23.6938 49.4568 23.6374 49.3234L18.2564 36.6049C18.2342 36.5523 18.2075 36.5017 18.1766 36.4537L0.658855 9.20384C0.404469 8.80813 0.460285 8.28862 0.792926 7.95598L7.95596 0.792946C8.36912 0.379777 9.04701 0.407348 9.42526 0.852707L39.2953 36.0223C39.5547 36.3277 39.6067 36.7584 39.4275 37.1168L33.5793 48.8132C33.3708 49.2302 33.4782 49.736 33.8381 50.0324L40.9051 55.8523C41.349 56.2178 42.0089 56.1346 42.3482 55.6704L50.6067 44.3693C50.9426 43.9096 51.5941 43.8228 52.0388 44.1785L60.2571 50.7531C60.7542 51.1508 61.4915 50.9889 61.7762 50.4195L65.2263 43.5194C65.4918 42.9884 66.1588 42.8043 66.6591 43.1239L83.5915 53.9419C83.6787 53.9975 83.7566 54.0664 83.8227 54.146L102.993 77.2482C103.142 77.4276 103.223 77.6535 103.223 77.8867V103.641C103.223 103.889 103.315 104.128 103.481 104.312L140.813 145.572C141.065 145.851 141.139 146.247 141.006 146.598L136.079 159.587C135.883 160.105 136.144 160.684 136.663 160.878L167.458 172.427C167.631 172.492 167.783 172.603 167.897 172.749L174.246 180.913C174.527 181.274 174.527 181.778 174.247 182.14L159.223 201.526L143.818 219.82C143.482 220.218 142.896 220.292 142.472 219.989L133.142 213.325C132.879 213.137 132.723 212.834 132.723 212.511V208.089C132.723 207.54 133.166 207.094 133.715 207.089L140.231 207.034C140.78 207.03 141.223 206.583 141.223 206.034V199.026C141.223 198.474 140.775 198.026 140.223 198.026H133.723C133.171 198.026 132.723 197.578 132.723 197.026V186.42C132.723 186.167 132.627 185.923 132.454 185.738L104.977 156.298C104.813 156.122 104.592 156.012 104.353 155.986L58.5583 151.062Z" fill="#FFE801" stroke="#C79B2F"/>
</svg>
