<svg width="180" height="82" viewBox="0 0 180 82" fill="none" xmlns="http://www.w3.org/2000/svg">
<path d="M17.8257 8.61924C17.6547 8.62546 17.4849 8.58766 17.3326 8.50946L1.96424 0.617614C1.08748 0.167388 0.15694 1.12303 0.630337 1.9875L10.4778 19.9697C10.5353 20.0749 10.6113 20.1688 10.7021 20.247L42.7175 47.8295C42.938 48.0195 43.0648 48.2961 43.0648 48.5871V72.1752C43.0648 72.709 43.4841 73.1487 44.0173 73.1741L64.0648 74.1287L121.299 79.6033C121.473 79.62 121.649 79.5906 121.808 79.5182L132.234 74.7792C132.448 74.682 132.689 74.6632 132.915 74.7261L150.565 79.6287L156.318 80.5138C156.76 80.5818 157.193 80.3479 157.379 79.9412L164.919 63.4473C165.013 63.241 165.035 63.0089 164.98 62.789L157.875 34.3713C157.718 33.7401 158.195 33.1287 158.846 33.1287H171.503C171.852 33.1287 172.176 32.9468 172.357 32.6487L178.733 22.1731C178.936 21.841 178.927 21.4219 178.711 21.0985L171.362 10.074C171.176 9.79582 170.864 9.62872 170.53 9.62872H151.894C151.68 9.62872 151.472 9.69736 151.3 9.82455L128.919 26.3668C128.693 26.5337 128.408 26.598 128.132 26.5439L103.872 21.7871C103.403 21.6951 103.065 21.2839 103.065 20.8058V12.6287C103.065 12.0764 102.617 11.6287 102.065 11.6287H83.4229C83.2778 11.6287 83.1344 11.6603 83.0027 11.7213L74.8953 15.4757C74.6818 15.5745 74.4404 15.595 74.2133 15.5334L45.2113 7.66844C45.1142 7.64211 45.0137 7.63058 44.9132 7.63424L17.8257 8.61924Z" fill="#FFE801" stroke="#C79B2F"/>
</svg>
