<svg width="316" height="397" viewBox="0 0 316 397" fill="none" xmlns="http://www.w3.org/2000/svg">
<path d="M260.704 333.469C260.577 333.142 260.631 332.773 260.845 332.496L268.791 322.213C268.927 322.038 269 321.823 269 321.601V300.391C269 299.859 269.416 299.421 269.947 299.393L287.564 298.466C287.842 298.451 288.101 298.321 288.28 298.107L299.208 284.993C299.738 284.357 300.766 284.603 300.951 285.41L305.88 306.92C305.955 307.247 305.862 307.589 305.632 307.831L297.137 316.798C297.047 316.893 296.938 316.97 296.818 317.024L292.879 318.774C292.636 318.882 292.447 319.082 292.351 319.329L290.11 325.157C290.038 325.343 289.913 325.504 289.75 325.618L285.427 328.644C285.159 328.831 285 329.137 285 329.463V346.907C285 347.242 284.833 347.554 284.555 347.739L271.037 356.751C270.505 357.106 269.781 356.877 269.55 356.281L260.704 333.469Z" fill="#7F64B8" stroke="#42285B"/>
<path d="M0.5 77.7248C0.5 77.5403 0.551072 77.3593 0.647562 77.202L23.3972 40.1102C23.4651 39.9995 23.5539 39.9031 23.6587 39.8263L66.2982 8.59043C66.4307 8.49335 66.5851 8.43041 66.7477 8.40718L122.028 0.510034C122.326 0.467359 122.628 0.561859 122.85 0.76719L135.997 12.9756C136.3 13.257 136.4 13.6945 136.243 14.0772C135.163 16.7157 133.237 21.074 132.5 21.4426C131.756 21.8143 128.364 24.2303 126.417 25.64C126.155 25.83 126.002 26.135 126.006 26.4589L126.495 69.9827C126.498 70.2746 126.629 70.5505 126.853 70.7379L144.807 85.781C144.934 85.8871 145.032 86.0228 145.093 86.1761L150.797 100.436C150.924 100.752 150.881 101.11 150.684 101.387L133.079 126.129C132.759 126.579 132.863 127.202 133.312 127.523L142.647 134.19C142.872 134.351 143.021 134.598 143.057 134.873L149.5 183.443L150.323 188.791C150.416 189.396 149.947 189.943 149.334 189.943H123.888C123.638 189.943 123.398 189.849 123.214 189.681L95.571 164.463C95.2347 164.157 94.7337 164.116 94.352 164.364L85.2486 170.281C85.0863 170.386 84.897 170.443 84.7036 170.443H35.4581C35.1672 170.443 34.8908 170.316 34.7008 170.096L0.742751 130.724C0.58615 130.542 0.5 130.311 0.5 130.071V77.9426V77.7248Z" fill="#7F64B8" stroke="#42285B"/>
<path d="M240.77 54.9426C241.54 54.9426 242.021 54.1103 241.637 53.4436L233.372 39.0892C233.151 38.7056 232.705 38.5129 232.274 38.6154L212.437 43.3385C212.159 43.4047 211.866 43.3488 211.632 43.1849L192.437 29.7487C192.164 29.5574 191.813 29.5149 191.502 29.6355L167.913 38.7825C167.65 38.8844 167.356 38.8707 167.104 38.7446L133.03 21.7074C132.703 21.5441 132.313 21.5718 132.013 21.7796L126.437 25.6402C126.164 25.8293 126.002 26.1416 126.006 26.4737L126.495 69.9827C126.498 70.2746 126.629 70.5505 126.853 70.7379L144.868 85.8316C144.955 85.905 145.055 85.9629 145.162 86.0027L189.018 102.264C189.321 102.376 189.659 102.335 189.926 102.155L207.729 90.1254C207.905 90.0066 208.114 89.9468 208.326 89.9547L246.967 91.3858C247.689 91.4125 248.2 90.6886 247.934 90.0173L234.544 56.3118C234.283 55.6552 234.767 54.9426 235.473 54.9426H240.77Z" fill="#7F64B8" stroke="#42285B"/>
<path d="M247.9 91.4203C248.269 91.434 248.601 91.6504 248.762 91.9829L273.41 142.757C273.469 142.879 273.553 142.988 273.656 143.077L295.035 161.541C295.32 161.787 295.72 161.852 296.068 161.709L313.154 154.7C313.916 154.387 314.708 155.077 314.502 155.874L306.561 186.706C306.521 186.861 306.444 187.005 306.337 187.125L258.256 240.658C258.091 240.841 258 241.079 258 241.326V272.325C258 272.703 257.786 273.05 257.447 273.219L241.595 281.145C241.235 281.325 240.801 281.271 240.496 281.008L223 265.943L204.87 251.243C204.636 251.053 204.5 250.767 204.5 250.466V220.857C204.5 220.592 204.605 220.337 204.793 220.15L216.207 208.735C216.395 208.548 216.5 208.294 216.5 208.028V190.54C216.5 190.172 216.298 189.834 215.974 189.659L203.722 183.062C203.576 182.984 203.413 182.943 203.248 182.943H150.366C149.869 182.943 149.447 182.577 149.376 182.085L142.559 134.852C142.521 134.59 142.381 134.353 142.169 134.195L133.28 127.528C132.846 127.202 132.751 126.59 133.065 126.148L150.684 101.387C150.881 101.11 150.924 100.752 150.797 100.436L145.837 88.0351C145.515 87.23 146.3 86.4246 147.113 86.7261L189.018 102.264C189.321 102.376 189.659 102.335 189.926 102.155L207.729 90.1254C207.905 90.0066 208.114 89.9468 208.326 89.9547L247.9 91.4203Z" fill="#8163B8" stroke="#42285B"/>
<path d="M124.225 189.943C123.793 189.943 123.409 190.221 123.275 190.632L115.652 213.978C115.556 214.271 115.601 214.592 115.773 214.848L128.815 234.168C128.935 234.346 128.995 234.559 128.985 234.774L126.051 298.329C126.024 298.923 126.519 299.41 127.113 299.373L149.624 297.966C149.866 297.951 150.106 298.024 150.298 298.173L160.73 306.234C160.905 306.369 161.12 306.443 161.341 306.443H184.281C184.425 306.443 184.568 306.411 184.699 306.351L221.932 289.204C222.279 289.044 222.505 288.7 222.513 288.317L222.989 265.942C222.996 265.628 222.854 265.328 222.606 265.134L204.883 251.243C204.641 251.053 204.5 250.763 204.5 250.456V220.857C204.5 220.592 204.605 220.337 204.793 220.15L216.207 208.735C216.395 208.548 216.5 208.294 216.5 208.028V190.54C216.5 190.172 216.298 189.834 215.974 189.659L203.722 183.062C203.576 182.984 203.413 182.943 203.248 182.943H150.653C150.044 182.943 149.577 183.482 149.663 184.084L150.337 188.801C150.423 189.404 149.956 189.943 149.347 189.943H124.225Z" fill="#8163B8" stroke="#42285B"/>
<path d="M126.056 300.435C126.025 299.886 126.443 299.415 126.992 299.381L149.624 297.966C149.866 297.951 150.106 298.024 150.298 298.173L160.73 306.234C160.905 306.369 161.12 306.443 161.341 306.443H184.281C184.425 306.443 184.568 306.411 184.699 306.351L221.932 289.204C222.279 289.044 222.505 288.7 222.513 288.317L222.954 267.607C222.972 266.754 223.981 266.314 224.618 266.881L240.494 280.993C240.8 281.264 241.24 281.323 241.606 281.14L256.848 273.519C257.432 273.227 258.134 273.564 258.272 274.202L261.869 290.837C261.949 291.208 261.813 291.592 261.516 291.829L232.301 315.202C232.107 315.357 231.978 315.578 231.939 315.823L227.062 346.059C227.022 346.306 226.891 346.529 226.695 346.684L215.163 355.813C215.056 355.899 214.967 356.005 214.902 356.126L199.635 384.69C199.547 384.855 199.414 384.992 199.252 385.085L179.731 396.309C179.58 396.397 179.408 396.443 179.233 396.443H142.747C142.304 396.443 141.914 396.151 141.788 395.726L129.033 352.554C129.011 352.48 128.998 352.404 128.993 352.327L126.056 300.435Z" fill="#7F64B8" stroke="#42285B"/>
</svg>
