<svg width="228" height="379" viewBox="0 0 228 379" fill="none" xmlns="http://www.w3.org/2000/svg">
<path d="M33.6024 16.7968L26.3002 25.0725C26.1712 25.2188 26.0877 25.3996 26.0601 25.5928L23.628 42.6179C23.6111 42.7362 23.5731 42.8505 23.5159 42.9553L15.0877 58.4071C14.8207 58.8965 15.0055 59.5097 15.4985 59.7701L41.0007 73.243C41.0683 73.2787 41.1316 73.3221 41.1893 73.3722L58.4467 88.3589C59.0941 88.9211 60.1024 88.4613 60.1024 87.6039V65.7968C60.1024 65.2445 60.5501 64.7968 61.1024 64.7968H81.1024C81.6547 64.7968 82.1024 64.349 82.1024 63.7968V54.5043C82.1024 54.0803 82.3698 53.7024 82.7696 53.5613L106.27 45.2672C106.92 45.0375 107.602 45.5202 107.602 46.2102V64.2854C107.602 64.6065 107.757 64.9081 108.017 65.0961L115.976 70.8443C116.345 71.1108 116.847 71.0944 117.198 70.8045L127.825 62.0258C128.004 61.8777 128.23 61.7968 128.462 61.7968H139.657C139.941 61.7968 140.211 61.6764 140.4 61.4657L148.517 52.4469C148.852 52.0746 148.86 51.5119 148.536 51.1303L140.902 42.1491C140.712 41.9256 140.433 41.7968 140.14 41.7968H126.054C125.767 41.7968 125.494 41.6733 125.304 41.458L99.8622 12.5915C99.6952 12.402 99.4628 12.2828 99.2115 12.2577L69.7914 9.31565C69.6665 9.30316 69.5451 9.26729 69.4335 9.2099L52.713 0.61076C52.3451 0.421572 51.8987 0.478411 51.59 0.753752L33.6024 16.7968Z" fill="#A6E700" stroke="#1E4B17"/>
<path d="M148.458 52.5123C148.818 52.1128 149.429 52.0689 149.842 52.413L157.743 58.9969C157.971 59.1869 158.102 59.4683 158.102 59.7651V72.4778C158.102 73.0301 157.655 73.4778 157.102 73.4778H153.102C152.55 73.4778 152.102 73.9256 152.102 74.4778V78.7968C152.102 79.349 152.55 79.7968 153.102 79.7968H169.274C169.487 79.7968 169.695 79.8649 169.867 79.9913L194.51 98.1248C195.17 98.6107 196.102 98.1392 196.102 97.3193V95.2968C196.102 94.7445 196.55 94.2968 197.102 94.2968H209.585C209.91 94.2968 210.214 94.4541 210.401 94.7187L226.918 118.037C227.038 118.206 227.102 118.408 227.102 118.615V138.818C227.102 139.121 226.965 139.407 226.729 139.597L206.975 155.497C206.74 155.686 206.602 155.973 206.602 156.276V190.44C206.602 190.671 206.523 190.894 206.376 191.073L193.402 206.93C193.213 207.162 192.928 207.297 192.629 207.297H181.506C181.247 207.297 180.998 207.397 180.812 207.577L167.335 220.572C167.184 220.718 167.082 220.908 167.045 221.115L161.644 251.068C161.617 251.218 161.555 251.361 161.464 251.484L147.734 270.087C147.179 270.838 145.989 270.487 145.931 269.555L145.135 256.816C145.115 256.491 144.937 256.195 144.658 256.025L128.065 245.885C127.553 245.572 127.43 244.882 127.801 244.412L141.626 226.901C141.907 226.545 141.913 226.044 141.641 225.681L116.302 191.897C115.808 191.238 116.278 190.297 117.102 190.297H119.102C119.655 190.297 120.102 189.849 120.102 189.297V168.297C120.102 167.744 119.655 167.297 119.102 167.297H105.254C104.858 167.297 104.499 167.063 104.339 166.7L97.2134 150.548C97.1408 150.384 97.025 150.242 96.8784 150.137L68.0304 129.601C67.7624 129.411 67.4178 129.364 67.1087 129.476L51.6514 135.097C51.3122 135.22 50.9329 135.151 50.6589 134.917L37.4516 123.596C37.23 123.406 37.1024 123.129 37.1024 122.837V106.81C37.1024 106.488 37.2577 106.185 37.5195 105.998L59.6853 90.096C59.9471 89.9081 60.1024 89.6057 60.1024 89.2834V65.7968C60.1024 65.2445 60.5501 64.7968 61.1024 64.7968H81.1024C81.6547 64.7968 82.1024 64.349 82.1024 63.7968V54.5043C82.1024 54.0803 82.3698 53.7024 82.7696 53.5613L106.27 45.2672C106.92 45.0375 107.602 45.5202 107.602 46.2102V64.2854C107.602 64.6065 107.757 64.9081 108.017 65.0961L115.976 70.8443C116.345 71.1108 116.847 71.0944 117.198 70.8045L127.825 62.0258C128.004 61.8777 128.23 61.7968 128.462 61.7968H139.657C139.941 61.7968 140.211 61.6764 140.4 61.4657L148.458 52.5123Z" fill="#A6E700" stroke="#1E4B17"/>
<path d="M144.796 271.995C145.448 272.146 146.061 271.626 146.019 270.958L145.135 256.816C145.115 256.491 144.937 256.195 144.658 256.025L128.065 245.885C127.553 245.572 127.43 244.882 127.801 244.412L141.626 226.901C141.907 226.545 141.913 226.044 141.641 225.681L115.402 190.697C115.214 190.445 114.917 190.297 114.602 190.297H100.583C100.279 190.297 99.9919 190.435 99.8022 190.672L92.5716 199.71C92.2937 200.058 91.8195 200.18 91.4084 200.01L78.6854 194.745C78.1171 194.51 77.4731 194.839 77.3304 195.437L67.1475 238.108C67.1177 238.233 67.1123 238.362 67.1314 238.489L76.5851 301.182C76.5966 301.258 76.6169 301.333 76.6455 301.404L95.5154 348.579C95.5726 348.722 95.596 348.877 95.5837 349.03L94.6632 360.538C94.6273 360.986 94.8954 361.403 95.3182 361.557L110.105 366.934C110.646 367.131 111.241 366.831 111.405 366.279L116.477 349.219C116.557 348.95 116.52 348.66 116.376 348.419L107.889 334.274C107.711 333.977 107.699 333.61 107.857 333.302L116.284 316.916C116.475 316.544 116.415 316.092 116.132 315.783L111.567 310.804C111.287 310.499 111.225 310.052 111.41 309.681L117.403 297.695C117.53 297.442 117.758 297.254 118.032 297.178L131.555 293.448C131.895 293.354 132.16 293.089 132.253 292.75L135.96 279.312C136.049 278.99 135.971 278.645 135.753 278.392L128.603 270.113C127.971 269.381 128.642 268.267 129.584 268.485L144.796 271.995Z" fill="#A6E700" stroke="#1E4B17"/>
<path d="M14.1113 60.0928C14.3877 59.6448 14.964 59.4878 15.4294 59.7337L41.0007 73.243C41.0683 73.2787 41.1316 73.3221 41.1893 73.3722L59.1468 88.9669C59.6344 89.3904 59.5988 90.158 59.0741 90.5345L37.5195 105.998C37.2577 106.185 37.1024 106.488 37.1024 106.81V123.007C37.1024 123.302 37.2322 123.581 37.4571 123.771L50.6462 134.911C50.9272 135.149 51.3152 135.213 51.6575 135.078C57.3082 132.859 67.6024 128.91 67.6024 129.297C67.6024 129.694 86.9716 143.255 96.8767 150.14C97.0277 150.245 97.1417 150.386 97.2159 150.554L104.339 166.7C104.499 167.063 104.858 167.297 105.254 167.297H119.102C119.655 167.297 120.102 167.744 120.102 168.297V189.297C120.102 189.849 119.655 190.297 119.102 190.297H100.583C100.279 190.297 99.9919 190.435 99.8022 190.672L92.5716 199.71C92.2937 200.058 91.8195 200.18 91.4084 200.01L78.6854 194.745C78.1171 194.51 77.4731 194.839 77.3304 195.437L67.1475 238.108C67.1177 238.233 67.1123 238.362 67.1314 238.489L76.5851 301.182C76.5966 301.258 76.6169 301.333 76.6455 301.404L95.5154 348.579C95.5726 348.722 95.596 348.877 95.5837 349.03L94.6626 360.544C94.627 360.989 94.8913 361.404 95.3101 361.561L122.868 371.837C123.489 372.068 123.717 372.827 123.328 373.362L120.402 377.385C120.214 377.644 119.913 377.797 119.593 377.797H96.6763C96.3209 377.797 95.9922 377.608 95.8129 377.301L73.744 339.539C73.6514 339.381 73.6042 339.2 73.6075 339.016L74.0963 312.132C74.1003 311.914 74.0332 311.702 73.9052 311.526L62.2937 295.56C62.1694 295.389 62.1024 295.183 62.1024 294.972V263.612C62.1024 263.407 62.0393 263.207 61.9216 263.039L58.7582 258.519C58.6562 258.374 58.5949 258.203 58.5807 258.026L54.12 202.515C54.1084 202.371 54.1282 202.227 54.1779 202.091L59.3897 187.877C59.5201 187.521 59.4384 187.123 59.1788 186.847L19.3357 144.544C19.1844 144.384 19.0905 144.178 19.0686 143.958L17.1379 124.652C17.115 124.422 17.0132 124.208 16.85 124.044L3.39531 110.59C3.20777 110.402 3.10242 110.148 3.10242 109.883V91.7774C3.10242 91.4736 3.24051 91.1863 3.47772 90.9965L6.94511 88.2226C7.4986 87.7798 7.42847 86.9177 6.81068 86.5702L1.00998 83.3073C0.514798 83.0287 0.350868 82.3941 0.649207 81.9106L14.1113 60.0928Z" fill="#A6E700" stroke="#1E4B17"/>
</svg>
