<svg width="338" height="263" viewBox="0 0 338 263" fill="none" xmlns="http://www.w3.org/2000/svg">
<path d="M29.4247 76.5194C29.4247 75.9041 29.9751 75.4347 30.5827 75.532L41.8462 77.3341C41.8984 77.3425 41.9513 77.3467 42.0042 77.3467H62.4998C62.7713 77.3467 63.0312 77.4571 63.2196 77.6525L75.6245 90.5168C76.0468 90.9548 75.9834 91.6654 75.4901 92.0216L58.7911 104.082C58.5582 104.25 58.2641 104.31 57.984 104.247L47.64 101.896C47.4981 101.863 47.351 101.862 47.2088 101.893L41.0349 103.216C40.6615 103.296 40.2751 103.156 40.0391 102.856L34.9764 96.4125C34.942 96.3687 34.904 96.3278 34.8627 96.2904L29.752 91.6443C29.5435 91.4547 29.4247 91.1861 29.4247 90.9043V76.5194Z" fill="#229DDC" stroke="#0A6AAE"/>
<path d="M11.8117 141.447C11.8866 141.381 11.9711 141.326 12.0623 141.284L16.7938 139.133C17.1733 138.961 17.62 139.042 17.9147 139.337L23.3937 144.816C23.7083 145.13 23.7772 145.615 23.5628 146.005L18.6107 155.008C18.491 155.226 18.2945 155.391 18.0596 155.472L3.74976 160.391C3.10055 160.614 2.42468 160.132 2.42468 159.445V156.987C2.42468 156.894 2.41173 156.801 2.38621 156.712L0.538476 150.245C0.465615 149.99 0.497042 149.716 0.625842 149.485L2.63893 145.861C2.8153 145.544 3.14992 145.347 3.51309 145.347H7.04448C7.2894 145.347 7.5258 145.257 7.70885 145.094L11.8117 141.447Z" fill="#229DDC"/>
<path d="M26.8819 137.911C26.9104 137.868 26.9421 137.828 26.9768 137.79L36.1875 127.742C36.8038 127.069 37.9247 127.505 37.9247 128.417V155.446C37.9247 155.703 38.0238 155.95 38.2013 156.136L47.6817 166.068C48.0829 166.489 48.0426 167.161 47.5941 167.531L40.2016 173.619C40.0226 173.766 39.7979 173.847 39.5659 173.847H23.5913C23.1876 173.847 22.8235 173.604 22.6683 173.231L18.2238 162.565C18.0479 162.142 18.1809 161.654 18.5469 161.38L25.5247 156.147C25.7765 155.958 25.9247 155.661 25.9247 155.347V139.649C25.9247 139.452 25.9831 139.259 26.0926 139.095L26.8819 137.911Z" fill="#229DDC"/>
<path d="M11.8117 141.447C11.8866 141.381 11.9711 141.326 12.0623 141.284L16.7938 139.133C17.1733 138.961 17.62 139.042 17.9147 139.337L23.3937 144.816C23.7083 145.13 23.7772 145.615 23.5628 146.005L18.6107 155.008C18.491 155.226 18.2945 155.391 18.0596 155.472L3.74976 160.391C3.10055 160.614 2.42468 160.132 2.42468 159.445V156.987C2.42468 156.894 2.41173 156.801 2.38621 156.712L0.538476 150.245C0.465615 149.99 0.497042 149.716 0.625842 149.485L2.63893 145.861C2.8153 145.544 3.14992 145.347 3.51309 145.347H7.04448C7.2894 145.347 7.5258 145.257 7.70885 145.094L11.8117 141.447Z" stroke="#0A6AAE"/>
<path d="M26.8819 137.911C26.9104 137.868 26.9421 137.828 26.9768 137.79L36.1875 127.742C36.8038 127.069 37.9247 127.505 37.9247 128.417V155.446C37.9247 155.703 38.0238 155.95 38.2013 156.136L47.6817 166.068C48.0829 166.489 48.0426 167.161 47.5941 167.531L40.2016 173.619C40.0226 173.766 39.7979 173.847 39.5659 173.847H23.5913C23.1876 173.847 22.8235 173.604 22.6683 173.231L18.2238 162.565C18.0479 162.142 18.1809 161.654 18.5469 161.38L25.5247 156.147C25.7765 155.958 25.9247 155.661 25.9247 155.347V139.649C25.9247 139.452 25.9831 139.259 26.0926 139.095L26.8819 137.911Z" stroke="#0A6AAE"/>
<path d="M58.0919 239.68C57.6961 239.482 57.4774 239.048 57.5543 238.612L63.2885 206.119C63.3685 205.665 63.7475 205.325 64.2067 205.295L77.9028 204.381C78.2297 204.36 78.5252 204.179 78.6938 203.898L84.188 194.741C84.3382 194.491 84.3716 194.187 84.2792 193.91L82.3634 188.163C82.1476 187.515 82.6296 186.847 83.3121 186.847H94.7624C94.8699 186.847 94.9767 186.829 95.0786 186.795L97.6809 185.928C98.4327 185.677 98.6082 184.693 97.9893 184.198L89.6509 177.528C89.5031 177.409 89.3919 177.252 89.3302 177.073L84.6705 163.56C84.525 163.138 84.6767 162.67 85.0424 162.414L88.8112 159.776C89.1749 159.522 89.6628 159.537 90.0094 159.814L96.119 164.702C96.5598 165.055 97.205 164.973 97.5437 164.521L102.573 157.815C102.79 157.526 103.147 157.376 103.505 157.424L109.344 158.203C109.925 158.28 110.315 158.839 110.188 159.411L108.506 166.98C108.454 167.217 108.489 167.464 108.604 167.676L114.24 178.008C114.359 178.226 114.555 178.392 114.789 178.473L125.541 182.213C125.787 182.299 125.99 182.477 126.107 182.71L131.743 193.984C131.86 194.217 132.062 194.395 132.307 194.481L151.623 201.241C151.819 201.31 151.989 201.438 152.109 201.608L157.476 209.21C157.74 209.585 157.716 210.09 157.418 210.438L155.45 212.733C155.144 213.091 155.128 213.615 155.414 213.99L171.203 234.741C171.704 235.399 171.234 236.347 170.407 236.347H166.197C165.742 236.347 165.345 236.654 165.23 237.094L162.62 247.099C162.505 247.539 162.107 247.847 161.652 247.847H158.925C158.372 247.847 157.925 247.399 157.925 246.847V231.817C157.925 231.519 157.792 231.237 157.562 231.047L132.91 210.662C132.409 210.247 131.653 210.414 131.371 210.999L126.107 221.968C125.99 222.21 125.781 222.395 125.527 222.482L100.103 231.116C99.6975 231.254 99.4247 231.635 99.4247 232.063V244.347C99.4247 244.899 98.977 245.347 98.4247 245.347H69.6608C69.5055 245.347 69.3524 245.311 69.2135 245.241L58.0919 239.68Z" fill="#229DDC" stroke="#0A6AAE"/>
<path d="M110.425 158.347L114.395 137.998C114.415 137.898 114.449 137.801 114.498 137.711L129.477 110.169C129.729 109.706 130.297 109.518 130.775 109.739L135.966 112.135C136.254 112.268 136.462 112.53 136.527 112.841L139.81 128.788C139.881 129.134 140.13 129.417 140.465 129.532L156.572 135.054C157.056 135.22 157.337 135.726 157.222 136.225L154.477 148.122C154.442 148.27 154.442 148.424 154.477 148.572L158.796 167.287C158.876 167.634 158.765 167.997 158.507 168.24L151.325 175C150.861 175.436 150.918 176.188 151.441 176.55L162.994 184.548C163.264 184.735 163.425 185.042 163.425 185.371V196.636C163.425 197.061 163.155 197.44 162.753 197.58L152.254 201.232C152.041 201.306 151.809 201.306 151.595 201.231L132.307 194.481C132.062 194.395 131.86 194.217 131.743 193.984L126.107 182.71C125.99 182.477 125.787 182.299 125.541 182.213L114.789 178.473C114.555 178.392 114.359 178.226 114.24 178.008L108.604 167.676C108.489 167.464 108.454 167.217 108.506 166.98L110.425 158.347Z" fill="#229DDC" stroke="#0A6AAE"/>
<path d="M106.973 82.9797C106.656 82.6135 106.647 82.0723 106.952 81.6956L114.702 72.1218C114.846 71.9438 114.925 71.7217 114.925 71.4927V48.1781C114.925 47.9629 114.994 47.7535 115.123 47.5809L131.834 25.1397C132.161 24.7003 132.781 24.606 133.224 24.9282L137.425 27.9832C137.731 28.206 138.137 28.2365 138.473 28.0622L191.413 0.612218C191.729 0.447884 192.11 0.46497 192.411 0.657049L214.49 14.7501C214.99 15.0692 215.104 15.7506 214.735 16.2149L202.142 32.0736C202.001 32.2504 201.925 32.4696 201.925 32.6954V61.6855C201.925 62.2969 201.381 62.7651 200.776 62.6744L192.352 61.4108C192.079 61.3699 191.802 61.4435 191.585 61.6143L175.614 74.1977C175.489 74.2956 175.39 74.4216 175.324 74.5653L164.192 98.7646C164.029 99.1194 163.674 99.3467 163.284 99.3467H155.275C155.048 99.3467 154.828 99.424 154.651 99.5658L143.52 108.471C142.983 108.9 142.184 108.673 141.953 108.026L132.974 82.8859C132.723 82.1821 131.817 81.9927 131.304 82.5369L124.721 89.532C124.532 89.7328 124.268 89.8467 123.993 89.8467H113.381C113.091 89.8467 112.816 89.7208 112.626 89.5016L106.973 82.9797Z" fill="#229DDC" stroke="#0A6AAE"/>
<path d="M157.425 135.347L162.925 135.847L168.297 132.265C168.669 132.017 169.159 132.046 169.499 132.335L178.572 140.047C178.796 140.237 178.925 140.516 178.925 140.809V152.106C178.925 152.546 179.212 152.934 179.634 153.062L189.738 156.138C190.148 156.263 190.433 156.635 190.446 157.064L190.905 172.204C190.917 172.595 191.157 172.944 191.518 173.095L205.811 179.09C206.183 179.245 206.425 179.609 206.425 180.012V198.388C206.425 198.679 206.552 198.956 206.772 199.146L223.725 213.744C224.12 214.084 224.188 214.671 223.88 215.092L214.97 227.284C214.94 227.326 214.906 227.365 214.87 227.401L214.521 227.75C214.457 227.814 214.385 227.869 214.306 227.914L203.154 234.217C203.004 234.302 202.834 234.347 202.662 234.347H198.053C197.453 234.347 196.988 234.871 197.06 235.467L198.882 250.491C198.909 250.721 198.857 250.953 198.733 251.149L192.24 261.351C192.045 261.657 191.7 261.833 191.338 261.812L184.786 261.427C184.111 261.387 183.67 260.704 183.91 260.072L187.219 251.388C187.346 251.053 187.285 250.676 187.058 250.399L178.651 240.123C178.505 239.944 178.425 239.721 178.425 239.49V229.194C178.425 228.969 178.349 228.751 178.21 228.574L163.725 210.227C163.535 209.987 163.246 209.847 162.94 209.847H158.443C158.118 209.847 157.813 209.689 157.626 209.423L152.691 202.432C152.307 201.888 152.551 201.129 153.179 200.91L162.753 197.58C163.155 197.44 163.425 197.061 163.425 196.636V185.371C163.425 185.042 163.264 184.735 162.994 184.548L151.441 176.55C150.918 176.188 150.861 175.436 151.325 175L158.507 168.24C158.765 167.997 158.876 167.634 158.796 167.287L154.477 148.572C154.442 148.424 154.442 148.27 154.477 148.122L157.425 135.347Z" fill="#229DDC"/>
<path d="M157.425 135.347C159.573 135.542 162.925 135.847 162.925 135.847M157.425 135.347L154.477 148.122C154.442 148.27 154.442 148.424 154.477 148.572L158.796 167.287C158.876 167.634 158.765 167.997 158.507 168.24L151.325 175C150.861 175.436 150.918 176.188 151.441 176.55L162.994 184.548C163.264 184.735 163.425 185.042 163.425 185.371V196.636C163.425 197.061 163.155 197.44 162.753 197.58L153.179 200.91C152.551 201.129 152.307 201.888 152.691 202.432L157.626 209.423C157.813 209.689 158.118 209.847 158.443 209.847H162.94C163.246 209.847 163.535 209.987 163.725 210.227L178.21 228.574C178.349 228.751 178.425 228.969 178.425 229.194V239.49C178.425 239.721 178.505 239.944 178.651 240.123L187.058 250.399C187.285 250.676 187.346 251.053 187.219 251.388L183.91 260.072C183.67 260.704 184.111 261.387 184.786 261.427L191.338 261.812C191.7 261.833 192.045 261.657 192.24 261.351L198.733 251.149C198.857 250.953 198.909 250.721 198.882 250.491L197.06 235.467C196.988 234.871 197.453 234.347 198.053 234.347H202.662C202.834 234.347 203.004 234.302 203.154 234.217L214.306 227.914C214.385 227.869 214.457 227.814 214.521 227.75L214.87 227.401C214.906 227.365 214.94 227.326 214.97 227.284L223.88 215.092C224.188 214.671 224.12 214.084 223.725 213.744L206.772 199.146C206.552 198.956 206.425 198.679 206.425 198.388V180.012C206.425 179.609 206.183 179.245 205.811 179.09L191.518 173.095C191.157 172.944 190.917 172.595 190.905 172.204L190.446 157.064C190.433 156.635 190.148 156.263 189.738 156.138L179.634 153.062C179.212 152.934 178.925 152.546 178.925 152.106V140.809C178.925 140.516 178.796 140.237 178.572 140.047L169.499 132.335C169.159 132.046 168.669 132.017 168.297 132.265L162.925 135.847M157.425 135.347L162.925 135.847" stroke="#0A6AAE"/>
<path d="M214.902 16.0043C215.204 15.624 215.736 15.5156 216.163 15.7473L232.402 24.5628C232.724 24.7377 232.925 25.075 232.925 25.4417V34.8467C232.925 35.399 232.477 35.8467 231.925 35.8467H218.359C217.663 35.8467 217.18 36.5395 217.42 37.1924L223.343 53.2689C223.606 53.9805 224.533 54.1527 225.033 53.5826L248.009 27.3907C248.459 26.8773 249.28 26.9563 249.624 27.5462L255.336 37.3382C255.646 37.8682 256.355 37.9974 256.831 37.6105L263.21 32.4272C263.614 32.0991 264.202 32.1354 264.562 32.5108L275.648 44.058C275.825 44.2433 276.068 44.353 276.325 44.3645L297.794 45.3187C298.179 45.3358 298.52 45.5729 298.671 45.928L303.839 58.1442C303.895 58.2776 303.98 58.3971 304.087 58.4945L331.097 83.0491C331.306 83.2386 331.425 83.5073 331.425 83.789V117.084C331.425 117.431 331.245 117.754 330.949 117.936L319.4 125.054C319.105 125.236 318.925 125.558 318.925 125.905V141.916C318.925 142.191 319.038 142.454 319.238 142.643L336.611 159.051C336.811 159.24 336.925 159.503 336.925 159.778V171.841C336.925 172.159 336.774 172.458 336.518 172.646L327.689 179.152C327.517 179.278 327.31 179.347 327.096 179.347H309.967C309.629 179.347 309.313 179.518 309.129 179.802L303.207 188.912C303.03 189.184 302.997 189.526 303.117 189.828L308.376 202.975C308.639 203.632 308.155 204.347 307.448 204.347H300.002C299.645 204.347 299.315 204.537 299.136 204.847L292.238 216.803C292.046 217.136 292.062 217.548 292.277 217.865L308.683 241.991C308.837 242.218 308.891 242.499 308.833 242.767L305.901 256.171C305.716 257.014 304.622 257.244 304.115 256.546L297.724 247.759C297.536 247.5 297.235 247.347 296.915 247.347H283.37C283.087 247.347 282.816 247.226 282.627 247.016L251.997 212.982C251.667 212.616 251.654 212.065 251.964 211.683L256.6 205.977C257.131 205.324 256.666 204.347 255.824 204.347H246.893C246.596 204.347 246.315 204.479 246.125 204.706L239.805 212.291C239.37 212.812 238.553 212.759 238.191 212.185L233.67 205.026C233.304 204.447 232.478 204.399 232.047 204.931L225.073 213.545C224.718 213.984 224.071 214.042 223.644 213.674L206.772 199.146C206.552 198.956 206.425 198.679 206.425 198.388V180.012C206.425 179.609 206.183 179.245 205.811 179.09L191.518 173.095C191.157 172.944 190.917 172.595 190.905 172.204L190.446 157.064C190.433 156.635 190.148 156.263 189.738 156.138L179.634 153.062C179.212 152.934 178.925 152.546 178.925 152.106V140.809C178.925 140.516 178.796 140.237 178.572 140.047L170.13 132.871C169.57 132.396 169.698 131.499 170.367 131.197L188.729 122.935C188.858 122.877 188.998 122.847 189.139 122.847H197.935C198.646 122.847 199.13 122.126 198.861 121.468L195.21 112.545C195.041 112.132 195.167 111.656 195.518 111.38L201.653 106.56C201.829 106.422 202.046 106.347 202.271 106.347H205.955C206.495 106.347 206.938 105.92 206.953 105.379C207.115 99.6554 207.302 89.8467 206.925 89.8467C206.535 89.8467 200.093 94.2825 196.681 96.6671C196.513 96.7846 196.315 96.8467 196.109 96.8467H185.288C184.9 96.8467 184.547 96.6227 184.382 96.2719L180.771 88.5835C180.569 88.1544 180.697 87.6427 181.076 87.3583L202.025 71.6467C202.276 71.4578 202.425 71.1614 202.425 70.8467V61.8467L201.931 32.7049C201.927 32.4733 202.003 32.2475 202.147 32.0661L214.902 16.0043Z" fill="#229DDC" stroke="#0A6AAE"/>
</svg>
