<svg width="276" height="264" viewBox="0 0 276 264" fill="none" xmlns="http://www.w3.org/2000/svg">
<path d="M87 30.4474C87 29.662 87.864 29.1832 88.53 29.5994L97.47 35.1869C98.136 35.6032 99 35.1244 99 34.3389V27.6078C99 27.3132 99.1299 27.0336 99.3551 26.8435L130.298 0.73572C130.695 0.400677 131.282 0.425528 131.65 0.792906L138.707 7.8503C138.895 8.03783 139 8.29219 139 8.5574V18.3746C139 18.5505 138.954 18.7234 138.865 18.8756L133.635 27.9107C133.546 28.063 133.5 28.2358 133.5 28.4118V45.1365C133.5 45.455 133.652 45.7545 133.909 45.9429L140.202 50.5581C140.644 50.8823 141.265 50.7902 141.594 50.3517L148.246 41.4813C148.409 41.2652 148.651 41.1238 148.919 41.0894L166.873 38.7877C167.471 38.711 168 39.1768 168 39.7796V46.4234C168 47.0544 167.423 47.5277 166.804 47.404L158.492 45.7416C158.182 45.6797 157.862 45.7676 157.627 45.9789L148.783 53.9381C148.358 54.3214 148.34 54.9834 148.745 55.3885L157.707 64.3503C157.895 64.5378 158 64.7922 158 65.0574V72.6432C158 73.1955 157.552 73.6432 157 73.6432H147.007C146.688 73.6432 146.389 73.795 146.2 74.0518L142.01 79.7659C141.558 80.3823 140.61 80.2842 140.293 79.5883L133.75 65.1928C133.596 64.8548 133.268 64.6297 132.897 64.6083L99.4348 62.6684C99.1575 62.6523 98.8994 62.5216 98.7223 62.3076L87.2296 48.4206C87.0812 48.2413 87 48.0158 87 47.7831V30.4474Z" fill="#DA3C6B" stroke="#851858"/>
<path d="M15.0377 181.857C14.5072 181.492 14.4545 180.728 14.93 180.294L25.1743 170.941C25.3818 170.751 25.5 170.483 25.5 170.202V157.219C25.5 156.863 25.6898 156.533 25.9983 156.354L50.2673 142.278C50.4197 142.19 50.5928 142.143 50.769 142.143H62.4869C62.809 142.143 63.1114 141.988 63.2992 141.726L76.7008 123.06C76.8886 122.798 77.191 122.643 77.5131 122.643H88.4116C88.7748 122.643 89.1094 122.446 89.2858 122.129L96.2142 109.658C96.3906 109.34 96.7252 109.143 97.0884 109.143H103.979C104.306 109.143 104.611 109.302 104.799 109.57L110.703 118.004C111.095 118.564 111.92 118.575 112.326 118.025L128.056 96.7438C128.319 96.3876 128.786 96.2471 129.202 96.3984L149.569 103.805C150.085 103.992 150.354 104.557 150.172 105.074C148.105 110.972 144.621 121.264 145 121.643C145.365 122.008 151.293 130.151 154.991 135.25C155.441 135.872 156.394 135.774 156.711 135.075L172.734 99.7303C172.896 99.3728 173.252 99.1432 173.645 99.1432H180.5C181.052 99.1432 181.5 99.5909 181.5 100.143V151.273C181.5 151.512 181.585 151.743 181.741 151.924L190.259 161.862C190.415 162.044 190.5 162.274 190.5 162.513V187.866C190.5 188.047 190.549 188.225 190.643 188.381L197.763 200.249C197.914 200.499 197.947 200.803 197.855 201.08L188.603 228.834C188.536 229.035 188.407 229.209 188.235 229.332L141.761 262.458C141.591 262.578 141.388 262.643 141.18 262.643H109.363C108.867 262.643 108.446 262.28 108.374 261.79L104.626 236.497C104.554 236.006 104.133 235.643 103.637 235.643H93.5C92.9477 235.643 92.5 235.195 92.5 234.643V221.884C92.5 221.444 92.2122 221.056 91.7912 220.927L69.9115 214.268C69.6488 214.188 69.3648 214.22 69.1261 214.356L44.3116 228.466C44.1102 228.581 43.8751 228.622 43.6468 228.582L18.4979 224.229C18.1848 224.175 17.9161 223.975 17.774 223.691L13.2704 214.684C13.1042 214.351 13.1361 213.954 13.3533 213.652L21.8115 201.905C21.9341 201.735 22 201.53 22 201.321V187.169C22 186.84 21.8379 186.532 21.5665 186.345L15.0377 181.857Z" fill="#DA3C6B" stroke="#851858"/>
<path d="M0.5 7.46892C0.5 6.80454 1.1359 6.32488 1.77472 6.50739L13.7747 9.93597C14.204 10.0586 14.5 10.451 14.5 10.8975V17.6767C14.5 17.9724 14.6308 18.2529 14.8574 18.4429L29.8221 30.994C29.9392 31.0922 30.0321 31.2158 30.094 31.3555L43.4608 61.5546C43.4869 61.6135 43.5072 61.6748 43.5215 61.7377L45.9751 72.5338C45.9917 72.6065 46 72.6808 46 72.7554V78.0442C46 78.11 46.0065 78.1757 46.0194 78.2403L47.3392 84.8393C47.4327 85.3067 47.8431 85.6432 48.3198 85.6432H64.514C64.8208 85.6432 65.1107 85.7841 65.3003 86.0254L74.456 97.6781C75.0136 98.3878 74.4199 99.4147 73.5266 99.2856L35.7673 93.8264C35.1235 93.7333 34.7385 93.0601 34.9848 92.4581L38.803 83.1248C38.9265 82.823 38.895 82.4798 38.7186 82.2054L36.3412 78.5072C35.8015 77.6677 34.5 78.0499 34.5 79.048V80.729C34.5 80.9942 34.3946 81.2485 34.2071 81.4361L32.142 83.5012C31.7778 83.8653 31.1967 83.8934 30.7992 83.566L23.2765 77.3709C23.0977 77.2237 22.9756 77.019 22.931 76.7917L17.5299 49.2953C17.5101 49.1945 17.4749 49.0973 17.4254 49.0072L0.623187 18.3678C0.542367 18.2204 0.5 18.0551 0.5 17.887V7.46892Z" fill="#DA3C6B" stroke="#851858"/>
<path d="M183.966 42.1075C183.985 41.5694 184.427 41.1432 184.965 41.1432H191.5C192.052 41.1432 192.5 41.5909 192.5 42.1432V50.4933C192.5 50.8885 192.267 51.2466 191.906 51.4071L184.963 54.4931C184.287 54.7933 183.531 54.2823 183.557 53.5436L183.966 42.1075Z" fill="#DA3C6B"/>
<path d="M197.049 55.8215C196.458 55.1809 196.912 54.1432 197.784 54.1432H209.116C209.363 54.1432 209.602 54.2346 209.785 54.3999L214.169 58.3453C214.38 58.5349 214.5 58.8051 214.5 59.0886V65.2346C214.5 66.0413 215.406 66.516 216.069 66.0568L220.592 62.9259C220.849 62.7478 221.175 62.7003 221.472 62.7976L248.261 71.565C248.418 71.6163 248.56 71.7056 248.674 71.825L258.723 82.3534C258.901 82.5394 259 82.7867 259 83.0438V87.6432C259 88.1955 259.448 88.6432 260 88.6432H263.032C263.328 88.6432 263.61 88.775 263.8 89.003L268.268 94.3651C268.418 94.5448 268.5 94.7713 268.5 95.0052V101.828C268.5 102.033 268.563 102.233 268.681 102.401L275.101 111.573C275.341 111.916 275.342 112.372 275.104 112.716L271.651 117.703C271.306 118.201 270.602 118.281 270.155 117.873L249.165 98.7493C248.787 98.4047 248.21 98.4012 247.827 98.7411L244.385 101.801C244.143 102.016 243.813 102.1 243.498 102.028L227.048 98.2685C226.708 98.1907 226.433 97.941 226.322 97.6098L221.122 82.0087C221.043 81.7734 220.88 81.5757 220.664 81.4539L202.009 70.9301C201.694 70.7528 201.5 70.42 201.5 70.0592V61.0342C201.5 60.7828 201.405 60.5406 201.235 60.3559L197.049 55.8215Z" fill="#DA3C6B"/>
<path d="M183.966 42.1075C183.985 41.5694 184.427 41.1432 184.965 41.1432H191.5C192.052 41.1432 192.5 41.5909 192.5 42.1432V50.4933C192.5 50.8885 192.267 51.2466 191.906 51.4071L184.963 54.4931C184.287 54.7933 183.531 54.2823 183.557 53.5436L183.966 42.1075Z" stroke="#851858"/>
<path d="M197.049 55.8215C196.458 55.1809 196.912 54.1432 197.784 54.1432H209.116C209.363 54.1432 209.602 54.2346 209.785 54.3999L214.169 58.3453C214.38 58.5349 214.5 58.8051 214.5 59.0886V65.2346C214.5 66.0413 215.406 66.516 216.069 66.0568L220.592 62.9259C220.849 62.7478 221.175 62.7003 221.472 62.7976L248.261 71.565C248.418 71.6163 248.56 71.7056 248.674 71.825L258.723 82.3534C258.901 82.5394 259 82.7867 259 83.0438V87.6432C259 88.1955 259.448 88.6432 260 88.6432H263.032C263.328 88.6432 263.61 88.775 263.8 89.003L268.268 94.3651C268.418 94.5448 268.5 94.7713 268.5 95.0052V101.828C268.5 102.033 268.563 102.233 268.681 102.401L275.101 111.573C275.341 111.916 275.342 112.372 275.104 112.716L271.651 117.703C271.306 118.201 270.602 118.281 270.155 117.873L249.165 98.7493C248.787 98.4047 248.21 98.4012 247.827 98.7411L244.385 101.801C244.143 102.016 243.813 102.1 243.498 102.028L227.048 98.2685C226.708 98.1907 226.433 97.941 226.322 97.6098L221.122 82.0087C221.043 81.7734 220.88 81.5757 220.664 81.4539L202.009 70.9301C201.694 70.7528 201.5 70.42 201.5 70.0592V61.0342C201.5 60.7828 201.405 60.5406 201.235 60.3559L197.049 55.8215Z" stroke="#851858"/>
</svg>
