<svg width="80" height="178" viewBox="0 0 80 178" fill="none" xmlns="http://www.w3.org/2000/svg">
<path d="M78.1756 82.1985C78.8274 82.3489 79.4403 81.8293 79.3985 81.1617L78.5146 67.0195C78.4943 66.6939 78.3164 66.3987 78.038 66.2286L61.4443 56.0879C60.9326 55.7753 60.8093 55.0857 61.1808 54.615L75.0053 37.104C75.2864 36.7479 75.2926 36.2473 75.0204 35.8844L48.7822 0.900001C48.5933 0.648195 48.2969 0.5 47.9822 0.5H33.9628C33.659 0.5 33.3717 0.63809 33.1819 0.875305L25.9514 9.9135C25.6734 10.261 25.1993 10.383 24.7882 10.2128L12.0652 4.94813C11.4968 4.71295 10.8529 5.04175 10.7101 5.64003L0.527291 48.311C0.497495 48.4358 0.492017 48.5652 0.511157 48.6922L9.96489 111.385C9.97638 111.462 9.99663 111.536 10.0252 111.608L28.8952 158.782C28.9524 158.926 28.9758 159.08 28.9635 159.234L28.0429 170.741C28.007 171.189 28.2751 171.607 28.698 171.76L43.4844 177.137C44.0256 177.334 44.6206 177.034 44.7847 176.482L49.8567 159.422C49.9367 159.153 49.9 158.863 49.7557 158.623L41.2684 144.477C41.0904 144.18 41.0784 143.813 41.2366 143.505L49.6636 127.12C49.855 126.747 49.7943 126.295 49.5114 125.986L44.9472 121.007C44.6672 120.702 44.6046 120.255 44.79 119.884L50.783 107.898C50.9098 107.645 51.1382 107.457 51.4115 107.382L64.935 103.651C65.2744 103.557 65.5395 103.292 65.6331 102.953L69.3401 89.5151C69.4289 89.1932 69.3512 88.8483 69.1329 88.5956L61.9825 80.3162C61.3504 79.5843 62.0219 78.4707 62.9642 78.6882L78.1756 82.1985Z" fill="#A6E700" stroke="#1E4B17"/>
</svg>
