<svg width="125" height="320" viewBox="0 0 125 320" fill="none" xmlns="http://www.w3.org/2000/svg">
<path d="M14.1113 0.975075C14.3877 0.527114 14.964 0.370109 15.4294 0.615988L41.0007 14.1253C41.0683 14.161 41.1316 14.2044 41.1893 14.2545L59.1468 29.8492C59.6344 30.2727 59.5988 31.0404 59.0741 31.4168L37.5195 46.8799C37.2577 47.0677 37.1024 47.3702 37.1024 47.6924V63.8898C37.1024 64.1843 37.2322 64.4638 37.4571 64.6538L50.6462 75.7938C50.9272 76.0311 51.3152 76.0952 51.6575 75.9607C57.3082 73.7412 67.6024 69.7921 67.6024 70.1791C67.6024 70.576 86.9716 84.1375 96.8767 91.0222C97.0277 91.1271 97.1417 91.2681 97.2159 91.4362L104.339 107.583C104.499 107.945 104.858 108.179 105.254 108.179H119.102C119.655 108.179 120.102 108.627 120.102 109.179V130.179C120.102 130.731 119.655 131.179 119.102 131.179H100.583C100.279 131.179 99.9919 131.317 99.8022 131.554L92.5716 140.593C92.2937 140.94 91.8195 141.062 91.4084 140.892L78.6854 135.627C78.1171 135.392 77.4731 135.721 77.3304 136.319L67.1475 178.99C67.1177 179.115 67.1123 179.244 67.1314 179.371L76.5851 242.064C76.5966 242.141 76.6169 242.215 76.6455 242.287L95.5154 289.462C95.5726 289.605 95.596 289.759 95.5837 289.913L94.6626 301.426C94.627 301.872 94.8913 302.287 95.3101 302.443L122.868 312.719C123.489 312.95 123.717 313.709 123.328 314.244L120.402 318.267C120.214 318.526 119.913 318.679 119.593 318.679H96.6763C96.3209 318.679 95.9922 318.49 95.8129 318.184L73.744 280.421C73.6514 280.263 73.6042 280.082 73.6075 279.899L74.0963 253.014C74.1003 252.797 74.0332 252.584 73.9052 252.408L62.2937 236.442C62.1694 236.271 62.1024 236.065 62.1024 235.854V204.494C62.1024 204.289 62.0393 204.089 61.9216 203.921L58.7582 199.402C58.6562 199.256 58.5949 199.086 58.5807 198.908L54.12 143.398C54.1084 143.254 54.1282 143.109 54.1779 142.973L59.3897 128.759C59.5201 128.404 59.4384 128.005 59.1788 127.729L19.3357 85.4267C19.1844 85.2661 19.0905 85.0601 19.0686 84.8406L17.1379 65.5343C17.115 65.3046 17.0132 65.0899 16.85 64.9267L3.39531 51.472C3.20777 51.2844 3.10242 51.0301 3.10242 50.7649V32.6597C3.10242 32.3559 3.24051 32.0686 3.47772 31.8788L6.94511 29.1049C7.4986 28.6621 7.42847 27.8 6.81068 27.4525L1.00998 24.1896C0.514798 23.911 0.350868 23.2764 0.649207 22.7929L14.1113 0.975075Z" fill="#A6E700" stroke="#1E4B17"/>
</svg>
