<svg width="135" height="90" viewBox="0 0 135 90" fill="none" xmlns="http://www.w3.org/2000/svg">
<path d="M19.1371 16.7968L11.835 25.0725C11.7059 25.2188 11.6224 25.3996 11.5949 25.5928L9.16269 42.6179C9.1458 42.7362 9.10785 42.8505 9.05064 42.9553L0.622418 58.4071C0.355462 58.8965 0.540261 59.5097 1.03319 59.7701L26.5354 73.243C26.603 73.2787 26.6663 73.3221 26.724 73.3722L43.9815 88.3589C44.6288 88.9211 45.6371 88.4613 45.6371 87.6039V65.7968C45.6371 65.2445 46.0849 64.7968 46.6371 64.7968H66.6371C67.1894 64.7968 67.6371 64.349 67.6371 63.7968V54.5043C67.6371 54.0803 67.9045 53.7024 68.3043 53.5613L91.8043 45.2672C92.4549 45.0375 93.1371 45.5202 93.1371 46.2102V64.2854C93.1371 64.6065 93.2913 64.9081 93.5517 65.0961L101.511 70.8443C101.88 71.1108 102.382 71.0944 102.733 70.8045L113.36 62.0258C113.539 61.8777 113.764 61.7968 113.997 61.7968H125.192C125.475 61.7968 125.745 61.6764 125.935 61.4657L134.052 52.4469C134.387 52.0746 134.395 51.5119 134.071 51.1303L126.437 42.1491C126.247 41.9256 125.968 41.7968 125.675 41.7968H111.589C111.302 41.7968 111.028 41.6733 110.839 41.458L85.3969 12.5915C85.2299 12.402 84.9975 12.2828 84.7462 12.2577L55.3261 9.31565C55.2012 9.30316 55.0799 9.26729 54.9683 9.2099L38.2477 0.61076C37.8798 0.421572 37.4335 0.478411 37.1248 0.753752L19.1371 16.7968Z" fill="#A6E700" stroke="#1E4B17"/>
</svg>
